<svg xmlns="http://www.w3.org/2000/svg" viewBox="0 0 115.49 143.94"><title>Asset 23</title><g id="Layer_2" data-name="Layer 2"><g id="Layer_0_Image" data-name="Layer 0 Image"><path d="M9.58,62.21C9,65.78,8.28,69.34,7.8,72.92c-.5,3.84-.93,7.7-1.15,11.56-.2,3.49-.18,7-.05,10.5.06,1.37.84,2.7,1,4.09.18,1.59-.18,3.26.1,4.82a24.34,24.34,0,0,0,1.65,5.24c3.56,8.4,7.57,16.55,15.25,22,11,7.86,23.12,9.28,35.69,4.73,12.42-4.49,21.65-13.41,30-23.31a81,81,0,0,0,16.33-31.34,64.32,64.32,0,0,0,2.07-20.78c-.36-5.91-2.65-11.94-8.1-15.74-5-3.47-10.55-3.14-16.18-2.49-1,.11-2-.24-2.92,0a6.53,6.53,0,0,0-2.92,1.41c-.7.66-.84,1.63.74,1.67C85.72,45.49,92.49,52.67,93,60c.27,3.73,1,7.39-.32,11.14-.37,1,.56,2.65,1.16,3.88.1.22,1.47-.17,2.37-.29.53,2.45-1,4.44-2.68,5.6-3.7,2.6-5.3,6.59-7.56,10.12-3.87,6-8.32,11.36-15.21,14.06-11.27,4.43-25.9.25-30.86-11.79a21.21,21.21,0,0,1-.11-15.78c1.9-5,4.44-9.84,6.77-14.7.44-.94,1.11-2.18,2.35-.58.11.14.82,0,1-.15,3.91-4.79,7.77-9.62,11.56-14.61l-9.3,8.62.08.1a10.08,10.08,0,0,1,1.11-3C59.82,44.7,67.46,38.47,77.6,35.94a29.39,29.39,0,0,1,22.77,3.13c6.37,3.67,10.89,8.62,13.33,15.43a34.61,34.61,0,0,1,1.59,10.63,66.74,66.74,0,0,1-.1,11.4,73.88,73.88,0,0,1-15,36c-2.64,3.41-5,7.1-7.94,10.21a104.46,104.46,0,0,1-9.87,8.51c-2.06,1.7-4.25,3.25-6.43,4.8-12.8,9.1-26.72,9.67-41.2,5.15-14.67-4.59-24.35-14.42-29.85-28.68A71.75,71.75,0,0,1,1,74.41c1-6,2.88-11.93,4.51-18.5,1.26,1.79,2,2.82,2.73,3.85C8.7,60.57,9.14,61.39,9.58,62.21ZM70.25,49.75l-.6-.58c-2.72,2.39-5.79,4.5-8.1,7.24C54.91,64.29,49.13,72.72,47,83.09c-1.09,5.34-1.28,10.72,3.07,14.65s9.42,3.2,14.43,1.55c6.3-2.09,10.85-6.47,14.63-11.72,2.29-3.17,2.22-3.22-1.6-4.18-9-2.25-14-8-13.76-16.43A26.68,26.68,0,0,1,68,53.34C68.76,52.15,69.51,51,70.25,49.75Zm17.32,14c-.86-3.43-1.52-6.79-2.58-10-.61-1.87-2.1-3-4.26-1.86s-4.26,2.41-6.36,3.67c-.1.06.1.57.13.88a4.61,4.61,0,0,1,.1,1.72c-1,3-2.57,5.85-3.09,8.9-1.23,7.1.29,12.2,9.41,11.8a2.77,2.77,0,0,1,.81,0c1.58.37,2.44-.36,2.78-1.82C85.53,72.63,86.53,68.25,87.57,63.74Z"/><path d="M12.9,53.09l-1.4-2.26A10.7,10.7,0,0,1,11,52.72a5.57,5.57,0,0,1-.93,1.14C7.16,51.52,8.84,49.4,10,47.09A102.65,102.65,0,0,1,43.52,8.55C51.48,3,60.06-1.17,70.25.3a32.27,32.27,0,0,1,5.62,1.59c.38.13.57.83.85,1.27a5.85,5.85,0,0,1-1.69.4c-2.41-.17-4.8-.59-7.21-.65-6.2-.14-11.27,2.9-16.15,6.21C47.52,11.92,43,14.4,39.57,18c-6.37,6.73-12,14.16-18,21.26a10.74,10.74,0,0,1-1.85,1.26,2,2,0,0,0-.69.88A22.29,22.29,0,0,1,17.88,45C16.37,47.68,14.67,50.25,12.9,53.09ZM30.81,21.47l-.6-.61L25.53,26.1l.52.46Z"/><path d="M9.58,62.21c-.44-.82-.88-1.64-1.33-2.45.09-.8,1.43-1.71-.26-2.41-.16-.06,0-1.05.09-1.61.54,0,1.2-.08,1.58.19C12.09,57.6,12,61,9.58,62.21Z"/><path d="M52.23,55.57l-.08-.1c-.74,1.44-1.45,2.89-2.26,4.29,0,.07-1.26-.23-1.34-.53C48.24,58.2,50.83,55.73,52.23,55.57Z"/></g></g></svg>