<svg xmlns="http://www.w3.org/2000/svg" viewBox="0 0 287.22 90.01"><title>Asset 93</title><g id="Layer_2" data-name="Layer 2"><g id="Layer_0_Image" data-name="Layer 0 Image"><path d="M44,31l-.25-1-.58.44c-1.36-.76-2.71-1.56-4.12-2.28a60.2,60.2,0,0,1-5.6-3c-1.53-1-3.47-1.57-4.75-2.87s-3.16-1.09-4.09-2.61c-1.85-.25-2.76-2-4.32-2.73-.46-.22-.77-.61-1.38-.65s-.62-.18-1.32-1.5c-.19,0-.44-.07-.69-.09s-.49.05-.52,0c-.83-1.74-3.12-1.3-4.11-2.79-.09-.14-.15-.41-.25-.43C9.17,11.06,7.45,8.56,4.9,7.6,4,7.25,3.57,6.25,2.67,5.86a12.19,12.19,0,0,1-1.15-.63,6.22,6.22,0,0,0-.38-1.4A8.5,8.5,0,0,0,0,2.48c1.46-.65,2.83-.14,4.07-.8L1,1.53.8.82C4.26-.28,4.31-.4,8.37,1.26c2.87,1.18,6,2,8.42,4,2.36.53,4.24,2.07,6.34,3.12C26,9.81,28.73,11.54,31.58,13c3.57,1.87,7.2,3.67,10.82,5.46,3.39,1.67,6.89,3.09,10.42,4.47,2.33.91,4.63,2,7,2.92s4.7,1.82,7.05,2.71a31.8,31.8,0,0,0,5.22,1.84c1.9.35,3.32,1.69,5.18,2,1.17.22,2.22,1,3.5.77a.9.9,0,0,1,.54,0c2,1.43,4.46,1.51,6.69,2.28s4.69,1.42,7,2.06a28.51,28.51,0,0,1,3.92,1.09c1.49.64,3.17.55,4.73,1.07a48.68,48.68,0,0,0,5.91,1.49q2.9.59,5.75,1.3c3.72.92,7.55,1.35,11.18,2.62,1,.34,2,.13,3,.54,1.42.55,3.3,0,4.59.74s3.07-.23,4.24,1c2.82-.08,5.46,1.1,8.27,1.12a13.73,13.73,0,0,1,2.5.52c.93.19,1.85.39,2.78.54s1.82-.34,2.5.55c1.43-.19,2.76.41,4.14.49,1.76.11,3.42,1,5.22.6,1,1.11,2.63,0,3.67,1,.19.19.7,0,1.06.05a6.74,6.74,0,0,1,3.07.5c.88.45,2-.22,3.07.52.61.42,1.76.07,2.62.07.36.36.68.69,1,1,1.48-1,2.72-.34,3.92.6a2.15,2.15,0,0,1,2.69-.4,4.82,4.82,0,0,0,2.57.4c2.48,0,4.89.86,7.41.62.65-.06,1.37.6,2,.92a7.55,7.55,0,0,1,1.11-.42c1.11-.23,2.18.34,3.38.08a5.67,5.67,0,0,1,3.23.63c.54.25.73-.13,1-.1,1.47.13,3-.6,4.44.43.36.26,1.06,0,1.61,0,3.9,0,7.81,0,11.72,0a8.5,8.5,0,0,1,2.63.24c.82.3,1.32-.66,2.11-.27a8.67,8.67,0,0,0,1.8.42,12.13,12.13,0,0,1,2.1-.38c2.91-.05,5.83-.18,8.72,0,3.6.26,7.12-.52,10.68-.68,2.57-.12,5.09-1.18,7.84-1.86l2.09.76.53-.46,1.57,1.89L259.11,58l.93,1.31h2.81l1.07,1.06-2,1.47,1.2.47c.33,1.51-.66,2.41-1.56,3.35l.38.43-2,2c-.73-.18-1.62-1.12-2.7-.29.17.19.35.38.67.75l-3.26-.53-.1.42,1.67.4-1.95,1-.54-1.12-1.92-.11.7,1.65c-.67,0-1.09,0-1.51,0-3-.25-6,.78-9,.59s-6.18,0-9.26-.11c-.66,0-1.06,1-1.83.24-.24-.23-1.19.28-1.43,0-.88-.84-1.19.43-1.89.38-1.23-.09-2.3-.7-3.59-.65-3.9.14-7.82.1-11.72,0-1.48,0-2.94-.41-4.41-.5s-3,0-4.55-.12c2.22-.63,7.47-.56,9.85-.23l-1.22-.36.36-.4c-1.63,0-3.27-.09-4.9,0-2.32.16-4.53-1-6.86-.56-.82-.73-2-.21-2.73-.62-1.17-.66-2.14.57-3.34-.13-.9-.54-2.23-.34-3.62-.49l-.75-.6.17-.36,8,.84.62-.53-.81-.81-1.1.82c-.16-.63-.3-1.21-.45-1.79l-.56.48-.81.4L195,65l-3.42-.84-.61,1.3-2.78-1-1,.58-1.55-2-.61.62L183.55,63l.82-.79.65.57L186.6,62,187,63.1l2.36-.8c1.07.85,2.45.14,3.82.45l1.07,1c.76-1,1.86-.28,2.91-.64l.06-1.1-.89.69c-.26-.39-.55-.83-.86-1.28l-1.13,1.19-1.74-.9c-.8.79-1.58.34-2.47-.09a13.35,13.35,0,0,0-2.51-.69l-.85-1.49c-.33.79-.47,1.15-.69,1.68l-2.5-.36a6.66,6.66,0,0,1-2.52-.45c-.89-.58-1.44.76-2.34,0-.6-.47-1.64-.39-2.48-.56L175,61.57l2.56-.24.5.47-.45.59.43.52c-.1.1-.21.3-.3.3-.8-.06-1.59-.21-2.39-.23s-1.91.4-2.51,0c-.92-.56-1.77-.12-2.68-.39L169,61.46l-1.44,1c2.76,1.32,5.61,1.44,8.76,2.09a8.1,8.1,0,0,1-3.66.21c-.63-.08-1.21-.57-2-.51-.6,0-1.45-.43-1.78-.17-.84.68-1.07-.37-1.63-.36a14.42,14.42,0,0,1-2.18,0c-.84-.1-1.66-.39-2.5-.51a16.47,16.47,0,0,1-2.26-.46,6.89,6.89,0,0,0-4,.32l3.12.26c-2.52,1.11-4.53-.38-6.59-.14a8.59,8.59,0,0,0-1.23-1.6c-.25-.21-.83,0-1.83,0l1.58.77c-.13.11-.25.31-.36.3-1.11-.1-2.22.22-3.35-.47-.84-.5-2,.06-3.08-.46-1.27-.6-2.9-.41-4.34-.71s-2.85-.5-4.26-.89c-2.06-.56-4.22-.75-6.28-1.3s-4.28-.33-6.23-1.41c-1-.55-2.15-.23-3.27-.65a70.33,70.33,0,0,0-7.4-1.89,19.09,19.09,0,0,0-4-1,3.78,3.78,0,0,1-3.49-2.18l-.53,1.1-.59-.52a4.81,4.81,0,0,1-.37.33,9.27,9.27,0,0,0-2.75-.83c-1.19,0-1.89-.77-3.42-1.08-2.41.5-4.82-1.75-7.8-1.77l-.3-2c-.42.75-.68,1.2-.75,1.32A16.86,16.86,0,0,1,82.65,46v-.76a4.4,4.4,0,0,1-1,.5,8.51,8.51,0,0,1-1.44,0l-.89-1h-2.4c-.14-.39-.26-.71-.4-1.11l-.94.6L74,42.83c-.07-.6-.11-1-.19-1.77l-1.35,2c-1.63-.64-3.11-1.6-4.94-1.92-1.61-.29-2.93-1.55-4.6-2-.93-.27-1.68-1.24-2.85-1-.56-.91-1.56-1-2.44-1.35-1.1-.44-2.54-.16-3.31-1.16s-2.35-.44-2.86-1.71c-1.13-.12-2-.91-3-1.15a6.67,6.67,0,0,1-3-1.52C45.16,31,44.62,31.06,44,31Zm116.6,22.68c-.75.12-1.44.46-1.87.25a18.9,18.9,0,0,0-4.49-1c-1.83-.36-3.8-.26-5.56-.69-2.4-.59-4.86-1-7.27-1.39s-4.89-1.16-7.43-1.28a14.94,14.94,0,0,1-3.37-1c-.12,0-.3.12-.5.21l.06.79a16.85,16.85,0,0,1,4.36.71c1.16.51,2.44,0,3.3.54,1,.64,2.23,0,3,.65.92.75,2-.08,2.79.54,1,.73,2.19,0,3.1.41,1.28.6,2.83,0,3.81.64,1.31.85,2.91-.3,4,1,1.45-.32,2.75.39,4.14.55a20.93,20.93,0,0,1,4.65.62c1.23.43,2.58.07,3.56.57s1.84.09,2.52.49a6.81,6.81,0,0,0,2.8.52c.78.12,1.57.27,2.35.46a11,11,0,0,0,4.38.62c.36-.06.93-.16,1.06,0,.82,1.09,2.07.12,3,.74s2.27.2,3.4.32c.36,0,.86-.14,1.07,0,.77.67,1.79.22,2.49.58,1,.48,1.72-.22,2.58-.07,1.28.21,2.57.38,3.86.55,1.1.14,2.21.24,3.45.38l.33-.28,1.64.84a3.07,3.07,0,0,1,3.11,0c1.09.62,2-.08,3-.38,1.09-.33,1.9,1.27,3.21.21.66-.54,2-.23,3.15-.3a7.74,7.74,0,0,0-5.24-.93c-1.78.27-3.43-1-5.19-.26-1-.76-2-.21-2.93.27-.46-.41-.92-.81-1.43-1.28l-1.72.68c-.79-.56-1.62-1-2.46,0l-1-1c-2.05-.1-4.18.23-6.24-.53a10,10,0,0,0-2.77-.55c-1.75-.13-3.48-.17-5.24-.45s-3.76-1-5.76-.7c-.32.06-.72-.37-1.11-.58-.24.2-.45.53-.64.52-1.46-.12-2.92-.27-4.37-.47-.22,0-.41-.33-.61-.5l-.68.61L164.66,54c-.06.06-.12.17-.19.18-1.18.24-2.28-.61-3.48-.3C160.84,54,160.59,53.6,160.62,53.63Z"/><path d="M287,50.48c-.11.24-.45.64-.35.84,1,2.15.38,4.27,0,6.38a12.78,12.78,0,0,1-1.66,5c-1.92,2.71-3.1,6.06-6.34,7.68-.1,1.73-2.59,1.47-2.67,3.21-1.8.88-2.89,2.59-4.43,3.78-1,.75-1.9,1.52-2.81,2.33a5,5,0,0,1-1.57.6l-.87,1.77-2.5,1.59c0,.46-.06,1.07-.1,1.72l-.94.35c-.52,1,.59.77.92,1.12A7.24,7.24,0,0,1,260.5,90l-2.73-2.09V84.27l-1.14-1.19c.23-1.73-.31-3.5.52-5.24.4-.84.52-1.83,1.28-2.46.49-.4.3-1.35,1.3-1.4.22,0,.37-1,.58-1.59a9.08,9.08,0,0,1,2.12-2.61A53.44,53.44,0,0,1,268,64.21c2-1.64,3.81-3.59,6.16-4.83a12,12,0,0,0,1.8-1.57c.6-.5,1.22-1,2-1.58l-3.05-1.31c-.13.37-.24.67-.36,1-2.37-.22-4.45-1.61-6.91-2.08V52.6l-5.38-1.67c-.73-.24-1.41.85-2.35,0l1.1-.52c-1.3.24-2.42-2-3.81,0-1.72-2-4.86-1.07-6.31-3.46l-.59.54a28.85,28.85,0,0,0-4.2-1.54c-1.52-.33-2-1.92-3.83-2.32a7.1,7.1,0,0,1-5.6-1.69c-.25-.78-.49-1.49-.74-2.26l.46-.78-1-1,2.18-1.1-1.06-1.06,1.53-.9c1.11,1.33,2.83.35,4.35,1,2.13.95,4.61,1.12,6.9,1.76,2.67.75,5.31,1.65,8,2.48,2.83.87,5.65,1.76,8.53,2.45,2.37.56,4.58,1.71,7,2.17.81,1,2.29.06,3.1,1.06,2.06-.21,3.74,1.25,5.75,1.27a6.94,6.94,0,0,1,1.21.36C284.68,47.73,286.4,48.2,287,50.48Z"/></g></g></svg>