<svg xmlns="http://www.w3.org/2000/svg" viewBox="0 0 219.42 98.81"><title>Asset 79</title><g id="Layer_2" data-name="Layer 2"><g id="Layer_0_Image" data-name="Layer 0 Image"><path d="M108.09,79c4.25.22,8.33-1,12.4-2,17.59-4.47,32.4-13.83,45.83-25.77a273.53,273.53,0,0,0,24.93-25.8,6.16,6.16,0,0,1,2.48-2.07c1.21-.42,2.06-.32,1.49,1.29-.14.39-.69.77.06,1,2.6.79,1.9,2.69,1.44,4.41-.87,3.23-3,5.77-4.88,8.42a160,160,0,0,1-17,21.12,145.48,145.48,0,0,1-19.48,15.94c-4.37,3.11-8.85,6.2-14,7.61-3.42.93-6.17,3-9.5,4-6.38,1.82-12.76,3.56-19.43,3.93A27.4,27.4,0,0,1,97,87.5a4.94,4.94,0,0,0-4.65-.3c-4.31,1.77-8.68,3.41-13,5a115.41,115.41,0,0,1-22,5.08c-11.92,1.78-23.87,2.34-35.79,0-7-1.39-13.83-3.21-19.1-8.53a6.73,6.73,0,0,1-2.35-5,1.93,1.93,0,0,1,1.19-2c1-.44,1.13.29,1.61,1,3.27,4.61,8.5,5.21,13.46,6.23,13.68,2.82,27.28,1.53,40.86-.84a146.14,146.14,0,0,0,30.27-8.63c.77-.31,1.85-.29,1.2-1.75-2.25-5.11-1.89-10.32-.06-15.4,2.83-7.84,7.44-14.2,15.9-16.63,4.55-1.3,7.58.17,10.25,4,6.8,9.87,3.07,20.5-4.69,26.86l-2.08,1.71Zm3.38-21.36c0-2.61-1.65-2.29-3.2-2.06-5.22.75-7.91,4.78-10.44,8.65-1.85,2.82-3.41,6-3.45,9.56,0,1.36.35,2.44,2.1,1.47,4.81-2.65,9.13-5.88,12.25-10.48A15.28,15.28,0,0,0,111.47,57.61ZM127.83,78c-6.59,1.54-13.08,3.29-19.77,4.09C115.07,82.64,121.53,80.5,127.83,78ZM89.28,80.84l-16.62,6A52.18,52.18,0,0,0,89.28,80.84Z"/><path d="M206.66,33.23c.12-5.65,1.21-11.19,2.08-16.75.13-.83.72-1.73-.32-2.46s-1.78,0-2.46.46c-3.7,2.44-7.91,3.65-12,5.32-2.55,1.05-4.91,2.6-7.56,3.6-4.09,1.55-8.06,3.4-12,5.23-2,.92-4.37.87-6.12,2.63s-3.57,1.21-5.69-1.67c-1.08-1.47-1.52-3.43.32-4.83a29.82,29.82,0,0,1,4.83-3C179,16.25,190.34,10.86,201.61,5.39c2.53-1.23,5-2.63,7.45-4,4.49-2.46,6.39-1.8,8.79,2.75a13,13,0,0,1,.76,10.77A120.51,120.51,0,0,0,213,37.06c-.2,1.53-.19,3.08-.33,4.61-.16,1.77-1,2.22-2.52,1.18C206.75,40.54,206.47,39.76,206.66,33.23Zm-11-22.37a48.56,48.56,0,0,0,14.78-7.38Z"/></g></g></svg>