<svg xmlns="http://www.w3.org/2000/svg" viewBox="0 0 77.69 87.78"><title>Asset 76</title><g id="Layer_2" data-name="Layer 2"><g id="Layer_0_Image" data-name="Layer 0 Image"><path d="M45.35,3.56c.59-.84.28-1.69.41-2.47.08-.46.35-1.22.61-1.07,1.84,1.08,4.31-.66,5.88,1.37,6.36,8.25,14.93,14.3,21.87,22,.49.54,1,1,1.51,1.58C78.48,28,78.48,28,75,30s-3.95,2.07-7.36-.67c-7.1-5.68-14.16-11.4-20.92-17.48-2.11-1.89-4-4-4.49-7a8.26,8.26,0,0,1-.07-2.43c.09-.69.32-1.57,1.17-1.64s.74.85.93,1.41A1.66,1.66,0,0,0,45.35,3.56Z"/><path d="M17.81,36.29c3.56.23,6.59,1.86,9.56,3.65,6.44,3.9,12.22,8.79,18.8,12.5,1.27.71,1.26,1.37.09,2.46-3.38,3.17-6.67,1.73-9.86-.07-6.39-3.62-12.68-7.42-19-11.11-1.65-1-3.36-1.81-5.05-2.68a2.06,2.06,0,0,1-1.06-2.29c.08-1,.69-1.23,1.61-1.47A17.77,17.77,0,0,1,17.81,36.29Z"/><path d="M14,87.72c-3.72,0-7.44,0-11.17,0-1.18,0-2.43,0-2.8-1.55S1,84.64,1.7,84a9.32,9.32,0,0,1,4.72-2c7.48-1.15,15-1.65,22.48-.17.81.16,1.67.14,2,1s-.59,1.31-1,1.94c-2,2.95-4.93,2.95-8,2.85-2.63-.08-5.27,0-7.9,0Z"/></g></g></svg>