<?xml version="1.0" encoding="utf-8"?>
<!-- Generator: Adobe Illustrator 24.0.1, SVG Export Plug-In . SVG Version: 6.00 Build 0)  -->
<svg version="1.1" id="Layer_1" xmlns="http://www.w3.org/2000/svg" xmlns:xlink="http://www.w3.org/1999/xlink" x="0px" y="0px"
	 viewBox="0 0 3871 2367" style="enable-background:new 0 0 3871 2367;" xml:space="preserve">
<style type="text/css">
	.st0{fill-rule:evenodd;clip-rule:evenodd;fill:#D9E3E6;}
	.st1{fill-rule:evenodd;clip-rule:evenodd;fill:#FFFFFF;}
	.st2{fill-rule:evenodd;clip-rule:evenodd;fill:#74AAFD;}
	.st3{fill-rule:evenodd;clip-rule:evenodd;}
</style>
<title>composition-13</title>
<desc>Created with Sketch.</desc>
<g id="composition-13">
	<rect class="st0" width="3871" height="2367"/>
	<polygon id="Triangle" class="st1" points="3116.5,1360 1074,1967.5 1405,90.5 	"/>
	<g id="Characters" transform="translate(-734.000000, 469.000000)">
		<g id="Character_x2F_running" transform="translate(1717.000000, 0.000000)">
			<path id="Accent" class="st2" d="M483.5,617.6c61.2,16.3,121.8,35.5,182.5,53.6c6.8,2,6.8,2.4,12.9-1.3
				c16.6-10,33.5-19.5,50.7-28.6c51.6-27.5,104.7-49.4,161.6-63.4c40.3-9.9,81.3-17.8,122.4-23.5c-4.2,12.9-12.3,26.3-22.3,35.3
				c-7.8,7-18.4,10.9-28,14.6c-28.6,11.2-58.4,19-86.5,31.5c-28.6,12.7-46.7,39.1-52.1,69.7c-1,5.7-1,6.6,3.7,9.5
				c5.3,3.2,11.7,5.1,17.5,7.1c46.7,15.9,95.8,25.7,144.1,35.3c25.6,5.1,51.3,9.9,77.1,13.7c16,2.4,33,5.6,49.3,4.6
				c69.8-4.1,111.1-87.1,131.6-143.3c63.1,34.1,135.4,56,206,66.5c85.6,12.8,193.5,13.5,261.2-49.6c32.2-30,52-70.7,66.6-111.7
				c-47.4-4.1-94.7-11.2-141.7-18.4c-8.2-1.3-16.4-2.5-24.6-3.8c-3.3-0.5-8.4-2.4-11.8-1.9c-5.1,0.7-11.7,6.3-16.3,8.8
				c-34.8,18.9-70.8,36.2-108.2,49.5c-20,7.1-40.8,13.4-62,15.5c-22.8,2.3-46.1-2.4-68-7.9c-55.1-13.9-112.8-37.5-158.8-71.5
				c-11.2,15.9-31.4,26.7-50.6,19.1c-21.1-8.4-32.8-30.5-44.1-48.7c-4.1-6.6-11.9-6.7-19.5-8.6c-21.4-5.5-43-9.9-64.8-13.6
				c-71.4-12.1-144.9-16.2-217-7.9c-70.3,8.2-139.6,30.8-201.6,64.9c-27,14.8-53.3,32-75.7,53.3
				C502.8,579.8,486.2,597.4,483.5,617.6"/>
			<path id="Ink" class="st3" d="M696,156.4c22.1,7.4,42,18.2,61.5,30.9c9.5,6.2,19,13.4,29.4,17.7c9.3,3.9,19.5,5.6,29,8.8
				c42.8,14.2,89.2,17.1,132.8,3.4c44.4-14,82-43.9,127.9-53.3c44.8-9.2,90.3-7.1,133.2,9.5c20.9,8.1,38.5,21.6,56.3,34.8
				c17.1,12.7,35,25.1,48.2,42c13,16.6,20.5,37.2,26.2,57.3c3.3,11.6,4.8,23.5,4.6,35.6c-0.2,8.4-4.6,16.6-2,24.7
				c3.7,11.4,9,19.8,7.6,32.5c-1.1,10.2-5.8,19.1-13,26.2c-7.5,7.4-16.4,12.4-26.4,15.6c-7.5,2.4-9.9,1.8-14.3-4.8
				c-12.2,11.1-21,25.1-36.3,32.4c-7.6,3.6-15.4,5.4-23.8,5.9c-6.4,0.4-12.2,0.6-17.6,4.5c-5.6,4.1-26.2,22.2-18.4,29.3
				c4.6,4.2,15.3,5,21.2,7.4c8.2,3.3,16.1,7.4,23.5,12.2c27.2,17.5,54.2,28.5,85.6,36.3c32.6,8.2,65.5,12.6,99.2,12.7
				c30.6,0.1,62.6-2.2,91-14.6c13.6-5.9,26.7-13.8,37.9-23.7c11.1-9.8,17.9-23.5,29.3-32.7c7.4-5.9,0.6-15.1-1.7-23.2
				c-4.6-16.6-8.2-35.4-9.6-52.5c-1.4-16.6-3.7-33.2-6.6-49.7c-3.1-17.4-9.7-33.7-14.3-50.7c-3.4-12.6-6.8-27.3-2.9-40.1
				c2-6.4,6.3-13.1,12.4-16.1c5.5-2.7,8.9-0.1,13.8-0.4c14.5-0.9,25.7,5.1,36.6,14.7c5.9,5.2,12.7,9.8,18.4,15.3
				c4.4,4.3,5.4,11.1,10.1,14.9c7.7-19.5,15.7-44.4,41.6-33.2c20.5,8.8,23.2,42.1,33.2,59.4c5.6-4.6,6.2-13.7,8.4-20.1
				c2.3-6.7,6.1-13.7,11.4-18.4c11.7-10.3,26-6.2,34,6.2c4.3,6.6,1.7,14.1,6,20.6c4.2,6.4,2.9,14,4.6,21.5
				c2.2,9.5,4.8,18.9,6.6,28.5c0.8,4.4,2,9.5,1.8,14c-0.1,1.9-1.6,5.1-1.1,7c0.6,2.4,3.5,4.6,4.6,7.1c1.4,3.3,0.9,5.6,1.1,9
				c0.3,6,1.9,11,3.6,16.9c4.4,15,3.3,34-3.2,48.2c-3.4,7.4-5.7,12.7-6.7,20.6c-0.6,5.1-4.5,9.7-4.3,15.2
				c0.3,7.6,20.7,19.4,4.6,24.4c-6.7,2.1-8.2,1-10,8.7c-1.8,7.6-3.9,15-6.9,22.3c-6.3,15.4-15.7,29.2-24.6,43.2
				c-9.6,15.2-19.6,29.9-33.8,41.2c-13.1,10.5-28.2,19-43.1,26.6c-31.5,15.9-66.6,24.8-102.1,24c-37.8-0.9-76.1,2.6-113.5-3.8
				c-38.3-6.6-75.7-17.4-113.9-24.7c-17.1-3.3-33.1-6.8-48.7-14.9c-15.8-8.2-31.6-16.6-46.1-27c-10,23.9-15.3,48.8-29.6,70.8
				c-12.5,19.2-27.5,37.2-46,51c-18,13.4-41.5,23.5-64.2,24.4c-6.9,0.3-17.6-2.8-22.5,2.4c-2.5,2.6-2.7,7.8-3.7,11.1
				c-1.7,5.7-4.1,11.3-5.5,17c-2,8.8,6.2,8.9,13.4,12.5c9.7,4.8,19.1,10,28.5,15.4c9.6,5.5,18.7,11.8,28.3,17.2
				c8.2,4.6,16.7,8.2,24.6,13.5c18.7,12.4,39.2,20.7,59.3,30.6c21.5,10.5,42.4,22.3,63.6,33.6c41.9,22.3,83.9,45.4,123.5,71.7
				c18.5,12.3,36.2,25,55.1,36.6c17.7,10.8,37.8,23.5,49.1,41.3c8.8,13.8,21.4,20.4,35.9,28c8.5,4.4,13.8,5.3,20.8-2
				c6.8-7.1,13.4-14.2,20.6-21.1c29.5-27.9,54.7-58.5,79.2-90.7c18.2-23.9,43.2-52.6,76.7-47.3c10,1.6,16.7,6.2,24.1,12.8
				c5,4.5,14.1,7.4,17.5,13.2c1.9,3.3,2.8,7.6,4.7,11.1c2,3.7,4.6,7.2,6,11.2c2.3,6.8-2.7,17.5,2.3,23c3.6,4,0.3,13.5-0.7,18.1
				c-1.8,8.4-3.4,17-6.3,25.2c-2.3,6.4-4.5,15.2-9.3,20.2c-4.3,4.5-9.3,4-8.2,11.8c-4.6-1.5-8.6,9.6-10,12.4
				c-3.5,7.5-7.4,13.7-13,20c-14.3,15.8-30.8,26.5-49.4,36.5c-6.8,3.7-20.9,8.8-22.4,17.2c-1.5,8.1,3.1,14.7-0.1,23.4
				c-6.8,18.1-22,37.1-34.5,51.7c-11.2,13.1-22.1,21.9-40,18.8c-15.9-2.7-31.6-10.8-44.9-19.8c-15.9-10.8-32.8-19-50-27.6
				c-8.5-4.2-16.9-8.1-24.3-14.2c-6.8-5.7-12.7-12-20.7-16.2c-5.6-3-13-5.1-15.3-11.8c-2.6-7.3,2.1-11.8,6.1-17
				c2.7-3.5,4.1-4,1.8-6.8c-1.8-2.2-6.9-4.1-9.4-5.5c-6.1-3.3-12.3-6.2-18.9-2.6c-7.3,4-12.3,12.4-17.8,18.5
				c-6.6,7.3-14,13.9-21.2,20.5c-14.3,13.2-30,25-44,38.4c-3.2,3.1-9.5,10.9-14.8,9.4c-3.9-1.1-1.8-3.4-3.9-5.2
				c-2.2-1.9-4-1.9-6.8-4c-6.9-5.2-9-15-16.2-20.4c-7.4-5.5-16.6-9.4-24.6-13.9c-36.7-20.6-72.4-42.8-105.9-68.3
				c-16.8-12.8-32.7-26.6-49-40c-7.7-6.3-15.4-13.2-24-18.4c-7.8-4.7-16.4-7.9-24.3-12.4c-17-9.6-35.1-17-51.9-26.9
				c-7.9-4.7-13.7-10.9-21.1-16.1c-6.4-4.5-11.8-7.2-16.6-13.9c-2.3,5-8.5-1.5-10.8-3.1c-1.8-1.2-4-2.1-5.7-3.4
				c-1.7-1.4-2.7-4.5-3.9-5.5c-2.8-2.1-6-1.7-9.8-3c-5-1.8-11.6-6.6-15.4-10.2c-2.7-2.5,1.7-0.5-2.8-3.6c-2.1-1.4-5.7-1.8-8-3.4
				c-5.6-3.6-10.7-8.3-16-12.2c-9.6-7.2-22.1-13.8-27.6-25.1c-29.4,24.1-57.8,50.3-91.5,68.4c-32.6,17.4-70.3,25.4-105.1,37.4
				c-35.8,12.4-72,24.8-108.4,35.3c-17.7,5.1-36,8.8-54.1,12.2c-18.6,3.5-36.9,2.5-55.5,4.5c-9.2,1-18.3,0.7-27.5,1.6
				c-8.4,0.8-16.6,3-25,4.1c-7.4,1-15.7,0.2-22.8,2.2c-5.2,1.5-12.1,6.7-15.9-0.1c-2.8,4.2-3.7,2.2-7.3,1.9c-3.9-0.3-5-0.1-8.8,0.6
				c-6.2,1.2-13,1.6-18.2-3.2c-2.4,8.7-25.6,0.8-28.4-5c-3.1,9.2-31.4,1.3-31.8-7.4c-0.3-7.3,4.5-17.8,6.5-24.7
				c3.3-11.2,7.3-22.2,11.6-33c4.5-11.5,9.1-23,13.7-34.4c2-5,3.9-10.1,6.3-15.1c1.1-2.4,4.1-6,4-8.8c-0.1-8.1-14.7-8.7-20.9-10.7
				c-4.7-1.5-9.4-3.2-13.8-5.3c-3.2-1.5-7.1-5.1-10.6-5.6c-8.1-1.1-6.3,8.1-7.2,13.7c-1.1,7.3-5.2,11-12.9,11.1
				c-9,0.1-34.7-15.4-39.6-3.6c-2.3,5.5-1.7,16.2-2.5,22.1c-1.4,9.8-0.8,19.4,0.5,29.2c2.2,16,9.4,36.3,1.3,51.6
				c-16.3,30.6-72.7,12.2-90.7-7.1c-26.5-28.4-25.7-71-13-105.4c6.2-16.7,15.1-34.7,26.8-48.3c5.2-6,15.1-11.9,16.8-20.2
				c1.4-6.9-3.9-13.2-2.8-20.3c1.3-8.4,8.4-13.5,14.5-18.5c6.3-5.3,12.5-11.1,19.7-15.2c16.7-9.5,35.6-3.8,52.2,3.2
				c18.1,7.6,35.5,17.8,51.7,28.9c8,5.5,14.8,10.4,24.3,13.1c7.3,2,14.7,4,22,6c6.9,1.8,12.7,3.2,17.6-2.8c5.3-6.6,7.1-9.2,16.3-9.5
				c9.8-0.3,19.7,0.2,29.5,0.6c2.1,0.1,6.8-0.6,8.4,1.2c1.5,1.5-0.7,4.8,0.7,5.7c2.1,1.5,14.3-15.7,15.4-1.7
				c0.7-6.8,7.8-3.5,11.7-2.6c1.4,0.3,2.9,0.7,4.3,1c1.5-0.5,2.8-0.1,3.9,1.2c1.6,0.3,2.7-0.3,3.3-1.9c17.2-0.2,34.6,0.8,51.8,0.7
				c19.9-0.1,40-0.3,59.8-3.2c7.3-1.1,14.6-2.5,22-3.4c3.4-0.4,6.2-0.1,9.5,0.2c1.2,0.2,2.3,0.7,3.3,1.5c0.5-1,1.2-1.7,2.2-2.2
				c12.6-3.7,25.5-6.2,38.2-9.4c8.9-2.2,16.4-4,25.3-4.6l1.7-0.1l3.6,1.1c0.5-1.3,1.4-2.3,2.5-3c2.9-1.2,5.4-1.6,8.5-2
				c12.4-1.3,24.6-1.1,36.4-3c6.2-1,28.8-4.5,33,1.7c3.2-7.5,26.2,2.7,33-1.7c-10.5-14.3-15-29.5-18-46.8
				c-3.2-18.8-5.3-38.6-0.5-57.3c4.4-17.2,14-34.9,27.1-47.1c12.7-11.7,15.6-25.8,24.1-40.3c17.6-30.2,46.6-48.6,78.9-59.7
				c17.6-6.1,35.5-11.1,53.2-16.7c14.4-4.5,26.5-11,33.8-24.8c-61.4,0-120.1,19-176.3,42.1c-28,11.5-55.8,23.4-83.4,35.7
				c-14.1,6.3-28,12.9-41.1,21l-3.6,2.2c-4.2,2.6-8.4,5.3-12.4,8.3c-0.9,0.7-6.1,3.7-6.4,4.7c-2.3,7.8,10.6,20.3,13.9,26.9
				c4.6,9.1,9,19.7,9.6,29.9c0.7,12.2-7.1,18.3-19.2,15.8c-14.7-3.1-25.8-15.3-37.5-23.8c-2.6,7.8,0.8,16.8,2.6,24.4
				c2.5,10.4,5,21,6.8,31.6c2.5,15,0.7,31.9-14.2,39.7c-38,20-57.4-32.8-65.1-59.1c-5.2,3.8-4.6,17.5-5.6,23.3
				c-1.8,11.1-4,23-8.9,33.2c-3.8,7.8-10.2,16.9-19.6,17.7c-10.2,0.9-18.5-7.9-23.1-16c-7.9-14-9.8-29.7-10.4-45.4
				c-0.1-3.5,0.9-35.5-2.6-36.4c-10.3,18.4-16,38.9-28.1,56.5c-10.6,15.4-26.5,25.9-40.9,8c-22.2-27.6-15.1-67.5-6-98.5
				c5.3-18.1,12.5-35.3,22.2-51.4c4-6.7,8.9-11.7,13.9-17.6c4.1-4.9,5.7-7.2,3.9-12.8c-1-3.3-2-3.4-1.1-7c0.7-2.6,2.7-5.8,3.8-8.2
				c3.3-6.9,6.7-13.7,10.6-20.2c8.5-13.9,20.1-25.4,32.3-36.1l1.2-1.1l-0.1,0.1c-0.8,0.7,4.9-3.6,4.8-3.6l0,0l0.1-0.1
				c2.1-1.4,2.9-5.9,5.3-1.9l0.2,0.3c0.4-5.9,5.4-9.3,9.7-12.6c1.6-1.2,3.2-3,5.1-3.7c1.3-0.5,4.5,0,5.5-0.7
				c1.9-1.4,2.8-4.2,4.6-5.8c1.8-1.6,4.3-2.4,6.4-3.7c5-3.1,9.7-6.8,14.6-10.1c10.4-7,21.4-13.2,32.5-19
				c23.5-12,48.5-21.7,73.5-30.3c22-7.5,44.8-14.5,67.4-20c23.2-5.6,47.6-4.2,71.3-6.5c48.3-4.7,99.3-3.8,147.6,0.9
				c23.7,2.3,47.2,5.9,70.5,10.4c22.6,4.4,46.2,9.4,66.3,21.2c4.3,2.5,12,10.6,17,10.3c4.2-0.2,7.9-8,9.9-11.1
				c4.7-7.3,10.7-14,14.7-21.7c4.9-9.5,7.5-20.1,11.2-30.1c-17.2,2.4-35.3,3.9-51.9-2.7c-15-6-25.1-17.9-36.3-28.9
				c-11.8-11.6-24.4-19.5-41.3-20.6c-19.1-1.2-36.4,5.6-53.9,12c-37.2,13.5-74.3,28.3-112.5,38.5c-18.7,5-37.9,8.9-57.3,9.8
				c-9.9,0.4-19.8,0-29.6,1.8c-4,0.8-5.3,1.4-8.5-0.4c0.4,0.2-4.1-7.2-5-4.3c-0.9,2.8,0.5,5-1.9,7.1c-2.9,2.5-9.2,1.3-12.5,1
				c-5-0.4-9-2.1-13.8-3.3c-7.5-1.7-15.8-0.6-23.4-1.6c-3.5-0.4-6.1-1.3-9.3-2.3c-3.3-1-1.2-0.9-4.6-1.3c-3-0.4-4.8,0-8.4-1.2
				c-3.3-1.1-6.3-1.8-9.7-2.6c-3.1-0.7-5.6-2-8.4-2.8c3.6,1.1-4.6-2.2-4.3-1.3l0,0.1l0,0c-0.9-1-1.9-3-3.7-3.3l-0.4,0
				c5.8,8.9-19.8-0.5-21.5-1c-14.1-4.3-28.6-14.1-43.4-15c-14.4-0.9-28.4,8.9-40,16.2c-14,8.8-28,17.7-41.9,26.6
				c-30.9,19.6-64.3,37.2-98.9,49.2c-16.8,5.8-34.1,10.5-51.2,15.5c-7.7,2.3-16.1,3.2-23.5,6.4c-5,2.2-12.2,8.8-17.2,2.9
				c-2,5.1-11.9,4.8-16,5c-0.6,0,0.4,1.2-1.1,1.1c-2.2-0.2-2.7-2.2-4.4-2.7c-3.5-0.9-3.8,0.4-7.2,1.8c-4.5,1.7-3.6,0.2-7.5-0.2
				c-2.3-0.2-4.6,1-6.9,1.1c-0.9,0-2.1-1.5-3.4-1.5c-1.3,0-4.3,1.5-6,1.8c-4.2,0.6-9.2,0.2-13.5,0c-6.1-0.3-67.2-5.7-62.8-18.5
				c-7.4,6.8-24.4-4.3-32.1-7.8c-2.9-1.3-3-2.6-4.6-4.1c0.4-1.8-0.3-2.6-2.3-2.4c-0.4,0-0.8-0.1-1.3-0.1c-3.4-1.7-4.6-1.7-7.2-4.7
				c-3.6-4-10.2-7.7-12-12.9c-0.5-1.4,0-3.8-0.5-4.9c-0.6-1.4-2.4-1.3-2.7-2.4c-0.1-0.4,0.5-3,0.5-3.1c-3.1-2.6-7.5-1.4-11-4.5
				c-9.9-8.6-15.9-25.8-18.7-38.1c-7.5-32-10-64.2,4.5-94.5c7-14.7,15.6-28.7,25.1-42c2.6-3.7,5.4-8.5,8.7-11.6
				c1.5-1.4,3.5-1.7,4.2-2.5c3.9-4.4,6-10.1,11.2-14.5c5.8-4.8,11.6-9.7,18.1-13.7c5.9-3.6,13.3-6,18.7-9.4c1.5-0.9,1-2.4,2.6-3.5
				c1.7-1.2,3.9-1.3,5.9-1.8c2.3-0.7,5.2-1.9,7.6-2.1c4.5-0.4,6,0.9,9.3,4.1c0-12.2,22.5-13.9,31.6-13.9c4.2,0,25.3-1.9,24.9,4.5
				c4.8-6.4,19.4-1.6,25.8,0.3c7.6,2.3,12.5,7.9,17.4,13.8c0.9-1.9,1.8-3.8,2.7-5.7c1.4,1,6.1,2.6,4.6,5.1c5.5-4.9,2.4-0.9,7.1,0
				c2.1,0.4,3.9-0.4,6-0.6c0.2,2.9-1.1,3.8-2.8,5.8c4.3,0.1,20.7-1.6,8.5,3.7c1.6,2.9,9.3,1.9,12,2.3c1.4,0.2,5,0.3,5.9,1.3
				c0.6,0.7-0.4,2.6-0.3,2.8c1.2,1.6-1.2,2.4,1.1,2.8c0.6,0.1,2.4-1.7,2.8-1.7c3.1,0,0.9-0.6,4.2-0.1c1.2,0.2,3.4,1.5,4.8,1.8
				c22.3,4.6,49.5-12.6,65.7-25.9c19.4-15.9,36.2-32.8,59.5-43.1c22.5-10,47.6-17.8,71.5-23.5C608.6,142,652.5,141.8,696,156.4z
				 M1259.1,1172c0.7,0.4,1.4,0.8,2.1,1.1c1-0.5,2-1,3.1-1.5C1261.4,1170.2,1261.2,1169.6,1259.1,1172z M1496.7,1108.7
				c-5.4,3.4-10,11-14.7,15.6c-6.6,6.4-13.5,12.5-20.4,18.6c7.9,2.7,19.4,13.9,28,8.8c4.2-2.5,6.9-9.8,9.6-13.7
				c4.2-6,9-11.7,13.9-17.1C1518.3,1115.2,1502.3,1105.2,1496.7,1108.7z M994,993.2c2.1,0.9,6.8,6,4.6,7.8
				C996.4,998.5,993.5,996.7,994,993.2z M311.5,912.1c-3.9,3.4-8.3,10.4-11,14.8c-3,5-3.2,7.5,1.5,10.8c9,6.4,22,8.3,32.5,11.3
				c5.6,1.6,12.4,5.6,17.2,0.5c4.7-5,4.7-14.4,6.8-20.6c1.7-5,3.5-10,5.3-15.1c-9.8,1-19.7,1.1-29.4-1.1
				C327.4,911,317.7,906.7,311.5,912.1z M481.2,643.7c-7.9,10.8-15,22.2-21.2,34c-10.3,19.6-18.3,40.4-23.4,61.9
				c-3.6,15.3-8.9,36.7-0.6,51.4c17.9,31.9,54.3-60.2,59.8-69.8c3.3-5.7,8.4-11.9,14.1-4.5c4.7,6.1,3.1,15.8,3.4,22.9
				c0.6,21.2-2.3,46.5,6.2,66.5c2.8,6.5,10.1,16,18.5,13c7.5-2.7,11.2-15.5,13.5-22.1c7.3-20.9,12.5-46.5,12.7-68.6
				c0-4.4-3.9-33.8,6.3-27.3c6.7,4.3,6.5,24.9,7.1,31.6c2.6,26.4,7.8,71.2,40.5,75.6c7.2,1,15.4-0.7,19.6-7.2c5.2-8,0-18.9-1.9-27.3
				c-3.2-14.6-6.8-29.6-7.1-44.6c-0.2-9.2,0.7-24.5,13.6-21c15.6,4.3,22.2,24.7,39.7,25.3c0-4.1-2.3-7.4-4.2-10.9
				c-6.2-11.1-17.6-20.6-21.4-32.8c-1.3-4,0.1-10.1-2.4-13.4c-2.4-3.2-7.7-4-11.2-4.7c-23.6-4.8-46.9-11.2-70.4-16.7
				c-25.2-5.9-48.5-12.2-72-22.6C489.6,627.6,487.2,635.5,481.2,643.7z M1045.1,808.9c3.5,1.6,6.9,3.4,10.4,4.9
				c3.1,1.4,4.3,0.3,5.5-2.6C1058.8,810.7,1046.4,806.3,1045.1,808.9z M896.2,451.6c-45,1.3-88.9,1.9-133.3,10.4
				c-21.2,4.1-42,8.8-62.8,14.6c-8.8,2.4-16.5,5-24.2,9.9c-2.8,1.8-10.4,7.5-11.5,1c-3.8,3.6-11.2,14.7-17.2,8.5
				c-1.1,4.4-4.4,4.3-7.6,5.8c-1.1,0.5-1.8,2.3-3.2,3c-0.4,0.2-0.5-2.4-1-2.4c-1.9-0.2-3.5,3.9-4.6,4.9c-2.7,2.5-5.2,3.6-8.7,4.5
				c-1.5,0.5-3.1,0.8-4.7,1c-1.9,0.8-3,0.2-3.4-1.7c-2.6,0-4.5,1-7.3,2.2c5.9,1.4-4,2.9-5.4,3c-0.2,4.4,3.6,1.6,6.1,2.5
				c-1.1,5.6-11.4,9.8-15.7,12.5c-0.7-1.5-1.4-3.1-2.2-4.6c-1.2,1.1-2.1,2.4-2.7,3.9c-0.4,1.8-1.7,2.4-3.8,1.9c-2,1.6-2.3,0.8-3.5,3
				c-1.2,2.3,2.4,6.7-2.9,4.8c0,7.6-7,3-5.8,1c-5.3-0.5-7.6,9.2-7,13c-2.5-2.5-4.1-2.2-6.6-0.2l-0.2,0.2l0.1-0.1
				c2-1.3-0.1,4.1,0.1,4l0,0c-5.4,7.1-4.9-0.8-3.2-5c-3.7,1.5-4.3,5.4-7.3,7.7c-2.6,2-3.3,1.1-5.6,1.4c-3.5,0.5-2.4-2.4-3.9,1.4
				c-0.6,1.6,0.3,4.5,0.3,6.3c1.5-2,0.9-5.3,3.6-6.5c-0.8,5.9-12.4,26.3-17.2,14.3c-4.7,3.3,0.5,6.9-2.6,11.3
				c-2.3-2.2-2.9-5.8-2.6-8.8c-1.4,1.9-1.4,4.4-2.5,6.3c-1.2,2-2.4,2.2-3,4.4c-0.9,3.4,2.1,1.7,0.5,5.3c-0.8,1.8-4.5,3.4-5.9,4.4
				c-5.1,3.5-10.2,7.6-5.3,13.5c7.7,9.2,27.9,10.2,38.8,11.7c23.2,3.3,45.8,8.7,68.6,13.8c13.8,3,27.2,6.4,40.7,10.5
				c9.7,2.9,23.1,4.7,28.2,14.7c27-25.8,63-39.3,96.3-54.8c36.1-16.8,73.4-32.3,111.6-43.5c33.9-9.9,68.7-13.7,103.7-17.1
				c9.2-0.9,23.5-3.2,31.7,2.5c5.1,3.5,5.3,8.8,1.4,13.5c-2.1,2.5-4.4,1.9-5.7,6.4c-1,3.5-0.5,6.1,0.5,9.6c-2.3-1.8-6.5-0.7-7.7-4
				l-0.1-0.4l-0.1,0.4c-1.6,6.3,9.5,7.2,6.1,14.7l-0.2,0.5c-1.2,2.3-1.2-5.1-2.2-5.1c-2.8-0.1-5.1,6.5-6.3,8.3
				c5.3,0,3.3,3.8,0.4,5.8c-2,1.4-5.4,1.8-7.7,2.9c-4.7,2.3-8.8,5.6-13.6,7.8c-5.2,2.4-9.8,2.5-15.1,3.9c-0.8,0.2-4,1.4-4.3,1.4
				c-0.4,0-0.5,1.4-0.9,1.4c-3.3,0.5-5.8-2.6-9.1-1.4c-1.2,0.5-0.6,3.5-1.7,4.2c-1.2,0.8-4.5-0.2-6-0.3c-3.4-0.2-4-0.7-6.7,0.9
				c-4.7,2.7-7.1,6.4-13.4,7.1c-4.9,0.5-8.1-0.4-12.8,1.4c-4.8,1.9-9.3,2.3-13.9,3.5c-0.6,0.2-0.7,2.2-1.2,2.3
				c-1.5,0.5-3.4,0.1-4.8,0.6c-3.4,1-6.1,2-9.2,3.8c-13.7,8.2-28.9,20.4-39.6,32.2c-4.9,5.4-18.6,18.9-14.2,26.7
				c2.9,5,12.8,7.4,17.7,9.5c7.4,3.1,15,5.4,22.4,8.3c9.3,3.6,17.7,9.2,27.1,12.4c9.1,3,18.9,3.6,28.3,5.3
				c40.8,7,80.7,18.3,121.5,25.3c22.4,3.8,45.2,8.4,67.9,4.8c20-3.2,39.2-12,55.2-24.4c29.1-22.5,49.4-54.5,59.6-89.6
				c2.1-7.3,2.5-25.4,9.3-29.9c5.7-3.7,8.6,4.5,12.3,7.7c6,5.2,14.7,7.3,21.9,10.2c17.8,7.4,33.9,15.2,52.7,20.2
				c19,5.1,38.4,9,57.6,13.2c39,8.5,76.3,16.5,116.4,16.6c39.7,0.1,79.6,1.6,118.8-5.7c34.3-6.4,68.9-23.9,94.6-47.6
				c13-12,23-27.1,33.2-41.4c5.5-7.7,10.6-15.6,14.8-24c3.1-6.2,8.5-15.1,9.1-22.1c0.5-6.3-3.2-5.4-9.4-6c-9.6-1-19.3-1.6-28.9-2.6
				c-19.4-2-38.8-4.5-58.2-6.6c-19.8-2.1-39.5-5-58.7-10.2c-5.8-1.6-10-3.5-14.1,2c-2.6,3.6-2.6,11.8-8,5.8
				c-10.5,13.3-25.9,21.2-40.2,29.5c-15.5,9-30.6,18.9-47.1,26.2c-35.5,15.7-74.5,14.4-112.1,9.4c-38.2-5.1-77-11.7-112.9-26.2
				c-16.5-6.7-30.6-16.8-45.4-26.5c-7-4.6-14.2-8.3-21.6-12.1c-8.3-4.3-13.4-10.6-21-15.6c-5.1,16.5-24.6,22.2-40,22.9
				c-19.3,0.9-34.8-8.3-46.5-23.2c-9.7-12.4-11.6-30.9-26.6-37.7c-17.1-7.7-37.2-10.8-55.5-14.4C985.5,455.3,940,450.3,896.2,451.6z
				 M1124.5,578.6c4.8,2.2,18.9,18.3,7.7,18.6c-7.1,0.2-11.3-8.7-19.1-7.4c-3.5,0.6-8.8,1.8-9.6,4.5c-2.2,6.8,7.8,11.1,12.1,13
				c6.6,2.9,12.1,5.8,15.7,12.4c5.5,10.2,7,26.6-6,31.1c-9.7,3.4-21.7,0.8-31.2-1.9c-8-2.2-14.2-10.5-10.5-18.8
				c1-2.3,3.8-6.5,7.1-4.9c2.6,1.2,1.3,3.6,2.1,5.6c3.2,8.3,27,20.2,32.5,7.6c6.7-15.4-18.8-20-26.5-25.1c-10-6.6-10.3-18-2.6-26.7
				C1102.9,579.1,1114.7,574.3,1124.5,578.6z M1166.5,630.7c-0.4,3.6-0.9,7.4-1.5,11c-0.5,3.1-0.5,6.4-4.1,7.5
				c-2.4,0.7-4.7-1.8-6.9-0.1c-2.5,1.8-1.3-11.6-1.2-12.3c0.7-5,2.1-15.2,6.9-18.3C1167.8,613.2,1167,626.3,1166.5,630.7z
				 M1166,609.7c-8.7,5.5-10.9-10.1-7.5-15.1C1167.1,582,1179.7,601.1,1166,609.7z M990.2,602c2.5,1.8,1.7,0.8,1.7,5.7
				C988.9,607.9,989.4,604,990.2,602z M999.9,597.8c-0.8,1.9,2.9,4.3,4.1,4.6C1004.1,601.8,1002.3,592.3,999.9,597.8z M530.3,569.4
				c-2.3,3.3-1,5.4,2.7,4.1l0.3-0.1L530.3,569.4z M576.5,537.4l-2.2,0.9c-1,1-2.1,2-3.1,3C574.2,540.7,576.3,541.1,576.5,537.4z
				 M588.7,532.7c-1.5-3.1-6.7,3-6.8,4.5C583.1,536.4,590.4,536.3,588.7,532.7z M593.5,521.8c-1.3,1.8-1,3.2,0.8,4.3
				c1.5-2,2.6-4.1,3.3-6.4C595.7,518.2,594.2,520.1,593.5,521.8z M1586,302.3c-3.8,1.7-1.8,7.6-1.4,10.7c1.8,15.1,4.6,30.1,6.3,45.2
				c2.4,21.3,2.8,42.8,6.8,63.9c3.6,19.2,9.8,37.9,13,57.2c2.2,12.9-2,27.9,13.5,31.8c13.9,3.5,29.7,3.7,43.9,5.3
				c18.3,2,36.7,3,55.1,3.9c8.7,0.4,17.7,0.5,26.3,1.8c5.1,0.8,11.4,4.1,15.3-0.6c3.8-4.6,3.8-16.2,5-22c1.6-7.7,3-15.4,3.7-23.3
				c1.7-17.7-0.8-35.3-3.2-52.8c-2.5-18.9-4.5-37.9-7.1-56.8c-1.7-12.2-1.5-31.9-9.9-41.7c-7.6,22.8-9.7,47.1-10.1,71
				c-0.1,5.1-3.4,34.7-12.4,20.3c-2.5-4-2.5-6.3-6.4-9.7c-4-3.5-5.4-6.3-6.7-11.6c-2.4-9.6-2.8-18-8.1-26.6
				c-10.7-17.5-15.1-39.2-31.1-53.3c-0.2,16.4-2.5,34.2,0.5,50.5c1.9,10.2,9.8,24.9,3.3,35c-3.2,5-5.1,3.5-8.9,1
				c-2.4-1.6-2.1-2.4-5.1-4c-2.9-1.5-5.2-1.5-8-3.6c-9.8-7.6-10.6-20.9-13.8-31.9c-7.1-24.3-31.5-39.3-50.2-54.3
				C1594.2,306,1589.1,300.9,1586,302.3z M1216.5,351.5c-14.4,5.7-29.2,7.9-44.4,4.7c0,3.4,4.8,8.8,1.1,10.7c-0.9,0.5-6-1.7-7-2
				c-5.5-1.4-12.9-3.9-18.7-2.7c-6.1,1.2-5.9,5.2-1.9,9.6c5.6,6.3,19.6,6.5,19.7,16.9c0.1,4.5-2.7,10.1-3.3,14.8
				c-0.9,6.9-1.9,13.8-3.5,20.6c-2.8,11.7-7.3,22.8-12.7,33.6c-4.7,9.2-10.3,18.9-19,24.9c-5.6,3.9-3.5,2.2-2.4,8
				c0.7,3.9,0.6,6.8-4.4,5.8c-1-0.3-1.9-0.6-2.9-0.9c11.8,19.3,41.6,31.5,61.9,18.6c-8.6-6.9,3.1-19,8-24.1
				c7.4-7.7,15.1-16.5,23-23.5c12.1-10.7,28-5.5,42.3-10c14.5-4.6,25.1-14.9,34.4-26.4c8.4-10.2,19.4-22.8,20.6-36.6
				c0.2-2.7-1.1-5.9-0.6-8.5c0.5-2.6,2.1-3,2.9-4.7c1.7-3.5,2.1-7.2,2.4-11.2c0.9-13.2-3.3-15.2-15.7-18.7c-7.2-2-14.5-3.5-21.8-5.5
				c-6.9-1.9-13-5.4-19.8-7.4C1240.6,333.4,1229.1,346.4,1216.5,351.5z M1253.4,434.3c11.4,6.9-6.6,11.3-13.2,8.3
				C1231.3,438.4,1247,430.4,1253.4,434.3z M1274.9,376.9c10.3,12.3,21.8,37.4-0.8,42.5c-7,1.6-17.8,4.1-24.8,2.2
				c-10-2.7-7.4-15.8,2.6-16.4c5.9-0.3,19.5,4.3,23.1-2.5c1.9-3.7-2.4-9.7-3.1-13.4C1270.9,384.4,1271.7,380.6,1274.9,376.9z
				 M657.9,413.9L657.9,413.9c0,0.1,0.1,0.1,0.2,0.2l0,0l-0.1-0.1L657.9,413.9z M1295.3,381.3c7.2,0,3.6,15.2,0.1,17.8
				C1289,403.8,1286.3,381.3,1295.3,381.3z M1248,392.8c-8.3,1-6.5-18.9,1.1-19.5C1259.1,372.4,1257.6,391.6,1248,392.8z
				 M1320.1,359.7c-1,2-0.2,21.8,2.2,22.2c0.6-4.8,0.3-9.7,0.2-14.5l0-1.2C1322.5,366.2,1322.9,354,1320.1,359.7z"/>
		</g>
		<g id="Character_x2F_running_1_" transform="translate(3434.000000, 0.000000)">
			<path id="Accent_1_" class="st2" d="M483.5,617.6c61.2,16.3,121.8,35.5,182.5,53.6c6.8,2,6.8,2.4,12.9-1.3
				c16.6-10,33.5-19.5,50.7-28.6c51.6-27.5,104.7-49.4,161.6-63.4c40.3-9.9,81.3-17.8,122.4-23.5c-4.2,12.9-12.3,26.3-22.3,35.3
				c-7.8,7-18.4,10.9-28,14.6c-28.6,11.2-58.4,19-86.5,31.5c-28.6,12.7-46.7,39.1-52.1,69.7c-1,5.7-1,6.6,3.7,9.5
				c5.3,3.2,11.7,5.1,17.5,7.1c46.7,15.9,95.8,25.7,144.1,35.3c25.6,5.1,51.3,9.9,77.1,13.7c16,2.4,33,5.6,49.3,4.6
				c69.8-4.1,111.1-87.1,131.6-143.3c63.1,34.1,135.4,56,206,66.5c85.6,12.8,193.5,13.5,261.2-49.6c32.2-30,52-70.7,66.6-111.7
				c-47.4-4.1-94.7-11.2-141.7-18.4c-8.2-1.3-16.4-2.5-24.6-3.8c-3.3-0.5-8.4-2.4-11.8-1.9c-5.1,0.7-11.7,6.3-16.3,8.8
				c-34.8,18.9-70.8,36.2-108.2,49.5c-20,7.1-40.8,13.4-62,15.5c-22.8,2.3-46.1-2.4-68-7.9c-55.1-13.9-112.8-37.5-158.8-71.5
				c-11.2,15.9-31.4,26.7-50.6,19.1c-21.1-8.4-32.8-30.5-44.1-48.7c-4.1-6.6-11.9-6.7-19.5-8.6c-21.4-5.5-43-9.9-64.8-13.6
				c-71.4-12.1-144.9-16.2-217-7.9c-70.3,8.2-139.6,30.8-201.6,64.9c-27,14.8-53.3,32-75.7,53.3
				C502.8,579.8,486.2,597.4,483.5,617.6"/>
			<path id="Ink_1_" class="st3" d="M696,156.4c22.1,7.4,42,18.2,61.5,30.9c9.5,6.2,19,13.4,29.4,17.7c9.3,3.9,19.5,5.6,29,8.8
				c42.8,14.2,89.2,17.1,132.8,3.4c44.4-14,82-43.9,127.9-53.3c44.8-9.2,90.3-7.1,133.2,9.5c20.9,8.1,38.5,21.6,56.3,34.8
				c17.1,12.7,35,25.1,48.2,42c13,16.6,20.5,37.2,26.2,57.3c3.3,11.6,4.8,23.5,4.6,35.6c-0.2,8.4-4.6,16.6-2,24.7
				c3.7,11.4,9,19.8,7.6,32.5c-1.1,10.2-5.8,19.1-13,26.2c-7.5,7.4-16.4,12.4-26.4,15.6c-7.5,2.4-9.9,1.8-14.3-4.8
				c-12.2,11.1-21,25.1-36.3,32.4c-7.6,3.6-15.4,5.4-23.8,5.9c-6.4,0.4-12.2,0.6-17.6,4.5c-5.6,4.1-26.2,22.2-18.4,29.3
				c4.6,4.2,15.3,5,21.2,7.4c8.2,3.3,16.1,7.4,23.5,12.2c27.2,17.5,54.2,28.5,85.6,36.3c32.6,8.2,65.5,12.6,99.2,12.7
				c30.6,0.1,62.6-2.2,91-14.6c13.6-5.9,26.7-13.8,37.9-23.7c11.1-9.8,17.9-23.5,29.3-32.7c7.4-5.9,0.6-15.1-1.7-23.2
				c-4.6-16.6-8.2-35.4-9.6-52.5c-1.4-16.6-3.7-33.2-6.6-49.7c-3.1-17.4-9.7-33.7-14.3-50.7c-3.4-12.6-6.8-27.3-2.9-40.1
				c2-6.4,6.3-13.1,12.4-16.1c5.5-2.7,8.9-0.1,13.8-0.4c14.5-0.9,25.7,5.1,36.6,14.7c5.9,5.2,12.7,9.8,18.4,15.3
				c4.4,4.3,5.4,11.1,10.1,14.9c7.7-19.5,15.7-44.4,41.6-33.2c20.5,8.8,23.2,42.1,33.2,59.4c5.6-4.6,6.2-13.7,8.4-20.1
				c2.3-6.7,6.1-13.7,11.4-18.4c11.7-10.3,26-6.2,34,6.2c4.3,6.6,1.7,14.1,6,20.6c4.2,6.4,2.9,14,4.6,21.5
				c2.2,9.5,4.8,18.9,6.6,28.5c0.8,4.4,2,9.5,1.8,14c-0.1,1.9-1.6,5.1-1.1,7c0.6,2.4,3.5,4.6,4.6,7.1c1.4,3.3,0.9,5.6,1.1,9
				c0.3,6,1.9,11,3.6,16.9c4.4,15,3.3,34-3.2,48.2c-3.4,7.4-5.7,12.7-6.7,20.6c-0.6,5.1-4.5,9.7-4.3,15.2
				c0.3,7.6,20.7,19.4,4.6,24.4c-6.7,2.1-8.2,1-10,8.7c-1.8,7.6-3.9,15-6.9,22.3c-6.3,15.4-15.7,29.2-24.6,43.2
				c-9.6,15.2-19.6,29.9-33.8,41.2c-13.1,10.5-28.2,19-43.1,26.6c-31.5,15.9-66.6,24.8-102.1,24c-37.8-0.9-76.1,2.6-113.5-3.8
				c-38.3-6.6-75.7-17.4-113.9-24.7c-17.1-3.3-33.1-6.8-48.7-14.9c-15.8-8.2-31.6-16.6-46.1-27c-10,23.9-15.3,48.8-29.6,70.8
				c-12.5,19.2-27.5,37.2-46,51c-18,13.4-41.5,23.5-64.2,24.4c-6.9,0.3-17.6-2.8-22.5,2.4c-2.5,2.6-2.7,7.8-3.7,11.1
				c-1.7,5.7-4.1,11.3-5.5,17c-2,8.8,6.2,8.9,13.4,12.5c9.7,4.8,19.1,10,28.5,15.4c9.6,5.5,18.7,11.8,28.3,17.2
				c8.2,4.6,16.7,8.2,24.6,13.5c18.7,12.4,39.2,20.7,59.3,30.6c21.5,10.5,42.4,22.3,63.6,33.6c41.9,22.3,83.9,45.4,123.5,71.7
				c18.5,12.3,36.2,25,55.1,36.6c17.7,10.8,37.8,23.5,49.1,41.3c8.8,13.8,21.4,20.4,35.9,28c8.5,4.4,13.8,5.3,20.8-2
				c6.8-7.1,13.4-14.2,20.6-21.1c29.5-27.9,54.7-58.5,79.2-90.7c18.2-23.9,43.2-52.6,76.7-47.3c10,1.6,16.7,6.2,24.1,12.8
				c5,4.5,14.1,7.4,17.5,13.2c1.9,3.3,2.8,7.6,4.7,11.1c2,3.7,4.6,7.2,6,11.2c2.3,6.8-2.7,17.5,2.3,23c3.6,4,0.3,13.5-0.7,18.1
				c-1.8,8.4-3.4,17-6.3,25.2c-2.3,6.4-4.5,15.2-9.3,20.2c-4.3,4.5-9.3,4-8.2,11.8c-4.6-1.5-8.6,9.6-10,12.4
				c-3.5,7.5-7.4,13.7-13,20c-14.3,15.8-30.8,26.5-49.4,36.5c-6.8,3.7-20.9,8.8-22.4,17.2c-1.5,8.1,3.1,14.7-0.1,23.4
				c-6.8,18.1-22,37.1-34.5,51.7c-11.2,13.1-22.1,21.9-40,18.8c-15.9-2.7-31.6-10.8-44.9-19.8c-15.9-10.8-32.8-19-50-27.6
				c-8.5-4.2-16.9-8.1-24.3-14.2c-6.8-5.7-12.7-12-20.7-16.2c-5.6-3-13-5.1-15.3-11.8c-2.6-7.3,2.1-11.8,6.1-17
				c2.7-3.5,4.1-4,1.8-6.8c-1.8-2.2-6.9-4.1-9.4-5.5c-6.1-3.3-12.3-6.2-18.9-2.6c-7.3,4-12.3,12.4-17.8,18.5
				c-6.6,7.3-14,13.9-21.2,20.5c-14.3,13.2-30,25-44,38.4c-3.2,3.1-9.5,10.9-14.8,9.4c-3.9-1.1-1.8-3.4-3.9-5.2
				c-2.2-1.9-4-1.9-6.8-4c-6.9-5.2-9-15-16.2-20.4c-7.4-5.5-16.6-9.4-24.6-13.9c-36.7-20.6-72.4-42.8-105.9-68.3
				c-16.8-12.8-32.7-26.6-49-40c-7.7-6.3-15.4-13.2-24-18.4c-7.8-4.7-16.4-7.9-24.3-12.4c-17-9.6-35.1-17-51.9-26.9
				c-7.9-4.7-13.7-10.9-21.1-16.1c-6.4-4.5-11.8-7.2-16.6-13.9c-2.3,5-8.5-1.5-10.8-3.1c-1.8-1.2-4-2.1-5.7-3.4
				c-1.7-1.4-2.7-4.5-3.9-5.5c-2.8-2.1-6-1.7-9.8-3c-5-1.8-11.6-6.6-15.4-10.2c-2.7-2.5,1.7-0.5-2.8-3.6c-2.1-1.4-5.7-1.8-8-3.4
				c-5.6-3.6-10.7-8.3-16-12.2c-9.6-7.2-22.1-13.8-27.6-25.1c-29.4,24.1-57.8,50.3-91.5,68.4c-32.6,17.4-70.3,25.4-105.1,37.4
				c-35.8,12.4-72,24.8-108.4,35.3c-17.7,5.1-36,8.8-54.1,12.2c-18.6,3.5-36.9,2.5-55.5,4.5c-9.2,1-18.3,0.7-27.5,1.6
				c-8.4,0.8-16.6,3-25,4.1c-7.4,1-15.7,0.2-22.8,2.2c-5.2,1.5-12.1,6.7-15.9-0.1c-2.8,4.2-3.7,2.2-7.3,1.9c-3.9-0.3-5-0.1-8.8,0.6
				c-6.2,1.2-13,1.6-18.2-3.2c-2.4,8.7-25.6,0.8-28.4-5c-3.1,9.2-31.4,1.3-31.8-7.4c-0.3-7.3,4.5-17.8,6.5-24.7
				c3.3-11.2,7.3-22.2,11.6-33c4.5-11.5,9.1-23,13.7-34.4c2-5,3.9-10.1,6.3-15.1c1.1-2.4,4.1-6,4-8.8c-0.1-8.1-14.7-8.7-20.9-10.7
				c-4.7-1.5-9.4-3.2-13.8-5.3c-3.2-1.5-7.1-5.1-10.6-5.6c-8.1-1.1-6.3,8.1-7.2,13.7c-1.1,7.3-5.2,11-12.9,11.1
				c-9,0.1-34.7-15.4-39.6-3.6c-2.3,5.5-1.7,16.2-2.5,22.1c-1.4,9.8-0.8,19.4,0.5,29.2c2.2,16,9.4,36.3,1.3,51.6
				c-16.3,30.6-72.7,12.2-90.7-7.1c-26.5-28.4-25.7-71-13-105.4c6.2-16.7,15.1-34.7,26.8-48.3c5.2-6,15.1-11.9,16.8-20.2
				c1.4-6.9-3.9-13.2-2.8-20.3c1.3-8.4,8.4-13.5,14.5-18.5c6.3-5.3,12.5-11.1,19.7-15.2c16.7-9.5,35.6-3.8,52.2,3.2
				c18.1,7.6,35.5,17.8,51.7,28.9c8,5.5,14.8,10.4,24.3,13.1c7.3,2,14.7,4,22,6c6.9,1.8,12.7,3.2,17.6-2.8c5.3-6.6,7.1-9.2,16.3-9.5
				c9.8-0.3,19.7,0.2,29.5,0.6c2.1,0.1,6.8-0.6,8.4,1.2c1.5,1.5-0.7,4.8,0.7,5.7c2.1,1.5,14.3-15.7,15.4-1.7
				c0.7-6.8,7.8-3.5,11.7-2.6c1.4,0.3,2.9,0.7,4.3,1c1.5-0.5,2.8-0.1,3.9,1.2c1.6,0.3,2.7-0.3,3.3-1.9c17.2-0.2,34.6,0.8,51.8,0.7
				c19.9-0.1,40-0.3,59.8-3.2c7.3-1.1,14.6-2.5,22-3.4c3.4-0.4,6.2-0.1,9.5,0.2c1.2,0.2,2.3,0.7,3.3,1.5c0.5-1,1.2-1.7,2.2-2.2
				c12.6-3.7,25.5-6.2,38.2-9.4c8.9-2.2,16.4-4,25.3-4.6l1.7-0.1l3.6,1.1c0.5-1.3,1.4-2.3,2.5-3c2.9-1.2,5.4-1.6,8.5-2
				c12.4-1.3,24.6-1.1,36.4-3c6.2-1,28.8-4.5,33,1.7c3.2-7.5,26.2,2.7,33-1.7c-10.5-14.3-15-29.5-18-46.8
				c-3.2-18.8-5.3-38.6-0.5-57.3c4.4-17.2,14-34.9,27.1-47.1c12.7-11.7,15.6-25.8,24.1-40.3c17.6-30.2,46.6-48.6,78.9-59.7
				c17.6-6.1,35.5-11.1,53.2-16.7c14.4-4.5,26.5-11,33.8-24.8c-61.4,0-120.1,19-176.3,42.1c-28,11.5-55.8,23.4-83.4,35.7
				c-14.1,6.3-28,12.9-41.1,21l-3.6,2.2c-4.2,2.6-8.4,5.3-12.4,8.3c-0.9,0.7-6.1,3.7-6.4,4.7c-2.3,7.8,10.6,20.3,13.9,26.9
				c4.6,9.1,9,19.7,9.6,29.9c0.7,12.2-7.1,18.3-19.2,15.8c-14.7-3.1-25.8-15.3-37.5-23.8c-2.6,7.8,0.8,16.8,2.6,24.4
				c2.5,10.4,5,21,6.8,31.6c2.5,15,0.7,31.9-14.2,39.7c-38,20-57.4-32.8-65.1-59.1c-5.2,3.8-4.6,17.5-5.6,23.3
				c-1.8,11.1-4,23-8.9,33.2c-3.8,7.8-10.2,16.9-19.6,17.7c-10.2,0.9-18.5-7.9-23.1-16c-7.9-14-9.8-29.7-10.4-45.4
				c-0.1-3.5,0.9-35.5-2.6-36.4c-10.3,18.4-16,38.9-28.1,56.5c-10.6,15.4-26.5,25.9-40.9,8c-22.2-27.6-15.1-67.5-6-98.5
				c5.3-18.1,12.5-35.3,22.2-51.4c4-6.7,8.9-11.7,13.9-17.6c4.1-4.9,5.7-7.2,3.9-12.8c-1-3.3-2-3.4-1.1-7c0.7-2.6,2.7-5.8,3.8-8.2
				c3.3-6.9,6.7-13.7,10.6-20.2c8.5-13.9,20.1-25.4,32.3-36.1l1.2-1.1l-0.1,0.1c-0.8,0.7,4.9-3.6,4.8-3.6l0,0l0.1-0.1
				c2.1-1.4,2.9-5.9,5.3-1.9l0.2,0.3c0.4-5.9,5.4-9.3,9.7-12.6c1.6-1.2,3.2-3,5.1-3.7c1.3-0.5,4.5,0,5.5-0.7
				c1.9-1.4,2.8-4.2,4.6-5.8c1.8-1.6,4.3-2.4,6.4-3.7c5-3.1,9.7-6.8,14.6-10.1c10.4-7,21.4-13.2,32.5-19
				c23.5-12,48.5-21.7,73.5-30.3c22-7.5,44.8-14.5,67.4-20c23.2-5.6,47.6-4.2,71.3-6.5c48.3-4.7,99.3-3.8,147.6,0.9
				c23.7,2.3,47.2,5.9,70.5,10.4c22.6,4.4,46.2,9.4,66.3,21.2c4.3,2.5,12,10.6,17,10.3c4.2-0.2,7.9-8,9.9-11.1
				c4.7-7.3,10.7-14,14.7-21.7c4.9-9.5,7.5-20.1,11.2-30.1c-17.2,2.4-35.3,3.9-51.9-2.7c-15-6-25.1-17.9-36.3-28.9
				c-11.8-11.6-24.4-19.5-41.3-20.6c-19.1-1.2-36.4,5.6-53.9,12c-37.2,13.5-74.3,28.3-112.5,38.5c-18.7,5-37.9,8.9-57.3,9.8
				c-9.9,0.4-19.8,0-29.6,1.8c-4,0.8-5.3,1.4-8.5-0.4c0.4,0.2-4.1-7.2-5-4.3c-0.9,2.8,0.5,5-1.9,7.1c-2.9,2.5-9.2,1.3-12.5,1
				c-5-0.4-9-2.1-13.8-3.3c-7.5-1.7-15.8-0.6-23.4-1.6c-3.5-0.4-6.1-1.3-9.3-2.3c-3.3-1-1.2-0.9-4.6-1.3c-3-0.4-4.8,0-8.4-1.2
				c-3.3-1.1-6.3-1.8-9.7-2.6c-3.1-0.7-5.6-2-8.4-2.8c3.6,1.1-4.6-2.2-4.3-1.3l0,0.1l0,0c-0.9-1-1.9-3-3.7-3.3l-0.4,0
				c5.8,8.9-19.8-0.5-21.5-1c-14.1-4.3-28.6-14.1-43.4-15c-14.4-0.9-28.4,8.9-40,16.2c-14,8.8-28,17.7-41.9,26.6
				c-30.9,19.6-64.3,37.2-98.9,49.2c-16.8,5.8-34.1,10.5-51.2,15.5c-7.7,2.3-16.1,3.2-23.5,6.4c-5,2.2-12.2,8.8-17.2,2.9
				c-2,5.1-11.9,4.8-16,5c-0.6,0,0.4,1.2-1.1,1.1c-2.2-0.2-2.7-2.2-4.4-2.7c-3.5-0.9-3.8,0.4-7.2,1.8c-4.5,1.7-3.6,0.2-7.5-0.2
				c-2.3-0.2-4.6,1-6.9,1.1c-0.9,0-2.1-1.5-3.4-1.5c-1.3,0-4.3,1.5-6,1.8c-4.2,0.6-9.2,0.2-13.5,0c-6.1-0.3-67.2-5.7-62.8-18.5
				c-7.4,6.8-24.4-4.3-32.1-7.8c-2.9-1.3-3-2.6-4.6-4.1c0.4-1.8-0.3-2.6-2.3-2.4c-0.4,0-0.8-0.1-1.3-0.1c-3.4-1.7-4.6-1.7-7.2-4.7
				c-3.6-4-10.2-7.7-12-12.9c-0.5-1.4,0-3.8-0.5-4.9c-0.6-1.4-2.4-1.3-2.7-2.4c-0.1-0.4,0.5-3,0.5-3.1c-3.1-2.6-7.5-1.4-11-4.5
				c-9.9-8.6-15.9-25.8-18.7-38.1c-7.5-32-10-64.2,4.5-94.5c7-14.7,15.6-28.7,25.1-42c2.6-3.7,5.4-8.5,8.7-11.6
				c1.5-1.4,3.5-1.7,4.2-2.5c3.9-4.4,6-10.1,11.2-14.5c5.8-4.8,11.6-9.7,18.1-13.7c5.9-3.6,13.3-6,18.7-9.4c1.5-0.9,1-2.4,2.6-3.5
				c1.7-1.2,3.9-1.3,5.9-1.8c2.3-0.7,5.2-1.9,7.6-2.1c4.5-0.4,6,0.9,9.3,4.1c0-12.2,22.5-13.9,31.6-13.9c4.2,0,25.3-1.9,24.9,4.5
				c4.8-6.4,19.4-1.6,25.8,0.3c7.6,2.3,12.5,7.9,17.4,13.8c0.9-1.9,1.8-3.8,2.7-5.7c1.4,1,6.1,2.6,4.6,5.1c5.5-4.9,2.4-0.9,7.1,0
				c2.1,0.4,3.9-0.4,6-0.6c0.2,2.9-1.1,3.8-2.8,5.8c4.3,0.1,20.7-1.6,8.5,3.7c1.6,2.9,9.3,1.9,12,2.3c1.4,0.2,5,0.3,5.9,1.3
				c0.6,0.7-0.4,2.6-0.3,2.8c1.2,1.6-1.2,2.4,1.1,2.8c0.6,0.1,2.4-1.7,2.8-1.7c3.1,0,0.9-0.6,4.2-0.1c1.2,0.2,3.4,1.5,4.8,1.8
				c22.3,4.6,49.5-12.6,65.7-25.9c19.4-15.9,36.2-32.8,59.5-43.1c22.5-10,47.6-17.8,71.5-23.5C608.6,142,652.5,141.8,696,156.4z
				 M1259.1,1172c0.7,0.4,1.4,0.8,2.1,1.1c1-0.5,2-1,3.1-1.5C1261.4,1170.2,1261.2,1169.6,1259.1,1172z M1496.7,1108.7
				c-5.4,3.4-10,11-14.7,15.6c-6.6,6.4-13.5,12.5-20.4,18.6c7.9,2.7,19.4,13.9,28,8.8c4.2-2.5,6.9-9.8,9.6-13.7
				c4.2-6,9-11.7,13.9-17.1C1518.3,1115.2,1502.3,1105.2,1496.7,1108.7z M994,993.2c2.1,0.9,6.8,6,4.6,7.8
				C996.4,998.5,993.5,996.7,994,993.2z M311.5,912.1c-3.9,3.4-8.3,10.4-11,14.8c-3,5-3.2,7.5,1.5,10.8c9,6.4,22,8.3,32.5,11.3
				c5.6,1.6,12.4,5.6,17.2,0.5c4.7-5,4.7-14.4,6.8-20.6c1.7-5,3.5-10,5.3-15.1c-9.8,1-19.7,1.1-29.4-1.1
				C327.4,911,317.7,906.7,311.5,912.1z M481.2,643.7c-7.9,10.8-15,22.2-21.2,34c-10.3,19.6-18.3,40.4-23.4,61.9
				c-3.6,15.3-8.9,36.7-0.6,51.4c17.9,31.9,54.3-60.2,59.8-69.8c3.3-5.7,8.4-11.9,14.1-4.5c4.7,6.1,3.1,15.8,3.4,22.9
				c0.6,21.2-2.3,46.5,6.2,66.5c2.8,6.5,10.1,16,18.5,13c7.5-2.7,11.2-15.5,13.5-22.1c7.3-20.9,12.5-46.5,12.7-68.6
				c0-4.4-3.9-33.8,6.3-27.3c6.7,4.3,6.5,24.9,7.1,31.6c2.6,26.4,7.8,71.2,40.5,75.6c7.2,1,15.4-0.7,19.6-7.2c5.2-8,0-18.9-1.9-27.3
				c-3.2-14.6-6.8-29.6-7.1-44.6c-0.2-9.2,0.7-24.5,13.6-21c15.6,4.3,22.2,24.7,39.7,25.3c0-4.1-2.3-7.4-4.2-10.9
				c-6.2-11.1-17.6-20.6-21.4-32.8c-1.3-4,0.1-10.1-2.4-13.4c-2.4-3.2-7.7-4-11.2-4.7c-23.6-4.8-46.9-11.2-70.4-16.7
				c-25.2-5.9-48.5-12.2-72-22.6C489.6,627.6,487.2,635.5,481.2,643.7z M1045.1,808.9c3.5,1.6,6.9,3.4,10.4,4.9
				c3.1,1.4,4.3,0.3,5.5-2.6C1058.8,810.7,1046.4,806.3,1045.1,808.9z M896.2,451.6c-45,1.3-88.9,1.9-133.3,10.4
				c-21.2,4.1-42,8.8-62.8,14.6c-8.8,2.4-16.5,5-24.2,9.9c-2.8,1.8-10.4,7.5-11.5,1c-3.8,3.6-11.2,14.7-17.2,8.5
				c-1.1,4.4-4.4,4.3-7.6,5.8c-1.1,0.5-1.8,2.3-3.2,3c-0.4,0.2-0.5-2.4-1-2.4c-1.9-0.2-3.5,3.9-4.6,4.9c-2.7,2.5-5.2,3.6-8.7,4.5
				c-1.5,0.5-3.1,0.8-4.7,1c-1.9,0.8-3,0.2-3.4-1.7c-2.6,0-4.5,1-7.3,2.2c5.9,1.4-4,2.9-5.4,3c-0.2,4.4,3.6,1.6,6.1,2.5
				c-1.1,5.6-11.4,9.8-15.7,12.5c-0.7-1.5-1.4-3.1-2.2-4.6c-1.2,1.1-2.1,2.4-2.7,3.9c-0.4,1.8-1.7,2.4-3.8,1.9c-2,1.6-2.3,0.8-3.5,3
				c-1.2,2.3,2.4,6.7-2.9,4.8c0,7.6-7,3-5.8,1c-5.3-0.5-7.6,9.2-7,13c-2.5-2.5-4.1-2.2-6.6-0.2l-0.2,0.2l0.1-0.1
				c2-1.3-0.1,4.1,0.1,4l0,0c-5.4,7.1-4.9-0.8-3.2-5c-3.7,1.5-4.3,5.4-7.3,7.7c-2.6,2-3.3,1.1-5.6,1.4c-3.5,0.5-2.4-2.4-3.9,1.4
				c-0.6,1.6,0.3,4.5,0.3,6.3c1.5-2,0.9-5.3,3.6-6.5c-0.8,5.9-12.4,26.3-17.2,14.3c-4.7,3.3,0.5,6.9-2.6,11.3
				c-2.3-2.2-2.9-5.8-2.6-8.8c-1.4,1.9-1.4,4.4-2.5,6.3c-1.2,2-2.4,2.2-3,4.4c-0.9,3.4,2.1,1.7,0.5,5.3c-0.8,1.8-4.5,3.4-5.9,4.4
				c-5.1,3.5-10.2,7.6-5.3,13.5c7.7,9.2,27.9,10.2,38.8,11.7c23.2,3.3,45.8,8.7,68.6,13.8c13.8,3,27.2,6.4,40.7,10.5
				c9.7,2.9,23.1,4.7,28.2,14.7c27-25.8,63-39.3,96.3-54.8c36.1-16.8,73.4-32.3,111.6-43.5c33.9-9.9,68.7-13.7,103.7-17.1
				c9.2-0.9,23.5-3.2,31.7,2.5c5.1,3.5,5.3,8.8,1.4,13.5c-2.1,2.5-4.4,1.9-5.7,6.4c-1,3.5-0.5,6.1,0.5,9.6c-2.3-1.8-6.5-0.7-7.7-4
				l-0.1-0.4l-0.1,0.4c-1.6,6.3,9.5,7.2,6.1,14.7l-0.2,0.5c-1.2,2.3-1.2-5.1-2.2-5.1c-2.8-0.1-5.1,6.5-6.3,8.3
				c5.3,0,3.3,3.8,0.4,5.8c-2,1.4-5.4,1.8-7.7,2.9c-4.7,2.3-8.8,5.6-13.6,7.8c-5.2,2.4-9.8,2.5-15.1,3.9c-0.8,0.2-4,1.4-4.3,1.4
				c-0.4,0-0.5,1.4-0.9,1.4c-3.3,0.5-5.8-2.6-9.1-1.4c-1.2,0.5-0.6,3.5-1.7,4.2c-1.2,0.8-4.5-0.2-6-0.3c-3.4-0.2-4-0.7-6.7,0.9
				c-4.7,2.7-7.1,6.4-13.4,7.1c-4.9,0.5-8.1-0.4-12.8,1.4c-4.8,1.9-9.3,2.3-13.9,3.5c-0.6,0.2-0.7,2.2-1.2,2.3
				c-1.5,0.5-3.4,0.1-4.8,0.6c-3.4,1-6.1,2-9.2,3.8c-13.7,8.2-28.9,20.4-39.6,32.2c-4.9,5.4-18.6,18.9-14.2,26.7
				c2.9,5,12.8,7.4,17.7,9.5c7.4,3.1,15,5.4,22.4,8.3c9.3,3.6,17.7,9.2,27.1,12.4c9.1,3,18.9,3.6,28.3,5.3
				c40.8,7,80.7,18.3,121.5,25.3c22.4,3.8,45.2,8.4,67.9,4.8c20-3.2,39.2-12,55.2-24.4c29.1-22.5,49.4-54.5,59.6-89.6
				c2.1-7.3,2.5-25.4,9.3-29.9c5.7-3.7,8.6,4.5,12.3,7.7c6,5.2,14.7,7.3,21.9,10.2c17.8,7.4,33.9,15.2,52.7,20.2
				c19,5.1,38.4,9,57.6,13.2c39,8.5,76.3,16.5,116.4,16.6c39.7,0.1,79.6,1.6,118.8-5.7c34.3-6.4,68.9-23.9,94.6-47.6
				c13-12,23-27.1,33.2-41.4c5.5-7.7,10.6-15.6,14.8-24c3.1-6.2,8.5-15.1,9.1-22.1c0.5-6.3-3.2-5.4-9.4-6c-9.6-1-19.3-1.6-28.9-2.6
				c-19.4-2-38.8-4.5-58.2-6.6c-19.8-2.1-39.5-5-58.7-10.2c-5.8-1.6-10-3.5-14.1,2c-2.6,3.6-2.6,11.8-8,5.8
				c-10.5,13.3-25.9,21.2-40.2,29.5c-15.5,9-30.6,18.9-47.1,26.2c-35.5,15.7-74.5,14.4-112.1,9.4c-38.2-5.1-77-11.7-112.9-26.2
				c-16.5-6.7-30.6-16.8-45.4-26.5c-7-4.6-14.2-8.3-21.6-12.1c-8.3-4.3-13.4-10.6-21-15.6c-5.1,16.5-24.6,22.2-40,22.9
				c-19.3,0.9-34.8-8.3-46.5-23.2c-9.7-12.4-11.6-30.9-26.6-37.7c-17.1-7.7-37.2-10.8-55.5-14.4C985.5,455.3,940,450.3,896.2,451.6z
				 M1124.5,578.6c4.8,2.2,18.9,18.3,7.7,18.6c-7.1,0.2-11.3-8.7-19.1-7.4c-3.5,0.6-8.8,1.8-9.6,4.5c-2.2,6.8,7.8,11.1,12.1,13
				c6.6,2.9,12.1,5.8,15.7,12.4c5.5,10.2,7,26.6-6,31.1c-9.7,3.4-21.7,0.8-31.2-1.9c-8-2.2-14.2-10.5-10.5-18.8
				c1-2.3,3.8-6.5,7.1-4.9c2.6,1.2,1.3,3.6,2.1,5.6c3.2,8.3,27,20.2,32.5,7.6c6.7-15.4-18.8-20-26.5-25.1c-10-6.6-10.3-18-2.6-26.7
				C1102.9,579.1,1114.7,574.3,1124.5,578.6z M1166.5,630.7c-0.4,3.6-0.9,7.4-1.5,11c-0.5,3.1-0.5,6.4-4.1,7.5
				c-2.4,0.7-4.7-1.8-6.9-0.1c-2.5,1.8-1.3-11.6-1.2-12.3c0.7-5,2.1-15.2,6.9-18.3C1167.8,613.2,1167,626.3,1166.5,630.7z
				 M1166,609.7c-8.7,5.5-10.9-10.1-7.5-15.1C1167.1,582,1179.7,601.1,1166,609.7z M990.2,602c2.5,1.8,1.7,0.8,1.7,5.7
				C988.9,607.9,989.4,604,990.2,602z M999.9,597.8c-0.8,1.9,2.9,4.3,4.1,4.6C1004.1,601.8,1002.3,592.3,999.9,597.8z M530.3,569.4
				c-2.3,3.3-1,5.4,2.7,4.1l0.3-0.1L530.3,569.4z M576.5,537.4l-2.2,0.9c-1,1-2.1,2-3.1,3C574.2,540.7,576.3,541.1,576.5,537.4z
				 M588.7,532.7c-1.5-3.1-6.7,3-6.8,4.5C583.1,536.4,590.4,536.3,588.7,532.7z M593.5,521.8c-1.3,1.8-1,3.2,0.8,4.3
				c1.5-2,2.6-4.1,3.3-6.4C595.7,518.2,594.2,520.1,593.5,521.8z M1586,302.3c-3.8,1.7-1.8,7.6-1.4,10.7c1.8,15.1,4.6,30.1,6.3,45.2
				c2.4,21.3,2.8,42.8,6.8,63.9c3.6,19.2,9.8,37.9,13,57.2c2.2,12.9-2,27.9,13.5,31.8c13.9,3.5,29.7,3.7,43.9,5.3
				c18.3,2,36.7,3,55.1,3.9c8.7,0.4,17.7,0.5,26.3,1.8c5.1,0.8,11.4,4.1,15.3-0.6c3.8-4.6,3.8-16.2,5-22c1.6-7.7,3-15.4,3.7-23.3
				c1.7-17.7-0.8-35.3-3.2-52.8c-2.5-18.9-4.5-37.9-7.1-56.8c-1.7-12.2-1.5-31.9-9.9-41.7c-7.6,22.8-9.7,47.1-10.1,71
				c-0.1,5.1-3.4,34.7-12.4,20.3c-2.5-4-2.5-6.3-6.4-9.7c-4-3.5-5.4-6.3-6.7-11.6c-2.4-9.6-2.8-18-8.1-26.6
				c-10.7-17.5-15.1-39.2-31.1-53.3c-0.2,16.4-2.5,34.2,0.5,50.5c1.9,10.2,9.8,24.9,3.3,35c-3.2,5-5.1,3.5-8.9,1
				c-2.4-1.6-2.1-2.4-5.1-4c-2.9-1.5-5.2-1.5-8-3.6c-9.8-7.6-10.6-20.9-13.8-31.9c-7.1-24.3-31.5-39.3-50.2-54.3
				C1594.2,306,1589.1,300.9,1586,302.3z M1216.5,351.5c-14.4,5.7-29.2,7.9-44.4,4.7c0,3.4,4.8,8.8,1.1,10.7c-0.9,0.5-6-1.7-7-2
				c-5.5-1.4-12.9-3.9-18.7-2.7c-6.1,1.2-5.9,5.2-1.9,9.6c5.6,6.3,19.6,6.5,19.7,16.9c0.1,4.5-2.7,10.1-3.3,14.8
				c-0.9,6.9-1.9,13.8-3.5,20.6c-2.8,11.7-7.3,22.8-12.7,33.6c-4.7,9.2-10.3,18.9-19,24.9c-5.6,3.9-3.5,2.2-2.4,8
				c0.7,3.9,0.6,6.8-4.4,5.8c-1-0.3-1.9-0.6-2.9-0.9c11.8,19.3,41.6,31.5,61.9,18.6c-8.6-6.9,3.1-19,8-24.1
				c7.4-7.7,15.1-16.5,23-23.5c12.1-10.7,28-5.5,42.3-10c14.5-4.6,25.1-14.9,34.4-26.4c8.4-10.2,19.4-22.8,20.6-36.6
				c0.2-2.7-1.1-5.9-0.6-8.5c0.5-2.6,2.1-3,2.9-4.7c1.7-3.5,2.1-7.2,2.4-11.2c0.9-13.2-3.3-15.2-15.7-18.7c-7.2-2-14.5-3.5-21.8-5.5
				c-6.9-1.9-13-5.4-19.8-7.4C1240.6,333.4,1229.1,346.4,1216.5,351.5z M1253.4,434.3c11.4,6.9-6.6,11.3-13.2,8.3
				C1231.3,438.4,1247,430.4,1253.4,434.3z M1274.9,376.9c10.3,12.3,21.8,37.4-0.8,42.5c-7,1.6-17.8,4.1-24.8,2.2
				c-10-2.7-7.4-15.8,2.6-16.4c5.9-0.3,19.5,4.3,23.1-2.5c1.9-3.7-2.4-9.7-3.1-13.4C1270.9,384.4,1271.7,380.6,1274.9,376.9z
				 M657.9,413.9L657.9,413.9c0,0.1,0.1,0.1,0.2,0.2l0,0l-0.1-0.1L657.9,413.9z M1295.3,381.3c7.2,0,3.6,15.2,0.1,17.8
				C1289,403.8,1286.3,381.3,1295.3,381.3z M1248,392.8c-8.3,1-6.5-18.9,1.1-19.5C1259.1,372.4,1257.6,391.6,1248,392.8z
				 M1320.1,359.7c-1,2-0.2,21.8,2.2,22.2c0.6-4.8,0.3-9.7,0.2-14.5l0-1.2C1322.5,366.2,1322.9,354,1320.1,359.7z"/>
		</g>
		<g id="Character_x2F_running_2_">
			<path id="Accent_2_" class="st2" d="M483.5,617.6c61.2,16.3,121.8,35.5,182.5,53.6c6.8,2,6.8,2.4,12.9-1.3
				c16.6-10,33.5-19.5,50.7-28.6c51.6-27.5,104.7-49.4,161.6-63.4c40.3-9.9,81.3-17.8,122.4-23.5c-4.2,12.9-12.3,26.3-22.3,35.3
				c-7.8,7-18.4,10.9-28,14.6c-28.6,11.2-58.4,19-86.5,31.5c-28.6,12.7-46.7,39.1-52.1,69.7c-1,5.7-1,6.6,3.7,9.5
				c5.3,3.2,11.7,5.1,17.5,7.1c46.7,15.9,95.8,25.7,144.1,35.3c25.6,5.1,51.3,9.9,77.1,13.7c16,2.4,33,5.6,49.3,4.6
				c69.8-4.1,111.1-87.1,131.6-143.3c63.1,34.1,135.4,56,206,66.5c85.6,12.8,193.5,13.5,261.2-49.6c32.2-30,52-70.7,66.6-111.7
				c-47.4-4.1-94.7-11.2-141.7-18.4c-8.2-1.3-16.4-2.5-24.6-3.8c-3.3-0.5-8.4-2.4-11.8-1.9c-5.1,0.7-11.7,6.3-16.3,8.8
				c-34.8,18.9-70.8,36.2-108.2,49.5c-20,7.1-40.8,13.4-62,15.5c-22.8,2.3-46.1-2.4-68-7.9c-55.1-13.9-112.8-37.5-158.8-71.5
				c-11.2,15.9-31.4,26.7-50.6,19.1c-21.1-8.4-32.8-30.5-44.1-48.7c-4.1-6.6-11.9-6.7-19.5-8.6c-21.4-5.5-43-9.9-64.8-13.6
				c-71.4-12.1-144.9-16.2-217-7.9c-70.3,8.2-139.6,30.8-201.6,64.9c-27,14.8-53.3,32-75.7,53.3
				C502.8,579.8,486.2,597.4,483.5,617.6"/>
			<path id="Ink_2_" class="st3" d="M696,156.4c22.1,7.4,42,18.2,61.5,30.9c9.5,6.2,19,13.4,29.4,17.7c9.3,3.9,19.5,5.6,29,8.8
				c42.8,14.2,89.2,17.1,132.8,3.4c44.4-14,82-43.9,127.9-53.3c44.8-9.2,90.3-7.1,133.2,9.5c20.9,8.1,38.5,21.6,56.3,34.8
				c17.1,12.7,35,25.1,48.2,42c13,16.6,20.5,37.2,26.2,57.3c3.3,11.6,4.8,23.5,4.6,35.6c-0.2,8.4-4.6,16.6-2,24.7
				c3.7,11.4,9,19.8,7.6,32.5c-1.1,10.2-5.8,19.1-13,26.2c-7.5,7.4-16.4,12.4-26.4,15.6c-7.5,2.4-9.9,1.8-14.3-4.8
				c-12.2,11.1-21,25.1-36.3,32.4c-7.6,3.6-15.4,5.4-23.8,5.9c-6.4,0.4-12.2,0.6-17.6,4.5c-5.6,4.1-26.2,22.2-18.4,29.3
				c4.6,4.2,15.3,5,21.2,7.4c8.2,3.3,16.1,7.4,23.5,12.2c27.2,17.5,54.2,28.5,85.6,36.3c32.6,8.2,65.5,12.6,99.2,12.7
				c30.6,0.1,62.6-2.2,91-14.6c13.6-5.9,26.7-13.8,37.9-23.7c11.1-9.8,17.9-23.5,29.3-32.7c7.4-5.9,0.6-15.1-1.7-23.2
				c-4.6-16.6-8.2-35.4-9.6-52.5c-1.4-16.6-3.7-33.2-6.6-49.7c-3.1-17.4-9.7-33.7-14.3-50.7c-3.4-12.6-6.8-27.3-2.9-40.1
				c2-6.4,6.3-13.1,12.4-16.1c5.5-2.7,8.9-0.1,13.8-0.4c14.5-0.9,25.7,5.1,36.6,14.7c5.9,5.2,12.7,9.8,18.4,15.3
				c4.4,4.3,5.4,11.1,10.1,14.9c7.7-19.5,15.7-44.4,41.6-33.2c20.5,8.8,23.2,42.1,33.2,59.4c5.6-4.6,6.2-13.7,8.4-20.1
				c2.3-6.7,6.1-13.7,11.4-18.4c11.7-10.3,26-6.2,34,6.2c4.3,6.6,1.7,14.1,6,20.6c4.2,6.4,2.9,14,4.6,21.5
				c2.2,9.5,4.8,18.9,6.6,28.5c0.8,4.4,2,9.5,1.8,14c-0.1,1.9-1.6,5.1-1.1,7c0.6,2.4,3.5,4.6,4.6,7.1c1.4,3.3,0.9,5.6,1.1,9
				c0.3,6,1.9,11,3.6,16.9c4.4,15,3.3,34-3.2,48.2c-3.4,7.4-5.7,12.7-6.7,20.6c-0.6,5.1-4.5,9.7-4.3,15.2
				c0.3,7.6,20.7,19.4,4.6,24.4c-6.7,2.1-8.2,1-10,8.7c-1.8,7.6-3.9,15-6.9,22.3c-6.3,15.4-15.7,29.2-24.6,43.2
				c-9.6,15.2-19.6,29.9-33.8,41.2c-13.1,10.5-28.2,19-43.1,26.6c-31.5,15.9-66.6,24.8-102.1,24c-37.8-0.9-76.1,2.6-113.5-3.8
				c-38.3-6.6-75.7-17.4-113.9-24.7c-17.1-3.3-33.1-6.8-48.7-14.9c-15.8-8.2-31.6-16.6-46.1-27c-10,23.9-15.3,48.8-29.6,70.8
				c-12.5,19.2-27.5,37.2-46,51c-18,13.4-41.5,23.5-64.2,24.4c-6.9,0.3-17.6-2.8-22.5,2.4c-2.5,2.6-2.7,7.8-3.7,11.1
				c-1.7,5.7-4.1,11.3-5.5,17c-2,8.8,6.2,8.9,13.4,12.5c9.7,4.8,19.1,10,28.5,15.4c9.6,5.5,18.7,11.8,28.3,17.2
				c8.2,4.6,16.7,8.2,24.6,13.5c18.7,12.4,39.2,20.7,59.3,30.6c21.5,10.5,42.4,22.3,63.6,33.6c41.9,22.3,83.9,45.4,123.5,71.7
				c18.5,12.3,36.2,25,55.1,36.6c17.7,10.8,37.8,23.5,49.1,41.3c8.8,13.8,21.4,20.4,35.9,28c8.5,4.4,13.8,5.3,20.8-2
				c6.8-7.1,13.4-14.2,20.6-21.1c29.5-27.9,54.7-58.5,79.2-90.7c18.2-23.9,43.2-52.6,76.7-47.3c10,1.6,16.7,6.2,24.1,12.8
				c5,4.5,14.1,7.4,17.5,13.2c1.9,3.3,2.8,7.6,4.7,11.1c2,3.7,4.6,7.2,6,11.2c2.3,6.8-2.7,17.5,2.3,23c3.6,4,0.3,13.5-0.7,18.1
				c-1.8,8.4-3.4,17-6.3,25.2c-2.3,6.4-4.5,15.2-9.3,20.2c-4.3,4.5-9.3,4-8.2,11.8c-4.6-1.5-8.6,9.6-10,12.4
				c-3.5,7.5-7.4,13.7-13,20c-14.3,15.8-30.8,26.5-49.4,36.5c-6.8,3.7-20.9,8.8-22.4,17.2c-1.5,8.1,3.1,14.7-0.1,23.4
				c-6.8,18.1-22,37.1-34.5,51.7c-11.2,13.1-22.1,21.9-40,18.8c-15.9-2.7-31.6-10.8-44.9-19.8c-15.9-10.8-32.8-19-50-27.6
				c-8.5-4.2-16.9-8.1-24.3-14.2c-6.8-5.7-12.7-12-20.7-16.2c-5.6-3-13-5.1-15.3-11.8c-2.6-7.3,2.1-11.8,6.1-17
				c2.7-3.5,4.1-4,1.8-6.8c-1.8-2.2-6.9-4.1-9.4-5.5c-6.1-3.3-12.3-6.2-18.9-2.6c-7.3,4-12.3,12.4-17.8,18.5
				c-6.6,7.3-14,13.9-21.2,20.5c-14.3,13.2-30,25-44,38.4c-3.2,3.1-9.5,10.9-14.8,9.4c-3.9-1.1-1.8-3.4-3.9-5.2
				c-2.2-1.9-4-1.9-6.8-4c-6.9-5.2-9-15-16.2-20.4c-7.4-5.5-16.6-9.4-24.6-13.9c-36.7-20.6-72.4-42.8-105.9-68.3
				c-16.8-12.8-32.7-26.6-49-40c-7.7-6.3-15.4-13.2-24-18.4c-7.8-4.7-16.4-7.9-24.3-12.4c-17-9.6-35.1-17-51.9-26.9
				c-7.9-4.7-13.7-10.9-21.1-16.1c-6.4-4.5-11.8-7.2-16.6-13.9c-2.3,5-8.5-1.5-10.8-3.1c-1.8-1.2-4-2.1-5.7-3.4
				c-1.7-1.4-2.7-4.5-3.9-5.5c-2.8-2.1-6-1.7-9.8-3c-5-1.8-11.6-6.6-15.4-10.2c-2.7-2.5,1.7-0.5-2.8-3.6c-2.1-1.4-5.7-1.8-8-3.4
				c-5.6-3.6-10.7-8.3-16-12.2c-9.6-7.2-22.1-13.8-27.6-25.1c-29.4,24.1-57.8,50.3-91.5,68.4c-32.6,17.4-70.3,25.4-105.1,37.4
				c-35.8,12.4-72,24.8-108.4,35.3c-17.7,5.1-36,8.8-54.1,12.2c-18.6,3.5-36.9,2.5-55.5,4.5c-9.2,1-18.3,0.7-27.5,1.6
				c-8.4,0.8-16.6,3-25,4.1c-7.4,1-15.7,0.2-22.8,2.2c-5.2,1.5-12.1,6.7-15.9-0.1c-2.8,4.2-3.7,2.2-7.3,1.9c-3.9-0.3-5-0.1-8.8,0.6
				c-6.2,1.2-13,1.6-18.2-3.2c-2.4,8.7-25.6,0.8-28.4-5c-3.1,9.2-31.4,1.3-31.8-7.4c-0.3-7.3,4.5-17.8,6.5-24.7
				c3.3-11.2,7.3-22.2,11.6-33c4.5-11.5,9.1-23,13.7-34.4c2-5,3.9-10.1,6.3-15.1c1.1-2.4,4.1-6,4-8.8c-0.1-8.1-14.7-8.7-20.9-10.7
				c-4.7-1.5-9.4-3.2-13.8-5.3c-3.2-1.5-7.1-5.1-10.6-5.6c-8.1-1.1-6.3,8.1-7.2,13.7c-1.1,7.3-5.2,11-12.9,11.1
				c-9,0.1-34.7-15.4-39.6-3.6c-2.3,5.5-1.7,16.2-2.5,22.1c-1.4,9.8-0.8,19.4,0.5,29.2c2.2,16,9.4,36.3,1.3,51.6
				c-16.3,30.6-72.7,12.2-90.7-7.1c-26.5-28.4-25.7-71-13-105.4c6.2-16.7,15.1-34.7,26.8-48.3c5.2-6,15.1-11.9,16.8-20.2
				c1.4-6.9-3.9-13.2-2.8-20.3c1.3-8.4,8.4-13.5,14.5-18.5c6.3-5.3,12.5-11.1,19.7-15.2c16.7-9.5,35.6-3.8,52.2,3.2
				c18.1,7.6,35.5,17.8,51.7,28.9c8,5.5,14.8,10.4,24.3,13.1c7.3,2,14.7,4,22,6c6.9,1.8,12.7,3.2,17.6-2.8c5.3-6.6,7.1-9.2,16.3-9.5
				c9.8-0.3,19.7,0.2,29.5,0.6c2.1,0.1,6.8-0.6,8.4,1.2c1.5,1.5-0.7,4.8,0.7,5.7c2.1,1.5,14.3-15.7,15.4-1.7
				c0.7-6.8,7.8-3.5,11.7-2.6c1.4,0.3,2.9,0.7,4.3,1c1.5-0.5,2.8-0.1,3.9,1.2c1.6,0.3,2.7-0.3,3.3-1.9c17.2-0.2,34.6,0.8,51.8,0.7
				c19.9-0.1,40-0.3,59.8-3.2c7.3-1.1,14.6-2.5,22-3.4c3.4-0.4,6.2-0.1,9.5,0.2c1.2,0.2,2.3,0.7,3.3,1.5c0.5-1,1.2-1.7,2.2-2.2
				c12.6-3.7,25.5-6.2,38.2-9.4c8.9-2.2,16.4-4,25.3-4.6l1.7-0.1l3.6,1.1c0.5-1.3,1.4-2.3,2.5-3c2.9-1.2,5.4-1.6,8.5-2
				c12.4-1.3,24.6-1.1,36.4-3c6.2-1,28.8-4.5,33,1.7c3.2-7.5,26.2,2.7,33-1.7c-10.5-14.3-15-29.5-18-46.8
				c-3.2-18.8-5.3-38.6-0.5-57.3c4.4-17.2,14-34.9,27.1-47.1c12.7-11.7,15.6-25.8,24.1-40.3c17.6-30.2,46.6-48.6,78.9-59.7
				c17.6-6.1,35.5-11.1,53.2-16.7c14.4-4.5,26.5-11,33.8-24.8c-61.4,0-120.1,19-176.3,42.1c-28,11.5-55.8,23.4-83.4,35.7
				c-14.1,6.3-28,12.9-41.1,21l-3.6,2.2c-4.2,2.6-8.4,5.3-12.4,8.3c-0.9,0.7-6.1,3.7-6.4,4.7c-2.3,7.8,10.6,20.3,13.9,26.9
				c4.6,9.1,9,19.7,9.6,29.9c0.7,12.2-7.1,18.3-19.2,15.8c-14.7-3.1-25.8-15.3-37.5-23.8c-2.6,7.8,0.8,16.8,2.6,24.4
				c2.5,10.4,5,21,6.8,31.6c2.5,15,0.7,31.9-14.2,39.7c-38,20-57.4-32.8-65.1-59.1c-5.2,3.8-4.6,17.5-5.6,23.3
				c-1.8,11.1-4,23-8.9,33.2c-3.8,7.8-10.2,16.9-19.6,17.7c-10.2,0.9-18.5-7.9-23.1-16c-7.9-14-9.8-29.7-10.4-45.4
				c-0.1-3.5,0.9-35.5-2.6-36.4c-10.3,18.4-16,38.9-28.1,56.5c-10.6,15.4-26.5,25.9-40.9,8c-22.2-27.6-15.1-67.5-6-98.5
				c5.3-18.1,12.5-35.3,22.2-51.4c4-6.7,8.9-11.7,13.9-17.6c4.1-4.9,5.7-7.2,3.9-12.8c-1-3.3-2-3.4-1.1-7c0.7-2.6,2.7-5.8,3.8-8.2
				c3.3-6.9,6.7-13.7,10.6-20.2c8.5-13.9,20.1-25.4,32.3-36.1l1.2-1.1l-0.1,0.1c-0.8,0.7,4.9-3.6,4.8-3.6l0,0l0.1-0.1
				c2.1-1.4,2.9-5.9,5.3-1.9l0.2,0.3c0.4-5.9,5.4-9.3,9.7-12.6c1.6-1.2,3.2-3,5.1-3.7c1.3-0.5,4.5,0,5.5-0.7
				c1.9-1.4,2.8-4.2,4.6-5.8c1.8-1.6,4.3-2.4,6.4-3.7c5-3.1,9.7-6.8,14.6-10.1c10.4-7,21.4-13.2,32.5-19
				c23.5-12,48.5-21.7,73.5-30.3c22-7.5,44.8-14.5,67.4-20c23.2-5.6,47.6-4.2,71.3-6.5c48.3-4.7,99.3-3.8,147.6,0.9
				c23.7,2.3,47.2,5.9,70.5,10.4c22.6,4.4,46.2,9.4,66.3,21.2c4.3,2.5,12,10.6,17,10.3c4.2-0.2,7.9-8,9.9-11.1
				c4.7-7.3,10.7-14,14.7-21.7c4.9-9.5,7.5-20.1,11.2-30.1c-17.2,2.4-35.3,3.9-51.9-2.7c-15-6-25.1-17.9-36.3-28.9
				c-11.8-11.6-24.4-19.5-41.3-20.6c-19.1-1.2-36.4,5.6-53.9,12c-37.2,13.5-74.3,28.3-112.5,38.5c-18.7,5-37.9,8.9-57.3,9.8
				c-9.9,0.4-19.8,0-29.6,1.8c-4,0.8-5.3,1.4-8.5-0.4c0.4,0.2-4.1-7.2-5-4.3c-0.9,2.8,0.5,5-1.9,7.1c-2.9,2.5-9.2,1.3-12.5,1
				c-5-0.4-9-2.1-13.8-3.3c-7.5-1.7-15.8-0.6-23.4-1.6c-3.5-0.4-6.1-1.3-9.3-2.3c-3.3-1-1.2-0.9-4.6-1.3c-3-0.4-4.8,0-8.4-1.2
				c-3.3-1.1-6.3-1.8-9.7-2.6c-3.1-0.7-5.6-2-8.4-2.8c3.6,1.1-4.6-2.2-4.3-1.3l0,0.1l0,0c-0.9-1-1.9-3-3.7-3.3l-0.4,0
				c5.8,8.9-19.8-0.5-21.5-1c-14.1-4.3-28.6-14.1-43.4-15c-14.4-0.9-28.4,8.9-40,16.2c-14,8.8-28,17.7-41.9,26.6
				c-30.9,19.6-64.3,37.2-98.9,49.2c-16.8,5.8-34.1,10.5-51.2,15.5c-7.7,2.3-16.1,3.2-23.5,6.4c-5,2.2-12.2,8.8-17.2,2.9
				c-2,5.1-11.9,4.8-16,5c-0.6,0,0.4,1.2-1.1,1.1c-2.2-0.2-2.7-2.2-4.4-2.7c-3.5-0.9-3.8,0.4-7.2,1.8c-4.5,1.7-3.6,0.2-7.5-0.2
				c-2.3-0.2-4.6,1-6.9,1.1c-0.9,0-2.1-1.5-3.4-1.5c-1.3,0-4.3,1.5-6,1.8c-4.2,0.6-9.2,0.2-13.5,0c-6.1-0.3-67.2-5.7-62.8-18.5
				c-7.4,6.8-24.4-4.3-32.1-7.8c-2.9-1.3-3-2.6-4.6-4.1c0.4-1.8-0.3-2.6-2.3-2.4c-0.4,0-0.8-0.1-1.3-0.1c-3.4-1.7-4.6-1.7-7.2-4.7
				c-3.6-4-10.2-7.7-12-12.9c-0.5-1.4,0-3.8-0.5-4.9c-0.6-1.4-2.4-1.3-2.7-2.4c-0.1-0.4,0.5-3,0.5-3.1c-3.1-2.6-7.5-1.4-11-4.5
				c-9.9-8.6-15.9-25.8-18.7-38.1c-7.5-32-10-64.2,4.5-94.5c7-14.7,15.6-28.7,25.1-42c2.6-3.7,5.4-8.5,8.7-11.6
				c1.5-1.4,3.5-1.7,4.2-2.5c3.9-4.4,6-10.1,11.2-14.5c5.8-4.8,11.6-9.7,18.1-13.7c5.9-3.6,13.3-6,18.7-9.4c1.5-0.9,1-2.4,2.6-3.5
				c1.7-1.2,3.9-1.3,5.9-1.8c2.3-0.7,5.2-1.9,7.6-2.1c4.5-0.4,6,0.9,9.3,4.1c0-12.2,22.5-13.9,31.6-13.9c4.2,0,25.3-1.9,24.9,4.5
				c4.8-6.4,19.4-1.6,25.8,0.3c7.6,2.3,12.5,7.9,17.4,13.8c0.9-1.9,1.8-3.8,2.7-5.7c1.4,1,6.1,2.6,4.6,5.1c5.5-4.9,2.4-0.9,7.1,0
				c2.1,0.4,3.9-0.4,6-0.6c0.2,2.9-1.1,3.8-2.8,5.8c4.3,0.1,20.7-1.6,8.5,3.7c1.6,2.9,9.3,1.9,12,2.3c1.4,0.2,5,0.3,5.9,1.3
				c0.6,0.7-0.4,2.6-0.3,2.8c1.2,1.6-1.2,2.4,1.1,2.8c0.6,0.1,2.4-1.7,2.8-1.7c3.1,0,0.9-0.6,4.2-0.1c1.2,0.2,3.4,1.5,4.8,1.8
				c22.3,4.6,49.5-12.6,65.7-25.9c19.4-15.9,36.2-32.8,59.5-43.1c22.5-10,47.6-17.8,71.5-23.5C608.6,142,652.5,141.8,696,156.4z
				 M1259.1,1172c0.7,0.4,1.4,0.8,2.1,1.1c1-0.5,2-1,3.1-1.5C1261.4,1170.2,1261.2,1169.6,1259.1,1172z M1496.7,1108.7
				c-5.4,3.4-10,11-14.7,15.6c-6.6,6.4-13.5,12.5-20.4,18.6c7.9,2.7,19.4,13.9,28,8.8c4.2-2.5,6.9-9.8,9.6-13.7
				c4.2-6,9-11.7,13.9-17.1C1518.3,1115.2,1502.3,1105.2,1496.7,1108.7z M994,993.2c2.1,0.9,6.8,6,4.6,7.8
				C996.4,998.5,993.5,996.7,994,993.2z M311.5,912.1c-3.9,3.4-8.3,10.4-11,14.8c-3,5-3.2,7.5,1.5,10.8c9,6.4,22,8.3,32.5,11.3
				c5.6,1.6,12.4,5.6,17.2,0.5c4.7-5,4.7-14.4,6.8-20.6c1.7-5,3.5-10,5.3-15.1c-9.8,1-19.7,1.1-29.4-1.1
				C327.4,911,317.7,906.7,311.5,912.1z M481.2,643.7c-7.9,10.8-15,22.2-21.2,34c-10.3,19.6-18.3,40.4-23.4,61.9
				c-3.6,15.3-8.9,36.7-0.6,51.4c17.9,31.9,54.3-60.2,59.8-69.8c3.3-5.7,8.4-11.9,14.1-4.5c4.7,6.1,3.1,15.8,3.4,22.9
				c0.6,21.2-2.3,46.5,6.2,66.5c2.8,6.5,10.1,16,18.5,13c7.5-2.7,11.2-15.5,13.5-22.1c7.3-20.9,12.5-46.5,12.7-68.6
				c0-4.4-3.9-33.8,6.3-27.3c6.7,4.3,6.5,24.9,7.1,31.6c2.6,26.4,7.8,71.2,40.5,75.6c7.2,1,15.4-0.7,19.6-7.2c5.2-8,0-18.9-1.9-27.3
				c-3.2-14.6-6.8-29.6-7.1-44.6c-0.2-9.2,0.7-24.5,13.6-21c15.6,4.3,22.2,24.7,39.7,25.3c0-4.1-2.3-7.4-4.2-10.9
				c-6.2-11.1-17.6-20.6-21.4-32.8c-1.3-4,0.1-10.1-2.4-13.4c-2.4-3.2-7.7-4-11.2-4.7c-23.6-4.8-46.9-11.2-70.4-16.7
				c-25.2-5.9-48.5-12.2-72-22.6C489.6,627.6,487.2,635.5,481.2,643.7z M1045.1,808.9c3.5,1.6,6.9,3.4,10.4,4.9
				c3.1,1.4,4.3,0.3,5.5-2.6C1058.8,810.7,1046.4,806.3,1045.1,808.9z M896.2,451.6c-45,1.3-88.9,1.9-133.3,10.4
				c-21.2,4.1-42,8.8-62.8,14.6c-8.8,2.4-16.5,5-24.2,9.9c-2.8,1.8-10.4,7.5-11.5,1c-3.8,3.6-11.2,14.7-17.2,8.5
				c-1.1,4.4-4.4,4.3-7.6,5.8c-1.1,0.5-1.8,2.3-3.2,3c-0.4,0.2-0.5-2.4-1-2.4c-1.9-0.2-3.5,3.9-4.6,4.9c-2.7,2.5-5.2,3.6-8.7,4.5
				c-1.5,0.5-3.1,0.8-4.7,1c-1.9,0.8-3,0.2-3.4-1.7c-2.6,0-4.5,1-7.3,2.2c5.9,1.4-4,2.9-5.4,3c-0.2,4.4,3.6,1.6,6.1,2.5
				c-1.1,5.6-11.4,9.8-15.7,12.5c-0.7-1.5-1.4-3.1-2.2-4.6c-1.2,1.1-2.1,2.4-2.7,3.9c-0.4,1.8-1.7,2.4-3.8,1.9c-2,1.6-2.3,0.8-3.5,3
				c-1.2,2.3,2.4,6.7-2.9,4.8c0,7.6-7,3-5.8,1c-5.3-0.5-7.6,9.2-7,13c-2.5-2.5-4.1-2.2-6.6-0.2l-0.2,0.2l0.1-0.1
				c2-1.3-0.1,4.1,0.1,4l0,0c-5.4,7.1-4.9-0.8-3.2-5c-3.7,1.5-4.3,5.4-7.3,7.7c-2.6,2-3.3,1.1-5.6,1.4c-3.5,0.5-2.4-2.4-3.9,1.4
				c-0.6,1.6,0.3,4.5,0.3,6.3c1.5-2,0.9-5.3,3.6-6.5c-0.8,5.9-12.4,26.3-17.2,14.3c-4.7,3.3,0.5,6.9-2.6,11.3
				c-2.3-2.2-2.9-5.8-2.6-8.8c-1.4,1.9-1.4,4.4-2.5,6.3c-1.2,2-2.4,2.2-3,4.4c-0.9,3.4,2.1,1.7,0.5,5.3c-0.8,1.8-4.5,3.4-5.9,4.4
				c-5.1,3.5-10.2,7.6-5.3,13.5c7.7,9.2,27.9,10.2,38.8,11.7c23.2,3.3,45.8,8.7,68.6,13.8c13.8,3,27.2,6.4,40.7,10.5
				c9.7,2.9,23.1,4.7,28.2,14.7c27-25.8,63-39.3,96.3-54.8c36.1-16.8,73.4-32.3,111.6-43.5c33.9-9.9,68.7-13.7,103.7-17.1
				c9.2-0.9,23.5-3.2,31.7,2.5c5.1,3.5,5.3,8.8,1.4,13.5c-2.1,2.5-4.4,1.9-5.7,6.4c-1,3.5-0.5,6.1,0.5,9.6c-2.3-1.8-6.5-0.7-7.7-4
				l-0.1-0.4l-0.1,0.4c-1.6,6.3,9.5,7.2,6.1,14.7l-0.2,0.5c-1.2,2.3-1.2-5.1-2.2-5.1c-2.8-0.1-5.1,6.5-6.3,8.3
				c5.3,0,3.3,3.8,0.4,5.8c-2,1.4-5.4,1.8-7.7,2.9c-4.7,2.3-8.8,5.6-13.6,7.8c-5.2,2.4-9.8,2.5-15.1,3.9c-0.8,0.2-4,1.4-4.3,1.4
				c-0.4,0-0.5,1.4-0.9,1.4c-3.3,0.5-5.8-2.6-9.1-1.4c-1.2,0.5-0.6,3.5-1.7,4.2c-1.2,0.8-4.5-0.2-6-0.3c-3.4-0.2-4-0.7-6.7,0.9
				c-4.7,2.7-7.1,6.4-13.4,7.1c-4.9,0.5-8.1-0.4-12.8,1.4c-4.8,1.9-9.3,2.3-13.9,3.5c-0.6,0.2-0.7,2.2-1.2,2.3
				c-1.5,0.5-3.4,0.1-4.8,0.6c-3.4,1-6.1,2-9.2,3.8c-13.7,8.2-28.9,20.4-39.6,32.2c-4.9,5.4-18.6,18.9-14.2,26.7
				c2.9,5,12.8,7.4,17.7,9.5c7.4,3.1,15,5.4,22.4,8.3c9.3,3.6,17.7,9.2,27.1,12.4c9.1,3,18.9,3.6,28.3,5.3
				c40.8,7,80.7,18.3,121.5,25.3c22.4,3.8,45.2,8.4,67.9,4.8c20-3.2,39.2-12,55.2-24.4c29.1-22.5,49.4-54.5,59.6-89.6
				c2.1-7.3,2.5-25.4,9.3-29.9c5.7-3.7,8.6,4.5,12.3,7.7c6,5.2,14.7,7.3,21.9,10.2c17.8,7.4,33.9,15.2,52.7,20.2
				c19,5.1,38.4,9,57.6,13.2c39,8.5,76.3,16.5,116.4,16.6c39.7,0.1,79.6,1.6,118.8-5.7c34.3-6.4,68.9-23.9,94.6-47.6
				c13-12,23-27.1,33.2-41.4c5.5-7.7,10.6-15.6,14.8-24c3.1-6.2,8.5-15.1,9.1-22.1c0.5-6.3-3.2-5.4-9.4-6c-9.6-1-19.3-1.6-28.9-2.6
				c-19.4-2-38.8-4.5-58.2-6.6c-19.8-2.1-39.5-5-58.7-10.2c-5.8-1.6-10-3.5-14.1,2c-2.6,3.6-2.6,11.8-8,5.8
				c-10.5,13.3-25.9,21.2-40.2,29.5c-15.5,9-30.6,18.9-47.1,26.2c-35.5,15.7-74.5,14.4-112.1,9.4c-38.2-5.1-77-11.7-112.9-26.2
				c-16.5-6.7-30.6-16.8-45.4-26.5c-7-4.6-14.2-8.3-21.6-12.1c-8.3-4.3-13.4-10.6-21-15.6c-5.1,16.5-24.6,22.2-40,22.9
				c-19.3,0.9-34.8-8.3-46.5-23.2c-9.7-12.4-11.6-30.9-26.6-37.7c-17.1-7.7-37.2-10.8-55.5-14.4C985.5,455.3,940,450.3,896.2,451.6z
				 M1124.5,578.6c4.8,2.2,18.9,18.3,7.7,18.6c-7.1,0.2-11.3-8.7-19.1-7.4c-3.5,0.6-8.8,1.8-9.6,4.5c-2.2,6.8,7.8,11.1,12.1,13
				c6.6,2.9,12.1,5.8,15.7,12.4c5.5,10.2,7,26.6-6,31.1c-9.7,3.4-21.7,0.8-31.2-1.9c-8-2.2-14.2-10.5-10.5-18.8
				c1-2.3,3.8-6.5,7.1-4.9c2.6,1.2,1.3,3.6,2.1,5.6c3.2,8.3,27,20.2,32.5,7.6c6.7-15.4-18.8-20-26.5-25.1c-10-6.6-10.3-18-2.6-26.7
				C1102.9,579.1,1114.7,574.3,1124.5,578.6z M1166.5,630.7c-0.4,3.6-0.9,7.4-1.5,11c-0.5,3.1-0.5,6.4-4.1,7.5
				c-2.4,0.7-4.7-1.8-6.9-0.1c-2.5,1.8-1.3-11.6-1.2-12.3c0.7-5,2.1-15.2,6.9-18.3C1167.8,613.2,1167,626.3,1166.5,630.7z
				 M1166,609.7c-8.7,5.5-10.9-10.1-7.5-15.1C1167.1,582,1179.7,601.1,1166,609.7z M990.2,602c2.5,1.8,1.7,0.8,1.7,5.7
				C988.9,607.9,989.4,604,990.2,602z M999.9,597.8c-0.8,1.9,2.9,4.3,4.1,4.6C1004.1,601.8,1002.3,592.3,999.9,597.8z M530.3,569.4
				c-2.3,3.3-1,5.4,2.7,4.1l0.3-0.1L530.3,569.4z M576.5,537.4l-2.2,0.9c-1,1-2.1,2-3.1,3C574.2,540.7,576.3,541.1,576.5,537.4z
				 M588.7,532.7c-1.5-3.1-6.7,3-6.8,4.5C583.1,536.4,590.4,536.3,588.7,532.7z M593.5,521.8c-1.3,1.8-1,3.2,0.8,4.3
				c1.5-2,2.6-4.1,3.3-6.4C595.7,518.2,594.2,520.1,593.5,521.8z M1586,302.3c-3.8,1.7-1.8,7.6-1.4,10.7c1.8,15.1,4.6,30.1,6.3,45.2
				c2.4,21.3,2.8,42.8,6.8,63.9c3.6,19.2,9.8,37.9,13,57.2c2.2,12.9-2,27.9,13.5,31.8c13.9,3.5,29.7,3.7,43.9,5.3
				c18.3,2,36.7,3,55.1,3.9c8.7,0.4,17.7,0.5,26.3,1.8c5.1,0.8,11.4,4.1,15.3-0.6c3.8-4.6,3.8-16.2,5-22c1.6-7.7,3-15.4,3.7-23.3
				c1.7-17.7-0.8-35.3-3.2-52.8c-2.5-18.9-4.5-37.9-7.1-56.8c-1.7-12.2-1.5-31.9-9.9-41.7c-7.6,22.8-9.7,47.1-10.1,71
				c-0.1,5.1-3.4,34.7-12.4,20.3c-2.5-4-2.5-6.3-6.4-9.7c-4-3.5-5.4-6.3-6.7-11.6c-2.4-9.6-2.8-18-8.1-26.6
				c-10.7-17.5-15.1-39.2-31.1-53.3c-0.2,16.4-2.5,34.2,0.5,50.5c1.9,10.2,9.8,24.9,3.3,35c-3.2,5-5.1,3.5-8.9,1
				c-2.4-1.6-2.1-2.4-5.1-4c-2.9-1.5-5.2-1.5-8-3.6c-9.8-7.6-10.6-20.9-13.8-31.9c-7.1-24.3-31.5-39.3-50.2-54.3
				C1594.2,306,1589.1,300.9,1586,302.3z M1216.5,351.5c-14.4,5.7-29.2,7.9-44.4,4.7c0,3.4,4.8,8.8,1.1,10.7c-0.9,0.5-6-1.7-7-2
				c-5.5-1.4-12.9-3.9-18.7-2.7c-6.1,1.2-5.9,5.2-1.9,9.6c5.6,6.3,19.6,6.5,19.7,16.9c0.1,4.5-2.7,10.1-3.3,14.8
				c-0.9,6.9-1.9,13.8-3.5,20.6c-2.8,11.7-7.3,22.8-12.7,33.6c-4.7,9.2-10.3,18.9-19,24.9c-5.6,3.9-3.5,2.2-2.4,8
				c0.7,3.9,0.6,6.8-4.4,5.8c-1-0.3-1.9-0.6-2.9-0.9c11.8,19.3,41.6,31.5,61.9,18.6c-8.6-6.9,3.1-19,8-24.1
				c7.4-7.7,15.1-16.5,23-23.5c12.1-10.7,28-5.5,42.3-10c14.5-4.6,25.1-14.9,34.4-26.4c8.4-10.2,19.4-22.8,20.6-36.6
				c0.2-2.7-1.1-5.9-0.6-8.5c0.5-2.6,2.1-3,2.9-4.7c1.7-3.5,2.1-7.2,2.4-11.2c0.9-13.2-3.3-15.2-15.7-18.7c-7.2-2-14.5-3.5-21.8-5.5
				c-6.9-1.9-13-5.4-19.8-7.4C1240.6,333.4,1229.1,346.4,1216.5,351.5z M1253.4,434.3c11.4,6.9-6.6,11.3-13.2,8.3
				C1231.3,438.4,1247,430.4,1253.4,434.3z M1274.9,376.9c10.3,12.3,21.8,37.4-0.8,42.5c-7,1.6-17.8,4.1-24.8,2.2
				c-10-2.7-7.4-15.8,2.6-16.4c5.9-0.3,19.5,4.3,23.1-2.5c1.9-3.7-2.4-9.7-3.1-13.4C1270.9,384.4,1271.7,380.6,1274.9,376.9z
				 M657.9,413.9L657.9,413.9c0,0.1,0.1,0.1,0.2,0.2l0,0l-0.1-0.1L657.9,413.9z M1295.3,381.3c7.2,0,3.6,15.2,0.1,17.8
				C1289,403.8,1286.3,381.3,1295.3,381.3z M1248,392.8c-8.3,1-6.5-18.9,1.1-19.5C1259.1,372.4,1257.6,391.6,1248,392.8z
				 M1320.1,359.7c-1,2-0.2,21.8,2.2,22.2c0.6-4.8,0.3-9.7,0.2-14.5l0-1.2C1322.5,366.2,1322.9,354,1320.1,359.7z"/>
		</g>
	</g>
</g>
</svg>
