<?xml version="1.0" encoding="utf-8"?>
<!-- Generator: Adobe Illustrator 24.0.1, SVG Export Plug-In . SVG Version: 6.00 Build 0)  -->
<svg version="1.1" id="Layer_1" xmlns="http://www.w3.org/2000/svg" xmlns:xlink="http://www.w3.org/1999/xlink" x="0px" y="0px"
	 viewBox="0 0 3871 2367" style="enable-background:new 0 0 3871 2367;" xml:space="preserve">
<style type="text/css">
	.st0{fill-rule:evenodd;clip-rule:evenodd;fill:#6EE8FF;}
	.st1{fill-rule:evenodd;clip-rule:evenodd;fill:#FFFFFF;}
	.st2{fill-rule:evenodd;clip-rule:evenodd;fill:#093FA2;}
	.st3{fill-rule:evenodd;clip-rule:evenodd;}
	.st4{fill-rule:evenodd;clip-rule:evenodd;fill:#FDEF59;fill-opacity:0.9;}
</style>
<title>composition-10</title>
<desc>Created with Sketch.</desc>
<g id="composition-10">
	<rect class="st0" width="3871" height="2367"/>
	<g id="shapes" transform="translate(-953.000000, -722.000000)">
		<polygon id="Polygon" class="st1" points="953,1905 1859.4,2563.5 1513.2,3629 392.8,3629 46.6,2563.5 		"/>
		<polygon id="Polygon_1_" class="st1" points="4824,0 5730.4,658.5 5384.2,1724 4263.8,1724 3917.6,658.5 		"/>
	</g>
	<g id="Character_x2F_dancing" transform="translate(586.000000, 112.000000)">
		<path id="Accent" class="st2" d="M1638.9,1313.1c-4.2,62.1-88.5,94.4-139.7,107.7c10.2-60.9,23.5-124.1,15.3-185.9
			c-2.7-20.4-6.3-40.6-10.1-60.8c-1.4-7.5-2.9-14.9-4.4-22.4c-0.4-1.8-3.3-9.7-2.4-11.5c1.7-3.2,16-2.7,19.6-2.6
			c9.4,0.4,18.6,2.7,27.2,6.5c18.1,7.9,33.3,21.5,45.8,36.4C1619.9,1215.8,1642.1,1266.2,1638.9,1313.1 M1541.3,890.8
			c-48.9,29-107.9,44.5-163.7,52.1c-85,11.5-171.9-1.7-255-20.2c-20.4-4.5-40.8-9.4-60.9-15.1c-0.9,58.9,15.7,114.9,48,164.1
			c26.8,40.6,61.7,74.6,92.2,112.2c28.4,35,51.3,74.5,52.5,120.8c0.5,19.3-1.1,36.9-17.3,49.5c-16.2,12.6-38.2,17.2-58,20.1
			c-49.7,7.2-101.9,3.3-151.3-4.6c-9.6-1.5-19.2-3.3-28.7-5.5c-10.8-2.5-14.5-5.4-23.5,2.7c-19.4,17.4-28.3,43.5-32.7,68.5
			c-8.2,46.8-5.4,101.4,6.4,147.6c11.4,44.5,65.4,69.1,105.3,79.9c120.5,32.4,253.5-12.4,346-92.1c2-1.7,4-3.5,6-5.3
			c6.6,13.7,13.7,27.1,21.6,40.1c5.5,9,11.2,18.1,18.1,26.2c2.5,2.9,5.4,6.8,8.8,8.7c6.3,3.5,12.7,0.9,19.9-0.3
			c52.8-9.2,105.4-21.2,155.6-40.2c76.3-28.9,144.7-76.4,180.9-151.5c18.3-37.9,27.8-79.5,32.4-121.2c5.3-47.9,6.4-96.8-7-143.4
			c-24.7-85.5-87.6-154.8-156.6-208.2C1637.7,942.7,1590.8,912.8,1541.3,890.8"/>
		<g id="Ink" transform="translate(266.209713, 97.510417)">
			<path id="ink" class="st3" d="M2137.5,227.3c-11.2,4.4-23.2,5.7-35,6.5c-9.3,0.7-16.6,4.4-25.4,4.6c-24.4,0.6-49,1.7-73.3,5.3
				c-24.4,3.7-46.9-1.1-66.2,17.2c-6.9,6.5-15.5,14-11.3,24.6c1.9,4.8,4.6,8.3,6.1,13.5c1.8,5.9,4,11.4,6.6,17
				c4.9,10.7,29.6,50.5,9.6,55.4c-21.7,5.3-51.1-0.9-72.1-6.9c-12.2-3.5-24.2-7.7-36.2-11.7c-9.5-3.2-22-5-30.8-10.1
				c-5.8-3.3-7-9.1-10.9-14.5c-7-9.9-13.5-18.3-22.6-26.5c-18.8-17-42.2-28.6-65.3-38.8c-1.5-0.7-4.2-2.2-5.8-2.3
				c-1.7-0.2-3.7,1.6-4.8,1.4c-3.1-0.6-4.2-2.5-7.5-4.5c-4.5-2.6-23-11.1-26.2-4.4c3-8.8,5.2-6.3,13.4-5c3.6,0.6,6-1.1,9.3-0.9
				c3,0.2,4.2,1.8,6.7,2.3c4.6,0.8,8.8,0.2,13.6,0.2c1.3-2.8,3.1-2.8,5.5,0.1c1.3,0.4,2.6,0.9,3.9,1.3c4.7,1.3,9.8,1.1,14.7,1.4
				c7.3,0.6,26.3,9.5,30,0.5c3.9-9.6-8-12-9.9-18.7c-1.9-6.6,7.1-10.5,10.7-14.4c4.1-4.5,6.7-8.5,11.5-12.5c2.8-2.3,6.6-4.5,8.7-7.6
				c1.9-2.9,1.9-7.5,4.4-9.9c3-2.8,3.5-0.9,6.2-2.3c5.3-2.7,3-2.6,6.1-6.3c2.7-3.2,4.7-3.1,8.2-5.5c5.2-3.5,7-10.5,12-14.3
				c3.7-2.8,9.5-2.8,12.8-5.7c1.9-1.7,1.3-4.5,3-6.1c3.2-3.1,5.3-1.8,9.3-2.9c6.6-1.7,8.8-5.4,13.7-9.6c4.5-3.9,7.3-3.9,12.9-5.5
				c7.6-2.2,12.6-8,19.5-11.3c6.5-3.2,13.2-5.4,19.8-8.8c4.7-2.4,9.3-4,13.6-6.5c1.5-0.8,1.6-3.9,3.5-4.4c2.2-0.5,3.9,3.1,6.2,3.3
				c4.8,0.4,10.3-5,13.5-8.1c1.4-1.3,3.2-5,5-5.7c3.7-1.6,5.9,1.5,9.2,0.3c4.6-1.7,2.8-6.8,5.6-9.6c2.5-2.4,7.8-2.3,12.2-1.5
				c17.8,3.1-9.9,15.7-15.1,18.2c-8.8,4.3-72.5,35.4-57.6,51c7.9,8.2,27.1,2,35.7-0.1c15-3.8,30.7-11.1,46.1-12.8
				c1.9-0.2,7.6,1.2,9.1,0.6c3.5-1.3,2.6-4,5.5-5.4c4.3-2.1,13-2,17.4-1.5c3.4,0.4,7.1,2.4,10.6,2.1c3.8-0.3,7.5-2.5,11.3-3.2
				c6.5-1.2,13.2-0.6,19.7-0.4c9.4,0.3,28.2,1.7,14.5,14.2c-11,10.1-30.2,14.5-44.1,18.9c-20.6,6.5-40.9,12.4-61.2,19.9
				c-13.9,5.1-43.5,13.9-26.9,32.9c1.6-1.5,3.3-3.1,4.9-4.6c1.9,1.9,3.9,5.7,7,5.8c2.6,0.1,1.6-2.7,4-3.5c7.6-2.7,18.1-2.5,26.1-3
				c20.1-1.3,40.2-3.9,60.4-4.8c19-0.8,38.2,0.2,56.8,4.2C2110.1,208.7,2154.8,220.4,2137.5,227.3L2137.5,227.3z M1972.8,422.2
				c1,8.5-2.7,15.3-3.8,23.5c-1.3,9.9-0.3,18.6-3.1,28.4c-5.4,19.1-9.3,38.6-15.2,57.6c-10.3,33.5-27,63.1-44.1,93.5
				c-8.7,15.5-21.9,28.3-33.9,41.3c-12.3,13.3-22.2,26.4-36.9,37.3c-29.4,21.8-61.2,41.2-96.1,53c-36.5,12.3-74.9,16.1-113.2,14.5
				c-17-0.7-35,1-51.8-1.7c-17.8-2.9-37.1-6.5-54.6-10.8c-32.1-7.9-63-21.4-94.4-33.4c-35-13.4-66.5-30.6-98.5-49.9
				c-8.4-5.1-17.4-7.5-25.3-13.7c-6.7-5.2-13.3-10.2-20.3-15c-8.1-5.5-15.8-11.5-24-16.7c-4.9-3.1-11.8-6.2-14.4-11.8
				c-3.6-7.7,0.7-17.5,2.9-25c2.9-9.8,6-19.4,9.4-29c5.9-16.2,20.8-41.2,12.6-58.4c-17.3,10.7-25,31.8-32.4,49.8
				c-8.8,21.4-15,42.8-16.3,66c-2.7,46.7,5.1,95.9,22.1,139.5c2.5,6.5,6.9,13.5,3.7,20.4c-3.4,7.3-12.7,13.4-19.8,16.5
				c-22.5,9.9-45.1,12.8-68.7,18.3c-6.4,1.5-13.4,6-19.4,6.6c-4.1,0.4-7.4-0.9-12.1-0.9c-4.7,0-8.3,2.6-12.5,2.9
				c-3.6,0.2-6.9-1.9-10.4-1.7c-7.8,0.5-9.2,13.8-13.1,2c-0.7,0.5-4.6,4.9-5,4.9c-1.1,0-3-3.3-4.1-3.8c-2-1.1-4.7-1.2-7-1.5
				c-5-0.7-10.5-0.7-15.4,0.4c-9.2,2.1-18.5,1.2-26.3,1.1c-1.8,0-3.1,1.4-5.3,1.3c-1,0-2.5-1.8-3.6-2.1c-6.2-1.6-12.7-0.4-19-0.8
				c-14.9-0.8-29.3-1.2-43.8-4.5c-29.8-6.8-60.2-8.1-90.1-14.3c-15.3-3.1-30.1-4.9-45.2-9c-5.3-1.5-10.7-2.1-15.4-4.1
				c-4.5-1.9-2.7-4.4-9.6,0.7c-3.1-7.6-3.5-6.9-11-9.4c-2.9-1-9.6-3.4-11.8-5.3c-0.2-0.2-4.8-11.8-5.2-13.2
				c-1.9-6.9-0.3-14.9,0.5-21.8c1.8-15.7,4.4-31.4,4.6-47.2c0.1-7,1.3-7.2,3.5-12.5c0.7-1.6,2.7-1.5,2.8-4c0.2-3.3-3.2-5.6-2.8-9.5
				c0.5-5.2,5.7-10.5,7.6-15.3c2.2-5.8,2.2-12,3.5-18.1c1.8-8.1,5.2-15.6,6.9-23.7c1.5-6.9,1.6-12.3,5.2-18.2
				c3.6-5.9,2.6-10.7,5.5-16.5c2.7-5.4,6-7.3,7.9-13.8c4.4-15.7,11.1-31.1,20.7-44.4c8.4,33.3,17.3,67.6,40.6,93.9
				c9.6,10.8,22,21.8,36.5,25.1c16.4,3.7,29.5-5.9,40.1-17.4c25.4-27.3,35.9-57.7,37.5-94.6c0.4-9.2,0.3-18.4,0.2-27.6
				c-0.1-4.1-2.2-14.6,0.6-18c3.1-3.8,11.8-1.4,16.4-3.9c5.6-3.1,11.8-11.2,9.3-18c15,6.8,29.3,15.7,45.9,17.6
				c6.6,0.7,13.6-0.4,19.5-0.7c-0.2,0,4.6,1,4.8,1c1.2-1.3,2.4-1.7,3.8-1c1.2,0.1,2.1,0.8,2.6,1.9c23.7,2.4,47.6-9.3,67.9-21.8
				c11.9-7.3,24.9-18,28.2-32.1c1.2-5,0.2-9.8,5.4-12.4c4.2-2.1,12.4,0.9,16.9,1.3c15.7,1.2,31.2-0.3,46.5,4.3
				c9.4,2.9,25.7,22.9,32.2,8.8c2.8,2.7,1.3,7.4,4.3,10c2.6,2.3,11.5,3.8,15.1,5.8c5.6,3,8.9,7,13.9,10.5c6.1,4.4,12.4,4.7,18.2,9.9
				c20.3,17.9,44.1,30.9,66.7,45.8c26.9,17.6,50.7,38.4,79.5,52.8c29.5,14.7,58,27,90.3,34.6c14.6,3.5,29.6,6.4,44.6,7.4
				c7.1,0.5,13.8,0.2,20.7,2.4c4.1,1.3,5.5,1.9,9.6,2.1c2.4,0.1,5.8-1.3,8.7-1.2c6,0.1,9.1-0.1,14.5,1.8c6.1,2.2,11.2,3.6,18.2,3.8
				c8,0.2,12.8-2.9,20.1-4.8c5.9-1.5,11.2-0.8,16.4-4c23.4-14.2,42.2-35.8,54.5-60.3c14.1-28.2,24.9-62.5,27.1-94
				c1.3-18.1-2.7-35.7-9.6-52.3c-1.9-4.7-13.6-24.6-10-28.2c4.1-4.1,17.4,5.3,21.2,7.4c11.9,6.5,33.5,8.6,41.9,19.5
				c2.1-4.1,14,2,17.8,3.7c3.1,1.4,4,4,8,4.3c3.7,0.3,7.6-2.7,11-3.6c-2.5,7,5.9,7.3,11.7,7.7c4.2,0.3,8.6-0.4,12.3-0.6
				c7.1-0.5,7.2-2.1,13.7-5.7c-0.3,2.7,0,5.3,0.9,7.8c4.2-6,12.1-1.8,17.7-4.5c-4.1-6.2,13.3-7.9,17.3-6.6
				C1978.8,401.7,1971.9,414.7,1972.8,422.2L1972.8,422.2z M1176.5,845.9c6.7-2,13.5-3.8,20.2-5.7c-5.1,4.7-10.4,13.1-17.7,14.4
				C1170.2,856.2,1166.8,848.8,1176.5,845.9L1176.5,845.9z M845.2,849.2c11.3,1.4,23.6,0.3,33.5,7c-4.8,5.6-8,11.4-16,8.2
				C856,861.7,850.4,854.1,845.2,849.2L845.2,849.2z M1222.6,1153.2c-7.4-6.7-6.4-9.6-3-18.2c1.5-3.7,3.9-15.2,9.5-11.8
				c2,1.2,4.4,13.7,4.8,16.3C1234.8,1145.1,1231.2,1160.9,1222.6,1153.2L1222.6,1153.2z M1264.5,1114.5c-2.6-9.6-2.5-20.1-5.1-30
				c-2.7-10.4-6.1-20.9-7-31.6c39.2,6.9,61.5,45.8,78.4,78.3c9,17.2,17.9,36.3,21.3,55.6c3.3,18.8-2.4,33.1-9.1,49.8
				c-3.4,8.5-9,11.5-15.6,17.2c-5.8,5-8,13.4-14.1,17.9c-4.5,3.3-10.3,5-15,8.4c-4.6,3.3-9.3,6.6-14.1,9.7
				c-5.5,3.5-21.9,16.4-29.3,13.7c-5.5-2.1-3.1-8.8-1.7-13.1c2.9-8.9,5-17.6,6.8-26.9c4.8-24.9,7.5-49.6,8.7-74.9
				C1269.9,1163.9,1271.1,1138.7,1264.5,1114.5L1264.5,1114.5z M1231.7,1226.8c0.6,1.2,3,11.7-2.4,9.5
				C1225.5,1234.8,1231.1,1228.7,1231.7,1226.8L1231.7,1226.8z M1254.8,812.1c4.6-1.9,6.5,3.7,10.5,3.9c5.4,0.2,6.5-5.8,12.2-6
				c13.9-0.4,33.9,12.9,45.2,19.9c-5.5,7-7.8,14.1-5,22.7c2.4,7.6,11.6,16,11.3,24c-0.3,8-10.3,13.2-13.4,20.4
				c-2.9,6.6-4,19.7,4.9,22.6c15.2,5,18.7-23.5,30.2-23.7c4.9-0.1,11.3,9.2,14.9,12c7.9,6.5,16.9,11.2,26.1,15.5
				c6.2,2.9,14.9,8.6,19.5,0.8c3.7-6.2,0.7-16.1-2.9-21.5c-4.1-6.1-41.1-34.3-38.8-36.8c1.2-1.3,10.4,2.3,11.8,3.4
				c2.9,2.5,4,6.6,7,9.2c4.5,4.1,10.3,5.7,15.9,7.5c11.6,3.9,19,17.7,30.3,24.1c6.5,3.7,10.5,10.8,16,16.3
				c7.2,7.2,14.5,14.7,13.5,25.3c-0.8,7.3-1.8,24.4-6,30.6c-4.5,6.7-12,4.1-18.8,5.7c-7.7,1.8-13.9,7.8-12.3,16.4
				c1.6,8.9,8.7,9.6,16.2,9.8c21,0.6,13.3,14,20.6,28.6c4,8,10.6,11.1,15.2,1.8c3.7-7.5-2.9-19.3,1.1-25.7
				c4.9-7.8,30.9-5.7,36.3,0.4c4.1,4.6,6.3,10.9,10.4,15.7c6.2,7.3,8.8,17.5,12.5,26.5c4,9.5,7.4,19.1,10.5,29
				c2.1,6.9,6.7,17.9-4.3,12c-7.7-4.1-13.5-13.4-23.2-13.7c-9.7-0.3-15.2,9.7-12.4,18.5c2.7,8.4,15.2,12.2,16.6,20.7
				c1.6,9.4-14.5,18.9-19.3,25.8c-11.2,15.9-1.8,33.7,16.6,20.3c6.5-4.8,13.4-14.4,20.7-17.4c11.6-4.8,11.6,12.9,17.1,19.4
				c3,3.5,4.1-0.1,2.3,5.2c-0.7,1.9-4,2.5-4.4,4.9c-0.3,1.8,1.3,2.7,1.4,4c0.2,4.6,0.2,5.3-0.8,10.3c-1.1,5.6-0.7,12.5-1.1,18.1
				c-0.8,12.9-1,25.2-2.3,38.1c-0.8,7.2-2.3,21.8,6.1,25.3c-3,4.7-7,17.9-13,16.9c0.5,3.1,0.2,7.1,3.2,9.1c0.7-1.9,1.4-3.8,2.2-5.7
				c1.7,4.3,0.2,4.8,0.1,7.8c0.1-3.7-3.3,5.1-1.5,4c-1.6,1.3-3.7,2.1-6.1,3.8c-3.3,2.4-5.1,5.7-7.7,9c-4.7,5.9-4.4,11.8-8.5,17.9
				c-5.8,8.7-13.3,17.3-19.5,26c-5,7.1-14.5,11.2-18.5,18.8c-2.5,4.8-3.6,10.5-7.9,13.9c-6.2,4.9-14.5,9.5-21.3,14.5
				c-4.3,3.2-7.5,7.5-11.7,10.6c-2.2,1.6-8.6,3.1-8.6,6.3c-8.1-2.3-13.9-10.6-20.3-15.7c-4.3-3.4-14.5-7.8-13.9-14.6
				c0.5-5.5,8.4-12.4,10.2-18.2c1.5-4.9,3.7-14.1-0.6-18.3c-8.9-8.8-19.1,10.1-23.9,15.2c-9.9,10.4-14.1-0.1-22.2-7.6
				c-13-12.1-21.2,0.5-16.6,15.5c2.3,7.6,11.1,14.4,11.7,22.2c0.6,8.5-8.6,12.8-12.3,19.6c-3.5,6.4-5.1,17.7,1.4,23.1
				c7.2,5.9,13.4-1.1,18.1-6.5c3.6-4.2,7.7-13.5,13.6-14c7.4-0.7,19.6,12.8,25.2,16.9c-8.6,2.5-13.7,9.6-21,14.2
				c-9.3,5.9-22.4,7.3-32.8,11.4c-9.8,3.8-18.7,7-28.1,11.7c-11.1,5.6-24.7,7-36.5,11.2c-10.5,3.7-20.5,8.8-31.2,11.8
				c-12.1,3.4-24.7,5.5-36.9,8.6c-10.4,2.6-22.7,5.2-33.4,5.2c-10.9,0-10.7-6.7-14.1-15.7c-4.1-10.7-11-20-15.4-30.4
				c-4.2-9.9,2.1-13.7,8.1-21.2c5.7-7.1,4.2-8.3,11.5-3.2c9.6,6.6,16,2.1,23.5-5.5c6.7-6.7,9.1-12.3,18.7-7.6
				c9.6,4.7,18.7,12.3,29,15.4c8.1,2.4,14.2,0.7,15.5-8.2c1.5-9.6-4-16.4-10.9-22.1c-5.3-4.3-16.7-9.5-18.6-16.5
				c-2-7.4,8.6-18.2,9.8-26.5c1.4-10.5-3.1-18.2-13-10.9c-7.2,5.3-12,16.6-22,17.4c2.8-11.6,8.8-22,14-32.7
				c4.3-8.9,8-19.1,19.7-20.1c3.8-0.3,6.2,0.1,9.8-0.6c4.7-0.9,11.2-1.5,16.3-2.8c11.9-3,22.5-12.2,33.5-17.5
				c2.5,6.8,7,26.1,17.2,14.8c7.6-8.3-0.8-22.7,6.2-32c14.4-19.2,45.9-5.1,64.8-15c8.3-4.3,15-18,3.3-22.1
				c-6.8-2.4-26.4,6.5-30.5-0.1c-2.9-4.7,9.3-23,10.8-28c4.6-15.7,3.8-31.9,3.8-48.1c9.2,3.8,20.9,12.6,30.8,13.8
				c10.2,1.2,12-10.8,9.3-18.6c-3.7-10.9-16-19.8-24.4-26.8c-3.7-3.1-13.4-8-15.5-12.7c-2.1-4.8,0.9-7.2,3.3-11.4
				c3.7-6.6,12.6-23.6,2.9-29.7c-8.9-5.7-14,10.2-19.7,13.6c-9.7,5.8-13-7.4-16.8-14.2c-7-12.2-16.7-23.1-25.3-34.1
				c-7.9-10-12.8-16.8-13.9-29.5c-0.9-9.6-2.8-17.1,8.5-19.3c20.2-3.9,49.7,5.7,66.1-10.7c8.6-8.6,2.5-17.5-8.4-17.1
				c-14.3,0.6-27.8,1.3-42.1,0.1c-7.6-0.6-23.6,1.2-27.4-6.6c-5-10.1,3.4-26.4-5.7-35.2c-11.6-11.3-14.5,14.3-14.9,21.3
				c-0.3,5.1,1,13-2.2,17.4c-3,4.2-8.5,4.1-12.9,5.6c-11.1,3.8-16.9,17.5-2.1,20.4c5,1,11.9-0.4,16,3.2c4.3,3.9,2.7,10.7,3.1,15.9
				c-10.3-12-31.9-6.7-45.9-11.1c-7.4-2.3-8.6-5.5-11.7-12.6c-3.8-8.6-12.3-19.6-12.6-29.2c-0.3-8.1,6.5-14.2,9.6-21.2
				c2.7-6,5.2-15.8,4.8-22.5c-1-16.3-30.3,0.3-36.3,6.6c-11,11.3-24.5,25.9-18.5,41.9c5.3,14.3,8.1,22.4-10.3,21.2
				c-6.7-0.4-20.9,0.9-26.1-1.9c-3.9-2.1-2.4-5.9-2.5-11.4c-0.1-4.7,0.3-11.9-2.8-16.1c-10.7-14.6-13.2,21.7-19.3,25.7
				c-9.4,6.2-29.3-0.3-27.8,18c1.3,16,22.9,9.5,28.9,23.2c2.9,6.6,2.3,14.3,5.9,20.7c5.2,9.1,11.5,8.6,14.9-0.9
				c2.4-6.7-0.8-13.5,1-19.8c2.7-9.1,15.4-8.3,23.2-9.3c9.5-1.2,17.8-3.6,26.8-6.6c11.2-3.6,10.6,2.3,12.4,10.9
				c2.1,10,5.3,19.6,7.3,29.7c1.8,9.4,6.7,19.6,7.5,29c0.6,7.2-1.8,6.5-7.8,10.7c-6.5,4.5-13.7,16.4-21.3,18.3
				c-11.4,2.9-22.9-23.1-33.2-9.8c-4.4,5.7-2.7,17.9,0.4,23.8c4.2,7.8,11.9,9.8,5.4,18.7c-4.8,6.7-10.9,11.9-11.4,21
				c-0.4,8.4,5.3,16.3,14.2,13.9c7.2-2,11.5-9.4,16.9-13.9c9.4-7.7,17.2-0.6,26.8,3.8c7.6,3.4,21.5,5.7,25.3,13.8
				c4.8,10.3-1.4,14.3-10.3,11.3c3.5,11.5-1.1,18.2-2.4,30.1c-1,9.6-3.2,18.4-4.6,27.7c-1.9,12.4-2.1,11.1-14.9,11.5
				c-10.9,0.4-21.4,0.1-32.3-0.4c-9.6-0.4-16.1,0.4-16.5-11.1c-0.2-5.1,3-22.3-7-20.3c-8.8,1.8-6.3,17.6-9.2,23.5
				c-4.3,8.6-11.5,6-19.5,8.1c-8.2,2.2-14.8,8.2-12.7,17.5c2.3,10,11.4,9.3,19.3,11.6c12.2,3.5,9.5,21.5,16.7,31.3
				c2.9,4,6,8,10.9,4.7c9-6,0.5-20.7,2.9-28c2.5-7.7,10.9-6.2,18.8-7.2c11.7-1.5,24-7.1,35.7-7.1c-2.2,6.7-8.5,10.7-10.8,17.7
				c-1.2,3.8-0.1,10.9-1.8,14c-1.8,3.4-7.5,4.4-9.9,9.1c-3.1,6.2-4,12.7-7.6,18.8c-8.5,14.3-15.9,28.8-24.9,42.9
				c-9.4,14.6-19.5,28.4-31.2,41.1c-11.4,12.3-14.8,6.3-24.7-3.7c-4-4.1-12.5-8.8-13.6-14.9c-1.1-6,3.9-10.9,6.6-15.8
				c3.6-6.5,10.1-17.6,8.5-25.4c-3-14.6-16-1.2-21,4.3c-8.6,9.5-13.5,19.6-26.5,12c-8.4-4.8-18.9-18-29.9-13.2
				c-10,4.4-7.2,17.3-1,23.8c3.4,3.7,8.3,5.7,12,9.2c7.9,7.4,3.4,9.4-0.2,17.6c-2.9,6.8-3.4,20,2.1,25.7
				c10.7,11.1,18.9-11.3,28.8-11.7c4.7-0.2,24.2,12.6,25.6,17.2c2.4,8.1-18.6,17.7-24.2,21.5c-13,8.8-27.1,17.8-41.7,23.6
				c-17.2,6.9-4.4-14.8-13.8-22.1c-12.3-9.4-13.2,16.3-14.5,22.7c-3.3,17-21.3,17.4-35.8,21.7c-9.2,2.7-18.5,5.5-27.8,7.9
				c-7.9,2-16.8,1.9-24.4,4.4c-6.7,2.2-11.3,6.5-18.8,6.6c-2.4,0-4.6-0.8-6.9-0.9c-4.8-0.1-9.1,2.6-13.7,2.3
				c-7.6-0.5-4.3-2.9-6.9-8.1c-2.5-4.9-8.8-6.8-13.6-8.3c-14-4.4-25.7-0.5-27.7-18.4c-0.6-5.5,0.2-27.9-10.2-25.3
				c-12.2,3.1-1.5,29.8-9,36.5c-3.7,3.3-9.2,1.6-13.6,2.6c-7.3,1.6-10.5,7.1-18.4,6.7c-6.7-0.3-13-3.3-18.8-6.2
				c-8.7-4.4-19.1-7.3-26.4-14.1c-10-9.2-14.3-23.6-18.6-36.1c-6.3-18.4-8.9-36.7-9.9-56c-0.4-6.7-3.2-11.5-4.4-17.6
				c-1.3-6.6,2.5-7.9,3.3-14.1c0.8-6,0.4-12.5,1.7-19c1.8-9.3,2.5-18.8,4.2-28.2c2.9-15.4,7.4-30.8,11-46.1c1.1-4.8,3.2-20,9.1-21.4
				c4.3-1.1,14.3,5.4,18.3,7.3c7.9,3.7,14.7,8.9,23.2,11.5c4.4,1.3,9.9,1.2,12.8,5.3c4.5,6.4,0.9,19,2.8,26.6
				c2.3,9.3,9.9,13.3,16.1,3.9c3.3-5,2.4-10.9,2.8-16.4c0.6-7.9,0.8-9.9,9.4-9.3c8.7,0.5,17.2,3.8,26.1,4.2c8,0.4,16.1,0.1,24.2-0.3
				c19.5-1.1,37.4-4.2,55.7-11.2c12.4-4.7,26.8-15,40.5-14.6c19.3,0.5,14.1,18.4,16.7,31.7c1.6,8.1,15.2,33.1,20.4,12.8
				c2.6-10-6-24.6-0.9-33.7c6-10.7,28.2-1.8,38.3-4.3c8.2-2,21.8-13.6,16-23.5c-2.7-4.7-8-3.8-12.8-4.2c-9-0.7-17.8-1.9-26.7-3.2
				c-5-0.7-12.8-1.2-14.8-7c-1.7-4.9,6.3-17.7,8.1-22.4c5.8-15.6,7.8-28.3,7.9-45.3c0-7.7,0.5-15.7-0.7-23.3
				c-0.5-2.8-4.6-11.8-2.7-14.5c2.6-3.6,8,1,10.2,3.6c4.3,5.3,2.8,4.9,0.4,10.4c-3.6,8.1-10.6,25.2,1.3,31.4
				c12.4,6.5,16.8-15.6,28.5-13.1c5.5,1.1,10.8,8.3,15.2,11.7c5.1,3.9,10.7,8.1,16.8,10.5c9.9,4,21.1,1,17.1-11.5
				c-3.2-9.8-13.2-18.1-20.3-25.1c-11.4-11.1-10.9-15.8-3-28.9c3.3-5.5,16-28.8,1.3-30.6c-7.8-1-16.2,11.6-20.3,16.4
				c-7,8.3-11.1,11.8-21.5,5.2c-10.2-6.5-15-11.9-27.4-12.5c-14.2-0.7-20.7-22.1-28.2-33.1c-20.5-29.9-51.9-44.6-78.4-67.5
				c-12.9-11.1-21.6-25.7-31.4-39.5c-4.7-6.5-10.7-12-14.5-19.1c-2.4-4.5-8.9-15.3-7.2-20.6c2.1-6.6,13.5-10.6,18.2-15.3
				c4-3.9,6.1-8.8,12.3-7.3c5.5,1.3,10.5,8.8,15.1,12.1c4.5,3.2,9.5,6.2,14.4,8.7c8.9,4.4,19.7,6.7,20.2-6.6
				c0.5-11.5-10.1-23.9-17.6-31.6c-5.5-5.7-13.9-10.6-12.8-19.6c0.5-4.5,4.3-12.4,6.5-16.1c7.6-12.9,30.9-5,43.5-4.2
				c15.2,1,32-1.6,44.1,9.2c3.9,3.5,13.1,10.4,15,15.3c2.3,5.7-1.4,8.2-3.5,13.8c-2.6,7.1-4.5,21.2,3.2,26.1
				c12.7,8.2,19.3-16.1,32.5-10.8c12.5,5,21.3,19.5,35.6,21.8c18.7,3,8.1-20.2,1.6-27c-8.4-8.8-24.7-18-19.4-31.1
				c1.5-3.7,5-11.5,8.1-13.9c6.1-4.5,16-2.1,23-2c17.7,0.2,34.4-1.3,51.8-4.4c5.2-0.9,6.4-1.7,10.1,2.2c5.1,5.4,7.8,12.4,13.7,17.7
				c-8.6,9.2-21.3,20.2-15.3,34.4c5.1,12.3,16.4,6.2,24-0.3c3.6-3.1,7.3-9.6,12-10.8c6.2-1.6,13.1,4,18.1,6.8
				c7.6,4.3,23.7,16.9,32.3,9.4c11.4-9.9-2.1-24.7-9.9-30.8c-4.7-3.7-11-6.3-15-10.9c-5.3-6.1-2.2-6.9,1-12.4
				c5.9-10,3.7-22.8,13.1-30.6c5.2-4.3,12.7-7,18.6-10.2C1242.8,820.6,1249,814.5,1254.8,812.1L1254.8,812.1z M1350.6,850.9
				c-2.3-1.4-4.6-2.8-6.9-4.2C1348.9,844.1,1352.4,844.4,1350.6,850.9L1350.6,850.9z M1476.7,972.1c0.9-4.7,4.5-13,9.5-8.6
				c3.2,2.8-0.3,13.3,7.3,10.4c0.4,6.7-4.6,6.1,2.8,12.1C1486.9,984.9,1474.1,985.3,1476.7,972.1L1476.7,972.1z M1116.3,1536.7
				c2.3-6.3,2.3-16,9.5-10.3c0.4-7.6-1.4-31.7,12.4-30.7c5.6,0.4,5.6,5.4,7,9.7c2.6,7.5,7,14.3,10.7,21.3
				C1142.2,1527.2,1128.5,1530.3,1116.3,1536.7L1116.3,1536.7z M1120.8,1623.2c7.8,5.9,11.7-1.1,19.1-3.6c6.8-2.3,13.9-0.9,21.4-2.6
				c9.4-2.1,20.4-1.8,29.5-1.8c2.3,0,7,0.3,9.2,0.6c4.1,0.5,3.8,1.3,8.1,2.5c1.7-0.4,3.3-0.7,5-0.8c2.1-0.1,3.7,0.8,4.9,2.6
				c3.9,1.3,5.3,0.4,9,1.3c8.8,2.2,15.4,7.5,21.1,14.5c11.7,14.3,12.1,35.8,11.8,53.6c-0.1,5-0.5,10.1,0.1,15.1
				c0.5,4.6,3.8,11.6,2.4,16.2c-2,6.9-8.3,5.4-15.6,5.7c-4.3,0.2-8.6,2.9-12,3.2c-3.3,0.2-4.6-1-8-1.7c-8.7-1.9-19,0.8-27.6,3.2
				c-8.8,2.4-16.6,4.8-25.5,6.6c-5.8,1.1-11.1,1.8-16.9,2.5c-4.8,0.6-6.9,3.1-11.1,4.2c-4.1,1-8-0.5-12.1,0.3
				c-5.6,1.1-9.5,5.2-14.5,7.2c-7,2.8-18.2-1.4-21.3,7.3c-1.2-8.3-9.2-6.1-15.2-6.8c-9.8-1.2-19.5-5.6-28.9-8.4
				c-7.7-2.3-34.5-23.5-39.6-14.9c0-0.9,0.9-5.8,0.1-6.4c-2.9-2-2.8-0.9-5.9-2.2c-4.7-1.9-6.7-3.7-10.1-6.9
				c-6.8-6.6-16-10-23.1-15.9c-18-14.9-24.2-45.7-28.6-67.1c-5.7,10.2-3.6-2.9-2.6-7.2c2.4-10.3-0.7-15.4-1.4-25.3
				c-0.6-9.2,3.5-11,11.8-11.9c10.2-1.2,20-2.8,30-5.4c9.5-2.4,18.9-5.2,27.4-10c7.9-4.4,16.1-6.2,24.2-10
				c8.9-4.3,17.6-8.8,26.5-12.9c4-1.9,21.8-15.3,24.9-14.5c6.3,1.7,0.4,12.8-1.6,15.7c-5,7.5-13.1,10.9-20.4,15.6
				c-6.6,4.2-26.7,24.3-6.3,22.3c13.5-1.3,22.7-15.5,31.3,0.6c3.1,5.7,7.5,10.3,4,16.2c-4.9,8.2-19,12.1-26.4,17.7
				c-6.3,4.7-19.2,26.9-6.2,29.3c3.7,0.7,9.5-0.2,12.3-3.1c1.9-2,1.7-6,3.6-7.3c2.7-1.9,7.9,0.5,11-0.6c4.4-1.5,5.4-3.9,7-8.1
				c4.7,2.1,4.7,5,10.1,2.2c1.8-0.9,2.4-4.3,4.5-5.2c2.8-1.2,3.6,2.7,5.1,2.2C1119.5,1629,1119.5,1627.3,1120.8,1623.2
				L1120.8,1623.2z M840.3,1557.9c-7.8,0.6-16.4,1.2-23.1-3.8c8.1,0.5,15.3,2.3,23.4,0.6c3.2-0.7,8.4-3.7,11.7-2.7
				C864.2,1555.9,843.5,1557.6,840.3,1557.9L840.3,1557.9z M818.6,868.6c-0.1-2.8-2.5-39.8,10.2-25.3c3.5,4-0.3,9.3-0.8,13.7
				c-0.8,7.4,1.8,14.9,5.7,21.1c3.6,5.8,10.5,10.9,9.4,18.5c-0.9,6.7-7.6,12.4-10.9,17.9C824,901.7,819.2,884,818.6,868.6
				L818.6,868.6z M790.7,479.4c-29.4,3.1-58.6,8.6-86.9,17c-27.8,8.3-53.7,21.2-79.8,33.6c-5.4-23-11-46-16.3-69.1
				c-2.6-11.1-5-22.2-7.4-33.4c-1.7-7.9-7.9-22.7-5.3-30.5c1.4-4.1,3.2-4.1,6.1-6.7c1.8-1.6,4.9-5.4,6.8-6.2
				c4.6-2,16.2-3.7,20.9-3.4c4.2,0.3,6.5,1.9,10.8,0.7c3.7-1,6.8-3.9,10.3-5.5c8.9-4,20-5.3,29.5-7.4c9.1-2,18.6-2.5,27.7-4.5
				c8-1.8,11.8-7.7,18.7-7.5c17.8,0.6,37.5-1.5,55.2-5.8c19.8-4.8,41.4-3.9,61.7-4.4c8.1-0.2,13.8-2,13.8,7c0,11-4.4,23.4-6.6,34.1
				c-5,23.8-9.2,47-11.1,71.2c-0.9,12.1-5.9,11.3-15.7,15C812.3,478,802.4,478.2,790.7,479.4L790.7,479.4z M636.4,723.9
				c7.2,1.1,6.4-18.7,6.9-22.7c17.2,32.5,36.7,63.8,51.9,97.4c3.6,7.9,6.8,15.9,10.5,23.6c2.6,5.3,8.3,12.4,8.2,18.6
				c-0.1,6.4-5.4,8.9-10.8,11.3c-5.9,2.6-8.2,3.9-12.4,0.9c-5.1-3.6-9.3-14.8-12.4-20.1c-4.8-8.2-9.3-16.5-14-24.8
				c-8.5-15-18.5-29.3-25.4-45c-6.5-14.7-16.4-27.4-23.4-41.8c-7-14.3-16.5-27.9-24.5-41.9c8-3.3,18-11.7,27.2-11.2
				c9.4,0.5,9.2,9.6,9.6,17.2C628.1,693.3,625.4,722.3,636.4,723.9L636.4,723.9z M659.5,870.9c-4.3,5.1-14,8.1-20,10.9
				c-8.2,3.9-16.7,7.4-24.9,11.4c-26.9,13.1-53.7,25.1-81.1,37.2c-14.2,6.2-28.2,12.9-42,19.8c-7.2,3.6-23.2,16.4-31.5,16.7
				c-9.6,0.4-9.8-18.9-11.9-26.2c-1.8-6.1-5-10.8-7.3-16.5c-0.9-2.3-0.2-4.1-1.6-6.4c-1.6-2.6-5.9-4.8-8.2-7.1
				c-9.5-9.7-17.5-22-25.5-33c-7.4-10-20-22.5-23.5-34.8c-7-24.1,33.5-37.4,49-47.1c27.1-17,54.4-34.4,80.2-53.2
				c11.8-8.6,23.3-17.5,35.1-26c5.5-4,20.8-19.4,27.9-13.9c2.6,2.1,2.7,7.7,3.8,10.7c2.4,6.5,6.1,12.2,9.8,18
				c3.3,5.2,8,10.5,10,16.2c2.4,6.9,2.3,10.7,6.8,16.9c8.1,11.2,12,24.1,19.6,35.5c7.3,11,14.3,19.1,19.1,31.4
				c2.7,7,7.1,13.3,10.9,19.8c1.8,3.1,3.7,6.1,5.3,9.2C662.5,866.2,663.6,866.1,659.5,870.9L659.5,870.9z M428.3,965
				c-5.2,3.7-12.8-2.5-17.8-2.6c-2.2,0-4.3,1.7-5.8,1.6c-4.4-0.1-8-3.1-12-4.4c-18.6-6.3-40.8-6.6-56.7-19.4
				c-31.6-25.6-16.5-76.9-10.8-110.1c1.2-6.8,3.3-16.2-2.2-21.7c-6-6.1-15-2.5-20.5,2.5c-5.6,5-9.5,12.1-14.2,18
				c-7.5,9.4-15.6,18.3-23.8,27c-29.2,30.9-60.2,66.4-96.3,89.1c-15,9.4-28.6,22.3-45.1,29.4c-19.8,8.7,0.5-24.8,4.1-30.2
				c23.3-35.6,57.3-63.7,85.8-94.9c5.4-5.9,13-13.8,13.1-22.3c0.1-12.7-11.1-11.6-20-8.1c-8.3,3.3-12.5,11.5-19.2,17.2
				c-8.3,7-18.1,12.7-27.4,18.3c-20,12.2-41.3,22.4-62.4,32.4c-9.9,4.7-19.9,9.2-29.8,13.8c-2.7,1.3-19.1,11.6-18.3,2.7
				c0.1-1.2,10.5-13.8,11.8-14.3c6.4-2.3,9.6,4.7,15.3-4.5c4.1-6.6,4.6-10,10.3-15c1-0.8,1.6-3,2.4-4.4c-0.1,0.5,4.3-3.7,3.4-3
				c1.1-1,2.8-2.9,3.7-4.1c4.5-5.8,13.1-6,17-12.6c1.5-2.5,0.6-5.8,2.4-8.3c2.5-3.5,8-5,11-8.2c2.5-2.7,4.6-4.9,6.2-6.5
				c1.1-1.1,3-1.9,4.2-3.2c3.2-3.2,2.9-6.1,7.4-8.8c4-2.4,5.8-0.2,7.2-6.2c4.9,3.1,4.2-1.4,6.2-4.7c2.6-4.2,5.8-6.1,9.3-9.2
				c7.8-6.8,15.1-16.8,21.7-25.3c16.4-21.2,29.7-45.9,34.6-72.4c1.2-6.3,1.8-12.8,2.3-19.2c0.2-3.4-0.9-11.6,1.2-14.9
				c3.3-5.1,9.4-3.1,14.1-5.4c1.6-0.8,3.2-3,4.7-3.5c2.1-0.7,4.7,0,6.8-0.7c0.8-0.3,1-2.8,2.4-3.1c2.7-0.6,5.5,0.4,8.2,0.4
				c5.9,0.1,11.8-1,17.5-2.9c5.2-1.7,9.5-5.7,14.7-7.1c-0.5,0.1,8.5,0.9,8,0.4c0.4-2.2,0.9-4.4,1.3-6.7c3.4,2.4,15.1,5.6,18.7,5
				c5.8-0.9,4.6-6.1,9.5,0.8c2.8-2.4,5.6-4.9,8.4-7.3c2.1,8.9,16.7,4.6,23.3,5.1c9.3,0.7,16.7-1.1,25.2,2.2
				c10.3,4,19.4,8.1,30.5,9.2c7.8,0.8,11,4.4,18.6,6.7c10.2,3,11,6.4,7.8,16.8c-2.6,8.5-4.8,15-1,23.7c6.7,15.4,25,21.8,36.8,32.5
				c-27.6,19.4-54.9,38.4-81.6,59.1c-11.2,8.6-23.1,17.3-29.5,30.3c-5.9,12-9.2,26.4-12.7,39.3c-8.1,29.5,14.7,49.3,38.2,62.3
				C401.6,918.2,435.1,960.1,428.3,965L428.3,965z M382.8,1000.6c-1.7-5.7-1.4-7.2,4-9.2c2.1-0.8,10-1.8,11.3,1.1
				C401,998.9,385.7,998.9,382.8,1000.6L382.8,1000.6z M615.5,589.8c2,12.6,3.9,25.2,5.6,37.8c1,7,3.2,13.1-2,18.4
				c-2.9,3-10.1,4.1-13.9,5.7c-5.4,2.3-10.7,4.9-15.9,7.7c-9.3,4.9-19,7.8-28.2,12.2c-4,1.9-6.4,5.7-9.8,8.3
				c-4.7,3.6-10.5,5.3-15.4,8.7c-8.7,6-16.7,13.2-25.5,19.3c-9.9,6.9-11.9,4.7-17.5-5.5c-5-9.1-11-13.3-18.1-20.5
				c-2.8-2.8-12.8-18.7-4.3-20c2.2-0.4,9.7,2.9,11.4,4c2.6,1.6,6.7,10.6,8.8,10.8c3.8,0.3,8.6-10.5,11-13.3
				c15.5-18.6,32.5-37,50.4-53.3c9.3-8.4,19.1-16.1,29.6-22.9c7.5-4.8,14-11.6,21.4-16.2c1.6-1.4,3.3-2.3,5.3-2.9
				c3.9-1.8,5.3-0.2,4.3,4.5C614.9,576.8,614.7,584.6,615.5,589.8L615.5,589.8z M277.1,573.3c3.8-3.8,8.5-6.9,11.8-11.2
				c1.8-2.4,3.1-6.7,5.2-8.3c3.7-2.7,9-1.5,13.2-5.1c4.1-3.5,7.8-7.7,11.8-11.4c8.8-7.9,17.8-15.2,26.4-23.2
				c4.9-4.6,10-10.5,14.4-13.5c1.2-0.8,2.4-2,3.7-2.6c2.6-1.3,3.9,0,7.7-1.2c2.5-0.8,4.3-4,6.4-5.5c4.8-3.6,11.1-5,15.7-8.5
				c4.6-3.5,6.9-8.8,13.2-11.7c7.7-3.5,13.5-0.7,19.1-7.4c2.3-2.7,2.9-6.1,6.5-7.9c4.3-2.1,8.1,0.1,12.2-2.2
				c2.8-1.6,4.7-4.9,7.5-6.6c5.1-3.1,10.8-3.4,15.6-7.3c4-3.2,1.8-2.9,6.6-4.3c2.1-0.6,4.4-0.9,6.7-1.6c7.2-2.5,18.9-5.5,23.2-12.3
				c2.2,3.2,2.9,3.8,6.4,2.8c1.8-1.5,3.5-3.1,5.1-4.9c1.1,1.4,2.3,1.5,3.6,0.3c7.6-2.6,14.6-7.1,22-9.6c1.1,0.6,2.1,1.1,3.2,1.7
				c1.5,0.1,2.1-0.6,1.8-2.2c2.9-0.5,6.3-1.8,9-3c5.2-2.3,10.9-7.6,17.1-5.7c10.2,3.2,10.7,24.1,12.5,32.3
				c4.3,20.4,8.7,40.7,13.1,61.1c1.8,8.3,3.3,16.6,5.7,24.8c1.5,5.3,5.3,13.2,4,18.8c-1.7,6.9-8.5,9.2-14.1,12.4
				c-7.8,4.4-15.3,9.3-22.7,14.4c-31.4,21.6-54.7,51.4-77,81.9c-4.1-6-15.2-14.4-22-17.1c-4.8-1.9-9.1-0.4-13.9-2.7
				c-3.4-1.6-6.3-4.9-9.5-6.9c-19.7-12.6-43.6-23.1-66.4-28.1c-46.9-10.3-92.9,5.6-138.4,13.2C252.4,592.4,266.2,584.3,277.1,573.3
				L277.1,573.3z M591.3,228.7c8-26.2,21.6-51.5,40.8-71.2c9.7-9.9,21.1-18.6,33.9-24.1c11.1-4.8,24.4-9.4,24.2,6
				c-0.4,33.4-8.1,66.4-9,99.9c-0.9,32.8,4.6,59.1,24.4,85.5c-12.6,2.9-25.1,5.9-37.7,9c-9.5,2.4-19.4,5-28.4,6.6
				c-8.9,1.6-17.1,2.6-25.9,5.6c-5.9,2-15.2,8.2-21.6,6.9c-10.7-2.2-8.1-40.5-8.7-49.7C581.8,277.4,583.7,253.7,591.3,228.7
				L591.3,228.7z M786.3,279.1c14.6-17.7,29.7-38.3,54.2-41.6c23.7-3.2,32.4,25.3,30.9,44.4c-0.5,6.5-1.5,23.3-6.2,28.6
				c-5.2,5.8-14.5,1.4-21.1,0.5c-28.6-3.9-57.9,2.6-86.6,2.6C767.2,302.1,776.8,290.7,786.3,279.1L786.3,279.1z M903.6,349.7
				c9.9,1.4,17.9,2.9,13.1,14.3c-9.6,22.7-17,44.3-8.6,69c6.4,18.9,26.8,41.8,47.2,45.6c7.1,1.3,17.9-1,22.2,6.2
				c3.9,6.5-0.3,25.8-0.8,33c-1.7,26.7-8.5,53.2-25.8,74.2c-15.4,18.7-34.1,33.3-56.5,15.7c-18.8-14.8-30-41.4-35.6-64.1
				c-3-12.1-3.3-24.2-3.9-36.6c-0.5-11-2.6-17.9,9.8-20.2c3.3-0.6,11.6-0.4,11.6-5.5c0-6.8-9-4.3-12.4-4.6
				c-13.3-1.3-7.1-16.8-5.8-26.7c2.1-17,5.5-33.8,8.6-50.6c2.7-14.3,2.8-33.1,8.6-46.5C878.8,344.9,897,348.7,903.6,349.7
				L903.6,349.7z M928,400c1.5-9.2,2.3-20.8,11.5-25.9c10.1-5.6,15.1,3.5,20.1,11c13.2,19.8,27.8,38.3,29.9,62.9
				c0.3,2.9,1.5,8.8-1.3,10.8c-1.3,0.9-4.3-1.5-6.2-1.3c-10.4,0.8-18,3.5-28.2-2.3C933.7,443.6,924.4,422.3,928,400L928,400z
				 M1006.8,455.3c-2.2-21.5-12.1-40.6-23.2-58.7c-5.5-9-16.1-18.7-19.9-28.2c-2-5.1,1.6-11.3,8.9-9.2c3.7,1.1,10.7,10.8,13.2,14.2
				c6.3,8.6,11.5,18.3,16.5,27.7C1007.6,411.2,1022.7,448.1,1006.8,455.3L1006.8,455.3z M940.8,241.2c1.2-20.2,1.3-43.5,14.4-60.2
				c10.2-13,28.7-18.7,43.8-23.7c20.3-6.8,44.7-7.8,66-5.6c18.7,1.9,32.8,14.7,44.4,28.7c11.7,14.2,20.8,32.6,28.9,49.1
				c2,4.1,19.2,30.7,7.6,30.1c-4.6-0.2-8.6-9.2-12.1-11.9c-2.8-2.1-6-1.8-8.5-3.5c-2.7-1.8-2.1-3.4-4.1-5.6
				c-14.2-15.1-27.2-6.4-42.4,1.6c-0.7-5.3,0.5-15.1-3.9-18.9c-5.8-5-11.8,2.9-15.9,6.9c-3.8,3.6-8.4,10.1-13.2,12
				c-6.2,2.5-4.1-0.2-9.4-2.3c-10.8-4.2-19.1,8.3-24.5,15.6c-2,2.7-5.4,9.6-9,10.3c-3.5,0.7-4-1.8-7-2.7c-8.6-2.6-11,3.5-13.7,11.1
				c-3.1,8.5-5.7,16.8-10.2,24.8c-8.1,14.1-11.5,18.8-5.1,34.4c-9.3,1.4-11.3,2.5-15.9-5.8c-4.8-8.5-6-15.6-5.7-25.3
				C945.8,279.6,939.6,262,940.8,241.2L940.8,241.2z M1156.8,338c9.7,17.6,15.9,42.1,15.8,62.1c-0.1,9.9-0.6,22.2-5.3,31.2
				c-4.5,8.7-13.8,13-22.4,16.7c-20.7,8.9-44,8.8-65.8,4.8c-11.3-2.1-22.3-0.7-32-7.5c-7.3-5.1-16-10.1-18.2-19.4
				c-0.9-3.9,0.5-7.2,0.2-11.1c0.4-1.8,0.2-3.6-0.4-5.4c-1.3-0.7-2.6-1.4-3.8-2.1c-1-2.9,0.9-6.2,0.4-9.2c-0.6-3.7-3.7-6.7-5.1-10
				c-3.9-9.2-1.1-14.4,6.2-20.6c1.8-1.4,3.5-2.8,5.3-4.1c1.6-2.5,3.4-2.5,5.3,0c3.5,0,3.4,1.1,7.1,0.1c8.1-2.4,14.9-11,22.8-14
				c3.1-1.2,7.7-0.2,10.2-2.3c2.2-1.9,0.8-6,2.8-7.9c6.3-6.1,16.1-0.3,21.9-9.1c4.7-7.2,3.7-17.4,4.2-25.6
				c14.5,2.8,20.8,16.7,32.7,23.7c2.4-9.1,2.7-8.9,11.8-11.4C1146.7,324.2,1153.4,331.7,1156.8,338L1156.8,338z M1168,240.9
				c2.7,3.4,4.7,12,0,12.8V240.9z M1180.4,272c22.2,0,36.3,28.1,42.8,45.4c7,18.9,14.5,44.1,1.3,62.5c-5,7.1-11.2,7.7-19.3,6.8
				c-9.8-1.1-14.8-2.5-10.9-12.9c7.2-19.6,1.8-44.4-10.9-60.8c17.5-3.4,6.4-19.4-2.4-25.4C1170.7,280.6,1162.4,271.9,1180.4,272
				L1180.4,272z M674.1,1285.3c-5.2,13.8-10.5,27.6-14.9,41.9c-4.1,13.5-1.7,28.7-6.9,41.7c-3.2-1.6-4.1-4.4-6.8-6.1
				c-1.7-1-4.7-1.5-6.1-2.6c-2.5-2-8.6-9.3-10.2-12.2c-5.7-9.9-1.9-26,1.1-36.1c3.8-12.6,10.2-24.7,18.9-34.6
				c6.1-7,9.4-4.7,17.5-1.3C671.4,1278,676.4,1279.3,674.1,1285.3L674.1,1285.3z M634.6,1394.5c-4.2,8.4-11.9,15.4-16.4,23.9
				c-4.8,8.9-8.4,19-14.6,27.1c-6.2,8.3-11.8,6.9-20.4,10.5c-3.1,1.3-4.4,3.7-6.9,5.5c-4.6,3.5-9.7,5.6-14.6,8.7
				c-3.5-8.5-14.1-51.3-27.6-50.4c-11.7,0.8-5.7,23.2-4.2,29.8c1.3,5.6,2.7,11.3,4.7,16.6c2,5.4,8.1,13.6,5.8,19.6
				c-2.9,7.6-10,7.1-13.6,1.6c-3-4.6-4.5-10.9-6.7-16c-1.9-4.4-10.8-28.7-18.5-24.9c-7.4,3.6,4.1,27.1,6,31.7
				c4.7,11.1,13.6,21.9,1.8,30.8c-17.9,13.6-40,23.8-60,33.5c-11.7,5.7-22.2,13.2-34.5,17.8c-11.4,4.3-24.6,5-35.6,10
				c-2.7,1.2-0.9,2.7-4.9,3.4c-3.3,0.6-9.1-1-12.7-1c-5.9,0.1-11.8,0.5-17.7-0.2c-3.3-0.4-10.9-4.1-9.7,2c-4.7-1.3-6.5-6-9.9-9
				c-3.1-2.6-7-4.1-10.4-6.1c-7-4.3-12.3-9.2-14.4-17.4c-5-19.2,5.5-39.2,18.5-52.6c7.4-7.7,16.2-14.1,23-22.3
				c2.4-2.9,4.1-6.3,7.1-8.6c3.7-2.9,8.8-3.2,12.4-6.2c2.7-2.2,3.5-5.6,6.3-7.6c4.2-2.9,9-1.7,12.9-5.6c2.2-2.2,9.9-12.6,9.4-15.5
				c2.1,0.7,4.2,1.4,6.3,2.1c1.3-6.4,12.4-14.3,17.8-17.4c2.8-1.6,8.1-1.5,10.2-3.2c2.7-2.2,2.5-6.9,4.7-9.7
				c6.2-8,19.2-11.6,27.5-17.2c10.5-7.1,20.7-15.1,30.1-23.5c19.1-17,36-36.7,49.8-58.3c5.6-8.7,10.7-17.5,14.7-27.1
				c2.4-5.9,4.9-16.3,10.9-19.7c6.2-3.5,20.5,1.2,27.4,1.7c10.2,0.7,26.1,0.3,35.3,5.3c9.8,5.4,1.8,9.8-3.2,16.2
				c-7.4,9.4-11.8,20.8-15.5,32.1c-2.8,8.6-3.4,17-5.2,25.7c-2,9.2-1.9,21.6,2.6,30.1C606.9,1369.3,639.3,1385,634.6,1394.5
				L634.6,1394.5z M248.5,1564.3c-22-29.9-3.8-73.8,17.7-97.9c26-29.2,62.9-45.6,93.2-69.3c35.1-27.4,71.1-52.9,102.2-85.1
				c15.8-16.3,29.5-33.9,41.9-52.9c10.6-16.1,18.2-37.5,39.6-39.9c-12.6,15.7-13.3,38.3-23.1,55.8c-10.3,18.5-25.5,33.9-41,48.1
				c-32.7,30-67.9,57.5-103.2,84.4c-18,13.7-35.5,28-53.5,41.8c-16.1,12.3-33,22.9-42.2,41.7c-16,32.4-16.9,80.4,18.5,100.4
				C280.5,1587.5,260,1579.8,248.5,1564.3L248.5,1564.3z M2165.6,214.4c-6.5-13-18.7-17.7-30.9-22.7c-12-5-22.9-11.1-36.2-12.7
				c-5.9-0.7-22.6,1.1-23.4-7.5c-0.6-7.1,16.8-14.3,20.8-19.7c5.9-8.1,10-21.1,7.7-31.3c-2.2-9.7-11.6-12.7-20.3-14.4
				c-27.3-5.4-56.2-1.4-83.6,0.8c3.3-4.7,8.1-8.5,10.7-14.1l4.3,9c2.5-5.2,5.1-10.2,8.2-15c2.1,2.3,4.2,4.7,6.2,7
				c-3.5-12.1,8.2-12,6.9-22.3c-0.5-4-3.2-5.7-3.8-8.9c-1.3-6.3,3.6-10.3-2-16.2c-6.2-6.6-16.4-4-23.6-3.3c-0.9,0.1-2.2,1.9-3.4,2
				c-1.6,0.2-2.6-2-4.6-1.9c-5.4,0.3-10.1,4.5-15.5,5.8c-24.8,5.9-49.6,16.4-73.5,26.2c-24.2,10-48,21.6-69.2,37.3
				c-22.6,16.8-39,38.3-57,59.6c-8.5,10-17.3,19.6-23.7,31.1c-3.3,5.9-6.4,24.6-12.4,27.3c-6.5,2.9-23-5.4-29.6-6.9
				c-15.7-3.6-31.4-5.1-47.5-4.4c-12.8,0.6-26.3,0.2-39.1,1.8c-7.4,0.9-25.8,9.1-27,18.3c-0.5,4.1,4.1,7.5,5.2,11.3
				c1.6,5.8-1,11.9,0.8,17.7c3.7,11.8,20.9,16.1,31.1,19.8c28.4,10.4,57.1,18.4,85.8,27.7c12.4,4,23.1,10.5,34.4,16.9
				c9.4,5.3,17.9,10.7,8.4,20.7c-8.9,9.5-7.8,13.3-5.2,26.4c2.8,13.8,3.8,27.8,7.5,41.5c3.6,13.6,10.5,26.6,9.1,41.1
				c-1.3,14.4-7.3,29.1-12.8,42.3c-5.6,13.3-11.8,26.5-17.9,39.5c-5.6,12.1-11.8,24.4-24.8,29.6c-24.9,9.9-56.8,8.3-82.8,4.7
				c-29.5-4.1-60-11-87.9-21.5c-26.8-10.1-56.3-25.6-78.5-44c-11.9-9.8-24.7-17.1-37.3-25.8c-12.7-8.9-22.4-20.9-33.6-31.5
				c-21.9-20.8-48.8-35.2-76.6-46.7c-31.2-12.9-63.4-11.5-96.4-12.9c5.2-10.2,11.9-20,14.3-31.4c2.6-11.8,0.7-24.7-0.9-36.6
				c-3.1-23-9.1-43.3-23.7-61.9c-6.7-8.5-14.4-15.1-25.5-16.4c-6.7-0.8-19.1,4.4-24-1.3c-2.1-2.5-1.6-7.8-3-10.9
				c-1.2-2.7-3.6-5.5-4.9-8.5c-5.5-12.7-12.5-24-19.4-36c-2.7-4.8-4.9-11.9-8.6-15.9c-2-2.2-4.7-3.2-5.8-4.8
				c-2.1-3-3.1-8.5-4.9-11.9c-3-5.8-6.9-11.2-11.4-16c-7.1-7.7-16.4-14.4-26.2-18.2c-5.4-2.1-9.4-2.6-15.1-2.3
				c-1.7,0.1-3.5,1.1-5.2,0.9c-4-0.3-3.4-1.7-6.6-2.4c-21.4-4.5-50,1.8-70.1,9.5c-21.1,8.1-38.3,18.7-51.1,37.9
				c-31.5,47-24.2,107.7-10.8,159.5c-8.1-2.1-16.1-4.6-24.3-6.4c-5-1.1-11.8-0.9-16.3-3.5c-9.9-5.9-1.9-20.9-1.8-30.7
				c0.2-24.7-11.5-63.4-37-73.9c-26.5-10.9-58.8,19.7-75.2,37c-10.5,11.1-20.1,23.1-30.2,34.6c-7,8.1-16.3,20.9-28.7,18.8
				c-26.9-4.6-18.7-55.8-17.5-73.1c1.9-27.4,5.9-55.1,5.9-82.6c0-16.7-2.9-39.2-23.3-41.1c-28.2-2.7-54.9,22.9-71.3,42.7
				c-43.3,52-52.9,120.7-41.3,185.9c1.7,9.6,7.1,21.4-3.2,27.3c-13.6,7.8-31,12.5-45.6,18.3c-32.7,12.8-62.9,29.9-93.7,46.6
				c-30.5,16.5-60.4,32.9-87.9,54.2c-27.4,21.2-54.5,43.7-79.5,67.8c-12.4,12-24.4,24.5-35.8,37.6c-10.7,12.3-19.3,26.2-30.9,37.7
				c-7.9,7.8-22.4,18.3-24.1,30.2c-1.4,9.6,14.8,16.3,22.2,20.7c5,3.1,8.5,3,8.9,8.4c0.4,6.8-6.7,17.7-9.2,24.1
				c-6.5,16.5-15,30.2-26.1,43.9c-24.7,30.4-54.5,56.2-82.8,83.2c-26.3,25.1-52.1,49.8-71.4,81c-4.7,7.6-16.5,23.3-5.3,30.4
				c2.9,1.8,11.8,3.3,14.7,1.3c3.6-2.5,1.8-6.2,6.1-8.6c-1.1,8.3,36.6-7.9,39.5-9.4c7.9-4.1,15.1-8.8,23.2-12.4
				c4.7-2.1,5.3-5.1,9-7.5c2-1.3,2,0.4,4.6-0.4c2.4-0.7,7.9-1,9.7-3.3c0-0.1,2-5.6,0.3-4.4c6.4-4.5,10.2,2.3,6.4,8.6
				c-11.4,18.8-25.8,32.5-30.2,55.1c-1.6,8.2-4.4,23.4,0.6,30.8c0.2,0.3,1.9-0.5,2.1-0.2c0.2,0.3,2,2.8,2.8,3.5
				c4.4,4.2,4.1,6.1,11.5,5.9c3.3-0.1,9.8-0.5,12.8-2c2.3-1.1,3.4-3.8,5.1-4.8c1.8-1,1.5-1.5,3.2-2.1c0.3-0.1,1,2.8,1.6,2.6
				c3.5-0.7,5-2.8,8-4.4c8.6-4.9,17-10.2,25.2-15.1c8.2-4.9,14.4-11.8,22.6-17.5c8.7-6.1,15.8-10.8,22.6-19.2
				c4.6-5.8,10.2-8,13.3-10.9c3.7-3.4,10.1-16.6,16-18.2c2.7-0.7,4.9,1.7,6.4,0.7c1.7-1.1-0.2-3.2,0.7-4.5c1.6-2.3,1.8-2.7,4.4-4.8
				c3.4-2.7,7.6-3.5,10.5-7c3.2-4,3.6-8.4,7.5-12.1c9.4-8.9,17.8-18.3,27.8-27c-3.9,21.5-7.7,42.9-4.7,64.8
				c2.9,21.2,11.9,30.7,29.6,41.5c3.9,2.4,8,5.8,12.1,7.5c2.5,1,6.4,0.4,8.3,1.2c6.4,2.5,4.2,7.7,5.1,13.6
				c1.4,9.1,9.7,16.1,15.1,23.1c4.5,6,12.7,19.5,20.3,21.5c6.8,1.9,13.3-6.2,19-9.6c8.6-5.1,18-8.8,27-13
				c17.7-8.2,34.8-18,52.3-26.7c8-4,16.1-5.6,24.5-8.1c10.2-3.1,18.8-9,28.6-13c17.5-7.2,34.3-15.8,51.8-23.4
				c36.1-15.7,75.4-26.4,107.5-50c14.5-10.6,33.2-11.8,47.5-22.1c14.9-10.8,5.8-27.3-0.6-40.5c-17.4-36.1-27.9-73.7-51.9-106.6
				c-12.5-17.1-24-34.8-34.9-53c-9.6-16.1-9.4-34.3-11.8-52.5c-1.6-12.1-3.1-24.3-5.1-36.4c-1.3-7.7-5.3-17.4-0.4-24.3
				c5.3-7.5,17.7-10.7,25.6-14.6c9.8-4.9,19.3-10.2,29.5-14.3c23.3-9.5,47.8-16.1,72.2-21.9c7.3-1.7,38.4-14.1,44.3-6.9
				c-7.3,4.9-9.4,13.7-12.7,21.3c-4.9,11.3-9.9,22-13.4,33.9c-7.3,24.5-13.6,49.3-19.5,74.1c-5.9,24.6-13,49.5-14.8,74.9
				c-0.9,13-0.3,25.9-0.3,38.9c0,13.8-2.9,27.4-2.4,41.3c0.3,9.2,1.1,20.3,6.5,28.2c5,7.3,13.5,8.1,20.9,12
				c9.8,5.1,13.6,7.3,13.7,18.5c0.1,13.1-0.7,25.9,0.5,38.9c4.3,45.4,19.5,99.3,50,134.4c2,2.3,61.1,76.9,67.7,66
				c4.5,5.3,11.2,7.3,16.8,11.9c8.7,7.3,17.3,13.2,24.5,22.2c13.1,16.5,24.3,35.8,27.6,56.9c2.8,18.1,1.1,39.8-9.1,55.5
				c-10.3,15.8-32.2,26.1-48.8,33.9c-21.8,10.2-43.9,11.3-67.5,8.8c-11.7-1.3-23.2-3.2-34.8-5.1c-4.8-0.8-10.4-0.8-15-2.6
				c-4.9-1.9-6.5-4.1-11.4-4.3c-3.6-0.2-5.6,0.6-9.5-0.2c-4.8-1-9.9-2.8-14.7-4c-5.3-1.4-9.6-3.3-14.5-5.8c-4.5-2.3-9.6-2.8-13.9-5
				c-7.5-3.8-9.8-10.1-19.9-6.6c-10.7,3.7-8.5,12.9-15.3,19.3c-6.1,5.6-13.6,0.4-19.6-2.9c-8.9-4.9-18.1-9-27.6-12.8
				c-10.2-4-20.7-7.5-31.3-10.3c-11.6-3-24.4-3.6-35.6-8.1c-9.8-3.9-14.1-11.4-21.2-18.4c-7.5-7.4-17.7-10.2-28.1-9.5
				c-18.9,1.2-31.9,21.7-41.9,35.9c-27.9,39.7-58.8,73.6-96.2,104.8c-17.8,14.9-38,27.6-55.2,43c-7.3,6.5-12.6,12.6-21.2,17.5
				c-11.3,6.4-21.6,14.4-32.4,21.6c-42.3,28.1-73.4,69.1-61.7,122.7c5.3,24.1,15.8,41,35.5,55.5c8.9,6.6,17.1,12.1,28.5,11.7
				c10.7-0.4,20.2-0.7,13.9-13.5c8,2.5,14.7,8.6,23.5,11.7c10.1,3.6,23.2,5.9,33.9,6.1c17.1,0.4,37.3-8.7,52.3-12.5
				c4.2-1.1,12.3-2.8,17.1-6.8c3.8-3.1,3-6.9,8.7-8.3c7.5-2,10.4,0.3,17.6-4.2c10.5-6.6,21.8-10.6,32.7-16.7
				c14.6-8.2,28.7-17.5,43.2-26c1.9,5.3,13.3,37,20.3,21.7c6.1-13.3-13.7-24.7-1.7-38.1c11.5-12.8,13.9,0.7,25.1,6.6
				c15.5,8.3,13.2-7.2,8.7-16.3c-1.8-3.7-5.6-9.2-4.5-13.5c2.2-8.2,8.8-3.4,14.1-2.6c8.3,1.3,14.9-0.9,21.1-6.5
				c5.2-4.6,13.7-8.6,16.9-14.7c1.6-3,1.8-7.2,3.1-10.5c1.7-4.3,2.9-3.2,3.6-8.5c-0.6-2.7-0.8-5.5-0.7-8.3c1.4-0.3,2.7-0.5,4.1-0.8
				c0-0.2,0.1-5.5-0.4-4.7c1.3-1.8,4-2.6,5.5-5.2c1.4-2.3,0.1-6.8,0.7-9.6c1.2-5.6,4.4-10.1,7-15.1c5.5,23.3,3.9,47.7,9.2,71
				c4.3,19.2,14.2,36.3,25.7,52.1c5.3,7.3,12.4,12.5,18,19.4c4.7,5.9,7.1,11,14,14.5c4.6,2.3,9.8,3.5,14.6,5.5
				c3.1,1.3,10,7.1,12.9,7c-2.5,0.1,4.7,0.3,3,0c0.1,0-0.9-3.1,0-3.1c10.4,9.9,21.3,9.9,33.4,16c5.5,2.8,7.6,2.6,13.5,3.7
				c7.6,1.3,14.1,5.7,21.4,6.2c11.2,0.7,23.9,2.2,35.6,1.8c3.2-0.1,9.2-2.2,11.7,0.6c1.7,1.8-1.5,15.2-1.7,18.2
				c-2.1,32,2.2,65.5,15.7,94.8c11.2,24.3,23.1,53,42.9,71.5c21.9,20.5,52.7,35,82,40.5c32.5,6.1,64.7,1.5,97.3-0.4
				c33.1-1.9,63.6-6.6,95.5-16.2c29.6-8.9,57.7-20.5,86.1-32.8c19.3-8.3,43.8-20.3,33.6-45.6c-2.4-6.1-11.9-23.1-20.3-14.7
				c-7.4,7.4,5,21.5,10.6,26.2c-42.3,29.5-93.7,39.3-143.3,49.7c-27.2,5.7-54,5.5-81.7,5.6c-23.4,0.1-46.9,0.7-70.2-2.5
				c-21.1-3-45.6-8.5-61.3-23.9c-16.4-16.1-31.9-35.4-43.1-55.5c-12.3-22.1-15.3-45.9-16.3-70.8c-0.5-13.1-1.1-26.4,0.3-39.4
				c1-9.5,5.8-10.6,8.2-18.1c5.6,7.8,9.2,4.9,16,0.4c4.4,12.3,2.4,25.1,1.7,37.8c-0.7,12.4,0.9,24.9,2.4,37.2
				c2.6,20.9,12.6,42.6,25.3,59.4c5.7,7.6,14.3,10.8,22.1,16c9.9,6.7,20.2,12.9,30.5,18.9c19.5,11.3,40.8,21,62.7,22.7
				c7.7,0.6,13.3,4.6,22.5,4c5.4-0.3,10.9-2.2,16.4-2c5.4,0.1,10.1,1.9,15.7,1.5c23.2-1.7,47.2-9.3,70.2-13.5
				c24.9-4.5,50-9.4,73.7-18.3c10.3-3.9,18.8-8.9,24.6-18.6c4.1-7,3-19.4,10.7-23.6c-5-6.5-3.2-7.6,1.2-13.4c2-2.7,8.5-9.8,0.6-9.7
				c2.4-10.4-1.6-20.5-3.3-30.7c-0.7-4.4-0.5-11.1-3.3-14.9c-1.6-2.2-4.2-2.3-5.7-3.9c-1.5,0-2.6-0.6-3.4-1.8
				c-0.1-1.7,0.7-2.8,2.4-3.2c-0.4-3.4,2.2-2.2-0.4-7.6c-3.5-7.4-10.1-13.8-16.3-18.8c-5.3-4.3-9.2-11.8-15.4-14.1
				c-8-3-16.4-6.2-24.8-8.9c-19-6.2-37.9-8.6-57.9-5.2c-9.2,1.6-18.2,3.5-27,6.4c-5.2,1.7-13.1,6.1-17.7,1.3
				c-1.6-1.7-4.9-15.7-4.7-17.2c0.8-6.1,13.3-8.6,17.8-10.7c6.9-3.2,19.8-6.7,24.2-13.2c1.8-2.7-0.2-14.2,0.1-14.4
				c2.9-2,15.1,25.9,18.5,27.8c4.8,2.8,18.3-0.9,23.3-1.4c14.8-1.6,29.9-2.6,44.4-6.1c27.9-6.8,55.2-17.3,82.3-26.6
				c51.6-17.6,101.4-40.9,147.8-69.8c21.7-13.5,43.2-30.7,59.7-50.3c7.4-8.8,12.7-19.3,20.3-28c8.8-10,6-19,9.9-31.5
				c7.9-25.3,17.6-48.4,21.9-74.9c4.5-27.3,6.3-55.3,5.1-82.9c-2.4-54.7-5.1-106.6-29.1-156.9c-22-46.1-50.6-91.1-84.5-129.2
				c-7.9-8.9-16.2-17.3-25.9-24.2c-10.4-7.4-21.9-13.2-31.4-22c-7.8-7.2-14.2-15.7-22.3-22.5c-10-8.4-21.8-12.1-33.4-17.4
				c-11.2-5.1-21.4-11.8-32.8-16.5c-7-2.8-14-5.5-21.2-7.4c-5.4-1.5-12.5-1.6-17.4-4.3c-7.8-4.4-15.7-17.2-20.7-24.5
				c-7.4-10.6-11.4-22.8-14.9-35.1c-4.3-14.9-8.3-30-12.4-44.9c-1.4-5.1-6.8-22.9,3.9-18.6c3.1,1.3,6,6.9,8.4,9.3
				c4.5,4.6,10.2,8.6,15.8,11.7c9.1,5,18.6,11,27.3,14.4c7.7,3,15.6,9,22.8,13.3c1.1,0.6,1.4,2.9,2.8,3.5c3.3,1.5,5.5-2.6,8.6-1.6
				c4.3,1.4,5,5.4,7.3,8.6c3.4,4.6,5.2,5,10.4,7.4c5.8,2.7,10.1,7.9,15.8,10.5c6.9,3.2,22.1,0.7,23.1,11.6
				c10.7-7,24.2,6.6,30.9,13.7c6.7-10.4,18.7,1.8,28.9-1.7c-5.6,7.8-4.6,7.1,4.3,8c7.5,0.8,12,5.8,19.5,8.7c5.1,2,10.8,5.4,16.2,6.8
				c5.1,1.3,8.9-1.7,13.3-0.9c3,0.5,5.9,3.1,8.8,3.9c3.7,0.9,8.9,2,13,3c5,1.2,10,0.1,15.1,1c5.9,1.1,10.9,4.6,16.9,5.7
				c6.6,1.3,13.5,0.4,20.1,2c6,1.5,9.7,3.2,15.9,3.2c9.3,0.1,19.7,1.3,28.8,0.3c4.9-0.6,7.6-3,13.1-0.6c3.7,1.6,5.9,6.6,10.9,4.3
				c-5.3-2.1-0.6-10.4,5.2-4.1c1.4-3.6,2.3-5.5,6.1-6.7c-0.2,3.5-0.8,7,3.7,7.7c0.3-2.4,0.7-4.8,1-7.3c9.7,7.3,11.9,9.9,21,1
				c-0.2,2.9-1.5,6.3,1.5,8.3c1.9-3.2,3.8-6.3,5.7-9.5c3.2,10.2,18.6,6.7,26.1,4.9c2.9-0.7,10.9-1.8,12.8-4.2
				c1.3-1.6,1.2-2.9,1.6-3.9c0.4-0.9-4.5-3.1-0.3-4.4c3.1-1,5.6,5.9,9.3,5.7c3.3-0.2,4.6-5.8,7-7c0.2-0.1,1.8,2.2,2.9,1.7
				c1.7-0.8,2.7-2.9,4.6-3.7c4.1-1.6,9.5-1.2,14.1-3.1c5.9-2.4,11.8-3.6,17.8-5.6c7.6-2.5,11.1-7.5,17.2-11.6c1.4-1,3-0.4,4.4-1.1
				c1.9-0.9,3.9-3.1,6.2-4.1c7.2-3.2,13.3-5.3,20.1-9.7c6.1-3.9,14-6.8,19.4-11.5c4.5-3.9,6.9-9.6,11.4-13.6
				c6.5-5.7,23.2-12.8,20.5-24c10.8,1.7,13.5-5.4,17.5-13.1c3.8-7.4,11.5-9.6,16.6-16.3c2.2-2.9,5.7-6.9,6.9-10.2
				c0.7-2-1.1-4-0.6-5.4c2.2-6.2,10.9-8.9,14.9-14.5c5.1-7.1,6.7-16.1,11-23.4c0.8-1.4,2.9-2.3,3.7-3.8c0.5-1-0.6-3.4,0.1-4.4
				c1.5-2.3,3.8-3.1,5.3-5.2c3.6-5.1,4.3-12.4,7.5-18.3c0.8-1.4,3.6-5.4,3.9-6.3c1.2-2.9,0.8-4.8,1.4-7.9c0.2-1,2-6.5,2.4-7.3
				c1.2-2.5,2.3-2.8,4.2-5.6c4.6-6.8,7.4-17.5,7.8-25.8c0.2-3.5-1-7.1,0.3-10.5c1.1-2.9,4.5-4.7,5.7-7.7c3.3-7.9,2.8-19.2,3.7-27.7
				c1-9.3,4-18.4,4.8-27.6c0.4-4.4-1.7-8.4-1.5-12.6c0.2-4.8,2.7-5.7,3.6-9.7c1.1-4.6-0.5-9.8,0.5-14.7c0.9-4.5,2.2-8.8,2.6-13.4
				c1-12.2-0.4-24.9-0.9-37c-0.2-4.7-0.8-9.6,0.4-14.3c1-3.7,5.1-7.9,5-11.9c-0.4-12.5-10.4-1.7-16.1-2.5c-6.7-1-7.9-15.9-9.6-21.6
				c-4.3-13.8-8.6-27.7-12.9-41.5c20.4-5.3,41.7-3.8,62.5-5.2c20.5-1.4,40.5-5.9,60.4-10.9c16.8-4.2,35.1-6.7,50.2-15.7
				C2162.6,245.9,2173,229.2,2165.6,214.4L2165.6,214.4z"/>
			<path id="ink_1_" class="st3" d="M181.1,482.3c8.2-4.2,6.1-10.1,12.1-15.6c33.6-30.5,73-57.2,112.5-79.2
				c41.6-23.2,88.3-33,130.9-53.6c5.7-2.8,13.2-7.1,11-14.8c-2.5-9-11.1-4.9-17.2-2.7c-20.4,7.1-42,9.7-62.7,16
				c-44.1,13.3-85.3,36.2-122.7,62.9c-21.7,15.6-42.5,32.8-61.1,52.2c-6.8,7.1-15.9,15.4-17.7,25.7
				C164.2,485.9,171.7,487.2,181.1,482.3"/>
			<path id="ink_2_" class="st3" d="M308.4,1280.5c-0.2-11.2-12.4-7.1-18.7-5.6c-25.6,6.1-48.4,10.8-71,25
				c-42,26.4-73.8,66.4-94.4,110.7c-2.7,5.9-13.8,24.6-4.9,30.2c5.8,3.7,9.4-7,11.5-11c11.1-20.2,25.9-38.1,40.8-55.6
				c33.1-39,73-63.7,120.6-81.7C298.2,1290.3,308.5,1288.7,308.4,1280.5"/>
			<path id="ink_3_" class="st3" d="M1721.1,1004.9c-8.8-17.8-23.1-39.7-42.9-47.1c-10.9-4.1-17.4,2.7-14.2,13.9
				c2.6,8.9,11.2,13.3,17.6,19.2c16.6,15.2,26.8,37.9,32.8,59c6.4,22.3,7.7,46.5,7.6,69.6c-0.1,12.2-3.3,22.8-5.1,34.6
				c-0.7,4.7-1.9,14.9,3.5,17.8c11.9,6.5,17.4-27.2,18.6-33.7c4.5-23.9,4-45.9,0.3-69.7C1735.8,1046.7,1731,1024.9,1721.1,1004.9"/>
			<path id="ink_4_" class="st3" d="M1687.1,150.2c4.8-6.5,1.3-15.6,2.7-23.1c1.5-7.8,6-15.7,9.8-22.5c8.2-14.7,17.4-29.1,27.1-42.8
				c10.1-14.2,22.4-26.2,33.1-39.8c3.6-4.6,10-11.2,8.5-16.7c-2.5-9-8.1-4.6-12.5-0.8c-24.2,20.6-45.5,45.9-62.6,72.5
				c-8.2,12.6-15.9,26.5-18.6,41.4c-1.4,7.7-1.4,15.8,0.9,23.4C1677,146.5,1681.3,158,1687.1,150.2"/>
			<path id="ink_5_" class="st3" d="M197.6,1246.4c12.1-1.1,24.3-1.5,36.4-2.1c9-0.5,19.1,0.1,27.3-4.2c8.3-4.4,4.7-10.9-2.2-11.8
				c-4-0.6-10.7,2.1-14.9,2.3c-4.6,0.2-9.2,0.1-13.8,0.1c-13.5,0-28-0.1-41,4.4c-4.2,1.5-10.7,3.7-12.4,8.6
				C173.4,1253.9,192,1246.9,197.6,1246.4"/>
			<path id="ink_6_" class="st3" d="M303.7,297.8c17.6-2.1,34.6-7.4,51.9-10.7c16.5-3.2,19.3-16.2-0.2-15.6
				C348.8,271.7,285.7,283.6,303.7,297.8"/>
			<path id="ink_7_" class="st3" d="M1757.1,949.2c-11.8-3-5.7,10.1-2,14.2c6.8,7.5,10.5,13.1,12.5,23.1c1.2,5.8,0.1,19,5,23.4
				c4.9,4.4,5.2,1.5,6.1-3.9C1781,990.7,1776.1,954,1757.1,949.2"/>
			<path id="ink_8_" class="st3" d="M1627.3,119.8c3.3-3.5-0.2-19,0.2-23.5c0.5-5.5,1.8-10.1,3.4-15.3c0.8-2.5,4.8-11.3,2.6-14
				c-3-3.8-7.9,2.6-9.5,5.1c-5.1,8.2-6.3,21.9-5.4,31.1C1618.9,106.6,1620.9,126.6,1627.3,119.8"/>
			<path id="ink_9_" class="st3" d="M931.6,1420.8c0.6-8.7,9-14.8,9-24.1c0-10.4-7-15-15.7-8.2c-5.3,4.1-9.4,14.1-16.5,15.4
				c-14.3,2.6-19.9-23.1-34-20.1c-12.2,2.6-5.8,23.5-2.1,30.6c3.9,7.5,11,12.8,8.7,22c-2.7,11-12.1,17.3-8.5,29.8
				c6.8,23.2,21.5,1.5,30.4-5.8c6.3-5.2,10.1-4.3,16.3,0.8c8.4,7,14.8,11.7,25,16.4c9,4.2,17.7,7.1,17.9-6.9
				c0.2-11-8.1-21.9-15.3-29.3C940.7,1435.3,931,1430.6,931.6,1420.8"/>
			<path id="ink_10_" class="st3" d="M774,1386.2c-10.5-11.2-23.8,17.4-32.3,20.6c-13.8,5.1-17-22.4-29.6-21.5
				c-9.9,0.7-9.1,14.8-6.9,21.3c2.3,6.9,9.2,12.6,10.4,19.7c1.8,10.9-18.9,32.7-4.5,43.3c12.3,9,16.9-21.4,32.3-9
				c7.5,6.1,28.7,28.7,39.1,17.5c12.4-13.3-17-36.1-22.4-46.2C752.8,1418.1,789.4,1402.6,774,1386.2"/>
			<path id="ink_11_" class="st3" d="M1028.9,996.5c-3-1.3-7.9,0.9-11.2,0.7c-3.5-0.1-7.2-1.7-10.6-2.3c-7.5-1.3-20.7,0.6-26.1-6.1
				c-5.4-6.8-1.3-20.5-3.6-28.9c-1.3-4.5-2.7-10.1-8.8-8.1c-7.1,2.3-6.9,15.3-7.7,21c-1.2,8.4-2.2,14.8-10.7,17.8
				c-6.2,2.2-12.8,1.1-17.9,6.2c-3.7,3.8-6.2,10.6-3.3,15.5c4.4,7.4,13.8,3.6,20.3,5.9c10,3.6,7.6,19.8,9.6,29.2
				c1.3,6,4.2,22.8,12.8,22.6c11.8-0.4,7.2-24,6.5-30.9c-0.7-7-2.2-12.9,5.6-15.1c6.6-1.8,15.8,1.6,22.6,1.5
				c8.6-0.1,18.7-2.2,23.9-9.9C1033.4,1011.2,1035.3,999.3,1028.9,996.5"/>
			<path id="ink_12_" class="st3" d="M1461.1,1287.3c18.7,1.6,7.4,24.7,19.8,33.8c11.8,8.7,13.4-15.4,13.4-22.3
				c0-16.7,20.3-10.5,32.6-13.3c10.5-2.4,22.1-13.3,9.5-22.6c-9.1-6.7-24.2-3.6-34.7-5.4c-14.3-2.4-10-12-10.4-23
				c-0.1-4-1.5-18.4-6.7-19.5c-9.5-2.1-10.1,24.7-10.7,29.8c-2.7,21.6-17.5,8.4-29.3,19.2C1429.2,1278.2,1450,1286.3,1461.1,1287.3"
				/>
			<path id="ink_13_" class="st3" d="M571.7,885.4c-29.2,23.9-62.4,20.5-89.1-5.3c-11.3-10.9-18.1-21.9-17.1-37.8
				c0.9-14.4,5.1-30.2,16.6-39.9c9.7-8.2,27.9-11.1,40.2-12.2c17.2-1.6,32.5,7.8,44.4,19.4c10.3,10.2,22.4,23.1,24,38.2
				C592.4,863.7,583.4,875.9,571.7,885.4 M576.2,790.1c-26.2-25.2-72.7-22.7-99.7,0.3c-30.4,25.8-35.6,74.4-6.4,102.7
				c30.8,29.8,71.4,26.6,103.9,1.9c17.5-13.3,26.9-30.3,29.4-52.1C605.6,822.2,590.5,803.9,576.2,790.1"/>
			<path id="ink_14_" class="st3" d="M1082.9,355.8c-2.9,9.6-0.9,19.7-0.4,29.5c-8.3-5.2-13.5-14.5-22.4-18.8
				c-4.3,11.8,17,45.6,30.5,34.5C1102.9,390.9,1093.8,362.6,1082.9,355.8"/>
			<path id="ink_15_" class="st3" d="M1126.5,414.1c-6.6,2.5-12.8,1.8-19.3,3c-4.3,0.8-4.9-1.6-5.4,3.3
				c-1.2,10.5,15.8,14.6,23.4,14.4c9.3-0.2,19.5-6.5,18.6-16.7C1142.9,407.5,1133.7,411.4,1126.5,414.1"/>
			<path id="ink_16_" class="st3" d="M1131.9,369.9c-3-2.7-9.9-13-15-11.3c-3.9,1.3-1.1,6,0,8.3c4.3,8.7,12.7,16.1,19.3,23.1
				c-5,1.8-14.5,2.9-12,10.5c2.3,7,12.8,5.9,17.9,3C1159.4,393.5,1140.5,377.7,1131.9,369.9"/>
			<path id="ink_17_" class="st3" d="M1149.3,353.3c1.2,4.8,1.8,9.4-0.8,13.9l-14.4-25.8c-11.6,4.7,8.7,41.9,20.5,37.8
				c8.2-2.8,4.2-20.3,3-25.8c-0.7-2.9-2.3-12.3-6.4-13.2C1143.2,338.3,1148.5,349.8,1149.3,353.3"/>
			<path id="ink_18_" class="st3" d="M556.6,873c-6.7-4.9-17.7,6.6-24.8,6.6c-14.2,0.1-6.5-16.6-15.4-22c-4.6-2.8-24.1,0-21-11.7
				c1.8-7,9.1-2,13-6.3c5-5.4-2.1-9.7-6.5-11.9c1.9-2.6,13.1-3.7,15.9-1.9c4.8,3.1,4.6,12.3,9,17.1c5.8-7.3,2.6-16.6,8.8-23.2
				c2.4-2.6,9.3-4.5,6.6-9.1c-1.6-2.7-8.4-1.8-10.8-3.9c-2.1-1.8-2-7.8-5.3-8.3c-5.4-0.8-5.3,7.5-6.9,9.9
				c-4.9,7.2-26.4,4.7-17.5,19.3c-5.9-3-22.1-5.3-19,5c0.8,2.6,3.9,4.3,4.6,7.3c0.7,2.6-0.8,6.3-0.9,9c-0.3,5-0.7,10.8,3,14.8
				c5.1,5.5,11.8,1.5,17.2,3.9c7.4,3.3,4.7,10,8.6,15.9c5.1,7.7,13,5.4,20.2,3c8.6-2.8,10-3,16.3,4.1
				C554.7,887,562.6,877.4,556.6,873"/>
			<path id="ink_19_" class="st3" d="M568.2,842.8c-7-1.3-4.2-22-12.7-13c-3.2,3.4,0.1,10-3.5,13.6c-2.4,2.4-5.4,1-7.8,2.6
				c-2.1,1.4-2.7,4.2-3.9,6.3c4.5,2,7.9,2.3,12.7,1.4c0,3.6-2.4,14.2,3.7,13.4c5.7-0.7,4.1-11.3,7-14.7c3-3.4,14.8-1.8,16-6.5
				C581.1,840,571.2,843.3,568.2,842.8"/>
		</g>
	</g>
	<circle id="Oval" class="st4" cx="1554" cy="988" r="472"/>
</g>
</svg>
