<svg xmlns="http://www.w3.org/2000/svg" xmlns:xlink="http://www.w3.org/1999/xlink" id="Layer_1" x="0px" y="0px" viewBox="0 0 22.1 41.3" style="enable-background:new 0 0 22.1 41.3;" xml:space="preserve">
<title>1</title>
<g id="f1d121dd-2fd6-488e-ab66-46a3ffdb65e0">
	<g id="a8bf0207-953c-4a3d-9d70-d9875ea768f4">
		<path d="M0.3,30.8c-0.4-0.4-0.4-1.1,0-1.6c0.4-0.4,1.1-0.4,1.6,0l8,8v-36c0-0.6,0.5-1.1,1.1-1.1l0,0c0.6,0,1.1,0.5,1.1,1.1v36.1    l8-8c0.4-0.4,1.1-0.4,1.6,0c0.4,0.4,0.4,1.1,0,1.6l0,0l-10,10c-0.4,0.4-1.1,0.4-1.6,0L0.3,30.8z"></path>
	</g>
</g>
</svg>