<svg id="Layer_1" data-name="Layer 1" xmlns="http://www.w3.org/2000/svg" viewBox="0 0 264.71 227.27"><defs><style>.cls-1{fill:#231f20;}.cls-2{fill:#383334;}</style></defs><title>Artboard 1</title><polygon class="cls-1" points="121.49 227.18 102.6 197.18 53.85 197.18 79.28 152.61 93.28 175.18 128.73 175.18 79.82 90.01 0 227.18 121.49 227.18"/><polygon class="cls-1" points="119.66 129.18 155.78 129.18 124.44 75.17 132.27 62.02 210.35 197.18 194.68 197.18 172.45 159.18 136.59 159.18 176.44 227.18 264.71 227.18 132.47 0 88.75 74.89 119.66 129.18"/><polygon class="cls-2" points="0.51 227.27 20.31 211.1 74.68 113.51 79.7 91.2 0.51 227.27"/><polygon class="cls-2" points="210.19 196.88 217.02 198.69 133.93 52.3 132.4 62.2 210.19 196.88"/></svg>