<?xml version="1.0" encoding="utf-8"?>
<!-- Generator: Adobe Illustrator 24.0.1, SVG Export Plug-In . SVG Version: 6.00 Build 0)  -->
<svg version="1.1" id="Layer_1" xmlns="http://www.w3.org/2000/svg" xmlns:xlink="http://www.w3.org/1999/xlink" x="0px" y="0px"
	 viewBox="0 0 3871 2367" style="enable-background:new 0 0 3871 2367;" xml:space="preserve">
<style type="text/css">
	.st0{fill-rule:evenodd;clip-rule:evenodd;fill:#FFFFFF;}
	.st1{fill-rule:evenodd;clip-rule:evenodd;fill:#FF5678;}
	.st2{fill-rule:evenodd;clip-rule:evenodd;}
</style>
<title>composition-15</title>
<desc>Created with Sketch.</desc>
<g id="composition-15">
	<path id="Path" class="st0" d="M1200.9,0.1c147.7,3.8,216.7,51.6,335.3,122.3c84.4,50.4,186.9-3.8,186.9,124.2
		c241.1-189.3,690.7,299.5,859.7,427.6c178.3,135.1,353.8,294.1,373.5,535.1c5.8,71.4-9,144.5,1.8,215.6
		c8.1,53.5,42,107.1,36.2,162.6c-6.8,64.4-61.3,102-73.8,162.5c-5,24,12,72.1,1.5,91.5c-108.1,198-246.6,360.4-483.7,380
		c-206.5,17.1-434.7-56.6-585.2-200.6c-133.5-127.7-213.2-319.1-247.8-498.1c-6-31,5.4-101.9-4.8-128.1
		c-14.8-38.2-37.2-38.8-55.6-69.7c-48.8-81.9-118.8-236.2-55.5-326.1c-156.1,35.2-274.8-299.1-333.1-396.6
		c-43.7-73-149-130.1-178.3-201.2c-40.1-97.4,104-139.2,54.1-207c-26.7-36.3-170.2-11.6-156.1-102.6
		C889.1,7.4,1144.5-1.3,1200.9,0.1z"/>
	
		<g id="Character_x2F_jumping" transform="translate(1935.500000, 1183.500000) rotate(-12.000000) translate(-1935.500000, -1183.500000) translate(494.000000, 103.000000)">
		<path id="Accent" class="st1" d="M577.2,782.5c5-7.7,4.9-6,13.9-4.4c36.6,6.5,73.2,13,109.8,19.6l0,0l371.7,66.2
			c43.7,7.8,87.4,15.6,131.1,23.3c6.4,1.1,18.9,0.9,24.5,4.4c2.9,1.8,5,7.1,6.9,10c8.1,12.5,16.2,25.1,24.3,37.6
			c45.4,70.3,92.2,139.8,138.5,209.5c51.5,77.5,103.1,155,154.6,232.6l0,0l-216.8-2.8c13.4,8.7,26.8,17.5,40.2,26.2
			c94.5,61.6,189.1,123.2,283.6,184.9c-45,30-90.1,60-135.1,90l0,0l47.9,50.6c-14.9,8.5-29.9,17-44.8,25.5
			c-27.4,15.6-54.7,31.1-82.1,46.7c-9.7,5.5-19.4,11-29.1,16.5c-2.3,1.3-5.5,4-7.9,3.8c-3.6-0.3-10.1-6.5-13-8.4
			c-9.2-6-18.5-12-27.7-18.1c-28.4-18.6-56.7-37.4-84.8-56.3c-69.1-46.4-138-93.4-204.1-144c-30.5-23.4-58.9-47.6-82.8-78
			c-26.3-33.4-47.9-70.4-67-108.3c-16.1-31.9-30.3-64.8-42.9-98.2c-4.3-11.5-15.1-29.9-14.9-42.5c0.1-6.8,6-16.6,8.3-22.8l0,0
			l16.3-44.7c2.8-7.6,8.2-17.1,9.2-25.3c1.2-9.8-3.6-23.3-5.1-33c-0.7-4.7-0.6-18-4.2-20.7c-2.4-1.8-11.4-0.9-14.2-1.1
			c-23.2-1.8-46.5-3.6-69.7-5.4c-62.3-4.8-124.7-9.6-187-14.4c-17.2-1.3-36.4-0.4-53.3-4.1c-12.7-2.8-20.7-13-24.5-24.9
			c-11.4-35.8-22.2-72.2-29.2-109.1c-6.7-35.7-0.2-63.5,14.4-96.6C544.8,837.8,560,809.1,577.2,782.5z M2230.9,1125.2
			c-12.3,46.9-29.5,105.6-65.9,139.6c-13.8,12.9-32.3,21.4-49.1,29.6c-24.7,12.1-50.1,22.9-75.7,33.1c-45.1,18.1-92.4,38.2-140.5,47
			c-13.3,2.4-20.1,0-31.2-8c-18.6-13.4-35.5-29.6-52.2-45.3c-26.7-25.2-52.7-51.3-78.1-77.8c96.3-0.2,195.7-4.6,290-25.3
			C2100,1202.3,2172.2,1169.8,2230.9,1125.2z"/>
		<path id="Ink" class="st2" d="M1247.3,135c23.2,10.3,35.5,39,47.7,59.6c14.6,24.8,27.9,50.8,35.4,78.8c7.7,28.6,8.7,60.1,5.3,89.5
			c-1.5,12.9-5,24.7-8.7,37.1c-4,13.2,2.2,20.8,11.6,30.1c19.5,19.4,44,34.2,58.5,58.1c12.3,20.2,26.5,24,49.6,24.8
			c57.4,2.2,113.6,0.4,170.5,11.3c14.4,2.8,28.8,6.2,43,10c4.7,1.2,9.5,3.4,14.4,3.9c6.9,0.6,8.1-2.1,13.3-4.8
			c22.8-11.7,51.7-0.5,74.5,6c57.5,16.2,111.7,38.3,163.8,67.6c56.3,31.6,116.2,56.2,172,88.7c53.9,31.4,102.2,71,152.5,107.7
			c51.1,37.3,99.5,77.7,146.8,119.8c45.7,40.7,92.9,80.6,133.7,126.2c37.2,41.6,66.6,90.8,86.4,143.2c6.6,17.5,2.5,28.5-18.1,22.7
			c-1.8,17.7-15,25.1-31.7,21.3c5.1,14.8,16.8,34.9,10.1,50.9c-8.9,21.2-34.5,5.8-47-2.5c1.4,17,8.6,44.7-5.5,58.5
			c-21.8,21.3-58.7-5.8-74.1-21.8c-39.4-40.6-64.6-90.8-99.6-134.6c-43.4-54.3-92.2-105.5-141.2-154.6c-3.9-3.9-47.5-50.7-53.8-44.3
			c19,31.5,34.3,66.2,60.9,92.4c12.6-17.7,21.8-9,24.2,8.8c2.8,21.4,6,44,2.1,65.4c-7.8,42.2-34.4,82.4-62.5,114
			c-29.3,33.1-65.7,58.3-104.8,78.5c-22.1,11.5-44.3,22.2-68.1,29.8c-10.7,3.4-21.3,7.3-32.3,9.6c-10.5,2.3-21.9,2.1-31.6,7.2
			c87.2,41.6,183.7,59.1,271.1,99.7c21.1,9.8,63.5,35.2,42.1,63.8c-16.6,22.1-54.2,22.9-78.9,27.3c18.2,17.1,15.5,33.1-8.4,42.4
			c-9.6,3.7-19.6,5.5-29.8,5.8c-6.9,0.2-19-2.3-24.6,3.2c21.7,9.9,51.2,9.3,69,26.7c18.2,17.8-3.5,32.1-19.8,38.9
			c-21.3,9-50.7,18.5-72.4,7.7c-17.2-8.6-33-6.7-52-9c-19.6-2.3-38.9-6.5-57.8-12.1c-71.9-21.4-138.1-61.1-201.6-100.1
			c-63.4-39-122.6-83.3-177.3-133.8c-13.5-12.5-24.7-27.3-38.5-39.4c-14.5-12.7-29.7-13.8-48.3-13.6c-42.2,0.5-84.4-7-126.5-2.1
			c60.6,45.7,124.7,85.9,188.5,127c24.3,15.6,49.8,36.4,78.3,43.2c12.5,3,39.4,5,43.5,20.4c3,11.3-6.6,13.1-12.4,19.3
			c-8.4,8.8,3.4,11.8,12,15.5c10.9,4.6,20.8,6.1,32.6,4.9c18.1-1.9,32.3-1.2,49.2,6.5c26.5,12.2,55,18.8,81.6,30.7
			c11,4.9,13.9,19.7,19.2,29.6c8.4,15.7,18,30.7,27.5,45.7c17.9,28.4,33.3,57.5,58.7,80.1c22.2,19.8,47,37.4,71.1,54.8
			c37.7,27.2,85.7,60.9,73.6,114.3c-12,52.8-66.7,47.1-108.4,37.7c-17.6-4-41.6-15.1-59.3-9.8c-15.3,4.5-25.8,5.2-41.6,1.6
			c-18.4-4.2-36.9-6.9-55.5-9.8c-39-6-78.4-16-115.6-29c-17.9-6.3-32.8-14.6-46.9-27.4c-4.2-3.8-7.2-9.2-12.8-9.1
			c-4.7,0-12,8.4-15.7,11.3c-11.6,9.2-24.3,16.9-37.5,5.9c-8.4-7-15.9-22.2-3.7-29.4c9.3-5.5,26.4,0.8,33.1-9.6
			c7-10.9-8.7-26.8-13.6-35.6c-14.8,10-36.6,30.4-53.8,13.5c-13.8-13.5,1.5-21.6,14.2-25.9c15.7-5.3,33.8-4.6,25.8-25.6
			c-4.5-11.9-11.8-22.6-13-35.6c-0.9-9.9,2-19.4,2-29.2c0.1-17.5-18.7-32.6-35.1-36.7c-10-2.5-13,6-19.2,12.6
			c-9,9.6-20.6,16.9-32.1,23.1c-18.9,10.3-38.7,18.5-58.5,26.8c-13.1,5.5-36.3,12.7-26.9,29.5c13.7,24.5-18.4,12.8-30,7.2
			c-27-12.9-54.2-25.2-80.8-38.9c-54.6-27.9-104.8-62.4-153-100.2c-47.3-37.1-93.5-76.5-136.6-118.5c-20.8-20.4-40.7-41.8-58.5-64.9
			c-19.1-24.9-35.1-51.8-54.5-76.4c-20.1-25.5-40-50.3-53-80.4c-12-27.9-25.7-59.1-25.9-89.7c-0.2-33.9-0.1-64.3,11.1-96.8
			c4.7-13.6,10.3-27.7,18.4-39.5c2.3-3.4,14.6-15.1,12.1-19.7c0.1,0.3-27.9,4.5-30.9,4.8c-18.6,1.8-37.4-1.4-56-3.1
			c-54.9-5.1-110.3-3.2-165.1-10.7c-20.6-2.8-43,0.1-63.1-5.1c-9.5-2.5-11.9-7.9-18.8-12.4c-3.2-2-6.6-1.4-9.6-4.2
			c-3.5-3.3-4.2-8.1-5.8-12.4c-8.2-23-22.1-43.6-30.2-66.7c-9.1-26-8.7-52.9-8.1-80c-13.6,1.1-27.8,1.2-40.6-4.3
			c-10.3,32.3-54.6,31.7-81.8,29.3c-34-3.1-73.9-6.3-91.1-40.4c-20.2-40.1-18.9-88.7-21.4-132.5c-2.9-51.4-3.7-103.5-1.2-154.9
			c2.1-43.7,12.1-89.1,40.4-123.8c25-30.6,68.1-48.5,102.1-20c25.5,21.5,36.7,60.2,38.3,92.4c0.9,16.4,0.1,31.1,20.3,26.6
			c7.8-1.7,14.8-4.6,20.5,3.4c5,7,2.7,17.1-3.7,22.4c-5.8,4.8-17.1,4-21,11c-3.9,7,2.3,18.2,9.7,19.7c8.5,1.6,15-9.3,23.6-4.2
			c7.8,4.6,3.7,13.3-1.5,18.4c-6.2,6-12.2,7.3-7.7,16.8c3.4,7.3,10.2,12.1,13.3,19.9c7.5,19.1,10,46.5,1.6,65.6
			c14.6,1.6,49.7,18.8,61.2,4.9c4.2-5,4.6-12.5,9.1-17.6c5.3-6.1,12.7-8.6,20.5-9.6c16.7-2.1,33.8,3,50,6.3c26.9,5.4,54,10.2,81,15
			c54.4,9.7,109.2,16.4,163.5,26.7c54.1,10.4,107.7,23.4,161.2,36.5c28.1,6.8,56,14.5,84.3,20.4c26.4,5.5,54,9.6,78.6,21.3
			c-4.9-30.1-18.4-57.7-26.9-86.7c-8.7-29.9-11.1-59.7-6.2-90.5c4.5-28.2,11.2-55.6,25.6-80.5c5.8-10.1,12.2-20.1,20.6-28.2
			c6-5.8,14.4-10.6,19.1-17.5c4.6-6.8,3.7-8.4-4.7-11.5c-4.7-1.7-8.9-2.3-13.3-4.7c-4.1-2.2-7.5-6.3-12.3-7.1
			c-11-1.8-27.1,8.9-37.2,12.7c-13.8,5.2-28,9.8-42.7,11.4c-48.2,5.2-105.4-22.8-138.4-56.6c-11-11.3-36.3-37.3-26.1-54.5
			c5.4-9.1,15.1-6.9,23.3-11.1c12.8-6.5,4.7-17.2-1.4-25.7c-16.7-23.2-27.8-49.8-39.7-75.6c-12.1-26.3-28.8-49.8-42.4-75.2
			c-9.8-18.3-21.1-38.7-25.6-59c-5.5-24.8,11.3-28.3,31.8-31.9c65-11.2,128.9-26.4,193.3-40.4c25.7-5.6,51.4-11.3,77.3-16.1
			C1205.4,129.4,1228,126.4,1247.3,135z M1817.4,1682.4c-33.5,1.7-67.2,9.2-68.3,48.2c4.1,74.1,52.3,129.5,103.2,178.7
			c12.9,12.4,25.4,25.6,39.4,36.7c8.2,6.6,17.2,9.6,26.1,14.8c2.2,1.3,5.9,5.6,8,6.2c4.8,1.6,5.2-0.2,9.9-0.7
			c10.2-1.1,12.1,6,19.9,11.9c14.7,11,41.2,9.4,58.5,12.9c16,3.2,79.6,26.2,76.7-7c-2.8-32.4-37.4-48.1-61.7-62.6
			c-34-20.2-69-42-97.6-69.5c-27.2-26.1-44.9-61.9-63.2-94.5c-11.4-20.3-14.5-37.5-17.8-60.2c-1.4-9.6-1.5-12.7-10.9-14.3
			C1832.3,1681.8,1824.7,1682,1817.4,1682.4z M1700.9,1677c-19.4,6.3-34,21.8-43.6,39.3c-4.9,9-7.8,18-9.4,28.1
			c-2.1,12.8-6.8,26.4-3.3,39.3c6.5,23.3,23.5,48.8,36.8,68.8c15,22.5,34.5,47.7,58.2,61.5c22.8,13.3,50.4,16.8,71.5,33.2
			c-1.9-9-10.3-15.7-17-21.3c-9.7-8.2-18.1-16.3-26.4-26.1c-18.2-21.6-33.3-44.9-43-71.5c-9.4-25.8-14.8-54.8-13.6-82.3
			c0.6-13.1,2.8-27,8.5-38.9c3.8-8,10.5-14.8,13.4-23.1C1739.8,1664.8,1710.5,1673.9,1700.9,1677z M1276.6,1039.8
			c-27,3.1-53.8,8.3-81,10.8c-55,5.1-112.1,8.1-162,34.3c-72.5,38.2-156.1,123-130.9,212.4c29.7,105.5,93.2,200.9,172.8,275.6
			c50.8,47.7,106.4,90.6,162.2,132.2c54,40.3,116.4,66.7,172,104.3c3.8-55.5,38.6-106.3,79.9-141.6c22.2-19,45.4-37.1,70.3-52.4
			c12.2-7.5,24.8-13.9,37.7-20.2c9.8-4.8,20.6-11.9,31.7-12.4c-0.2-8.2-20.7-11.2-26.4-13.1c-19.5-6.6-38.3-16.8-56.4-26.7
			c-39.4-21.5-75.8-47.6-112.3-73.6c-17.8-12.7-35.9-25-53.6-38c-15.9-11.7-30-26.9-47-36.8c-17.5-10.2-38.3-12.4-57.9-16.1
			c-23.5-4.5-46.7-9.9-70.3-13.9c-39.5-6.6-76.7-29.9-113.1-45.7c-12.2-5.3-30.9-9.9-40.2-20c-8.5-9.1-6.3-23.2,4.6-29.5
			c18.7-10.8,49.7,3.3,67.4,10.2c32.6,12.8,65,24.3,99.6,30.9c47.4,9,92.5,25.9,140,34.7c51.2,9.5,102.5,19.9,154.6,23.5
			c-12.8-25.3-33.9-46.3-50.4-69.1c-18.9-26.2-37.8-52.4-56.5-78.8c-33-46.4-69.8-93.1-94.9-144.4
			C1307.9,1058.8,1299.4,1037.2,1276.6,1039.8z M1521.8,1716.3c-7.5,1.2-13.2,8.7-18.3,13.7c-15.8,15.4-31.3,30.6-44.2,48.6
			c19.9-8.4,36.2-23.1,55.4-32.7c6.9-3.5,31.4-11.2,26.4-20.9C1538.4,1719.5,1527.3,1715.4,1521.8,1716.3z M1613.2,1654.4
			c-19.5,13.3-39.8,25.2-60.4,36.8c14.4,5.5,28.8,13,40.7,23c5.4,4.5,16.6,17.8,24.4,14.5c7.3-3.1,11.2-21.1,14.8-27.6
			c9-16.6,21.6-32.3,35.2-45.5C1647.5,1641.9,1633.8,1640.3,1613.2,1654.4z M1448.5,929.9c-15.6,4.3-31.1,9.1-46.7,13.5
			c-31.2,8.7-63,16-95.5,16c-4.4,8.1,8.3,21.4,12.2,27.6c10.2,16.3,19,33.8,28.2,50.7c19.7,35.8,41.1,70.2,64.3,103.8
			c23.4,34,44.5,69.6,68.4,103.1c23.2,32.5,48.7,64,73.8,95.1c97.8,120.9,234.1,204.2,368.1,279.1c37.6,21,76.7,39.5,118.3,50.9
			c17.2,4.7,34.7,8.7,52.2,12.3c11.7,2.4,31.3,7.7,42.1,0.1c-33.9-13.4-78.4-18.6-105.8-44.6c-17-16.1,1.6-28.1,18.9-31.1
			c33.5-5.8,68.2,8.8,101-0.7c-8.8-16.1-34-15.3-49.4-19.5c-19.4-5.2-20.1-15-1.6-21.7c22.8-8.2,49-3.8,72.7-5.3
			c11.6-0.7,60.1-2.7,45.4-24.9c-11.5-17.5-39.6-22.4-58-28.8c-25.8-9-50.8-23.2-77.1-30.2c-25.7-6.9-51.8-11.1-77.5-18.3
			c-26.8-7.6-53.2-16-78.7-27.3c-49.1-21.9-94.6-51.5-136.1-85.6c-42.7-35.1-80.2-75.3-114.6-118.5c-18.1-22.7-35.4-46.1-53-69.1
			c-17-22.3-36.3-43.5-49.9-68.1c-15.1-27.2-34.6-52-50.2-79.1c-8.5-14.7-17.6-29.1-25.5-44.1c-5.6-10.7-9.4-26.3-17-35.6
			C1470.2,920.9,1457.7,927.3,1448.5,929.9z M727.2,1274.6c5.2,4.8,4.4,6.8,3.4,12.8c-2.1,12.4-4.3,24.7-5.3,37.3
			c-3.3,43.2,2.8,88,9.5,130.6c6.7,42.6,22.9,81.9,47.8,117.1c24.1,34.1,53.2,61.3,91.6,78c6.6,2.9,32.7,13.4,31,23.1
			c-1.3,7.3-14.8,3.2-19.7,2.1c-69-14.8-127.4-77.1-162.2-135.1c-14.4-24-23.7-48.4-31.7-75c-1.2-3.9-17.9-58.8-12.2-59.5
			c-4.9-38-6.3-84.3,11.7-119.5C697.7,1273.5,713.4,1262.1,727.2,1274.6z M606.9,1282.8c-6.3,28.7-4.2,57.9-2.8,87
			c0.3,5.3,3.3,21.6-5.5,21.3c-6.2-0.2-11.1-16-12.6-20.1c-9.2-24.6-12.5-52.2-7.9-78.1c1.4-8.2,3.6-18.1,12.7-21
			C598.6,1269.4,607.6,1273.8,606.9,1282.8z M2218.2,1150.4c-3.9,1.9-5.6,5.4-6.7,9.3c-30.3,25.8-66,50.9-101.5,69.1
			c-31.7,16.3-68.4,23.2-103,30.5c-79.1,16.8-157.8,23.7-236.7,1.8c32.2,29.7,61.5,69.2,102.1,88.2c20.2,9.4,42.5,3.7,62.9-2.2
			c25-7.3,50.1-14.8,74.3-24.5c45.7-18.3,94.5-38.6,132.9-70c17-13.9,30.9-31.1,43.1-49.3c7-10.4,12.9-21.6,20-31.9
			C2209.7,1165.5,2218.6,1158.2,2218.2,1150.4z M1881.2,621.8c-1.2,14.7-9.8,27.1-17.5,39.1c-5.2,8.2-15.3,18.1-10.5,27.4
			c5.7,11,23.9,18.1,33.3,25.7c13.9,11.2,27,23.4,39.8,35.8c23,22.3,46.9,43.9,69.4,66.7c21.4,21.6,42.2,43.7,69.2,58.4
			c59.3,32.4,111.5,77.6,163.3,120.7c52.8,43.9,105,90,150.9,141.2c24.5,27.4,44.9,57.5,62.4,89.8c9,16.6,18.6,32.9,27.6,49.5
			c4,7.3,8.5,14.5,12.1,22c2.7,5.6,4.4,14.7,9.4,18.8c9.9-21.8-5.5-50.7-14.4-70.4c-6.1-13.5-12.1-27-18.1-40.5
			c-4.2-9.5-13-20.9-13.5-31.4c-1.2-25.7,31.9-7.2,41,1c22.5,20.4,35.4,51,51.3,76.3c3.7-20.1-36.3-51.2-19.8-68.7
			c13.2-13.9,37.4,18.7,44.8,27.5c5.1-24.9-7.9-49.2-21.4-69.1c-15.1-22.2-32.5-43.3-50.4-63.3c-41.7-46.7-89.5-88.3-136.6-129.4
			c-47-40.9-95.3-80.1-143.4-119.5c-46.7-38.3-94.2-76.6-146.4-107.3c-29.3-17.2-60-31.6-89.9-47.6
			C1942.5,657.7,1912.9,638,1881.2,621.8z M1472.9,565.2c-1.4,0.3-9.3,1.3-9.9,2c-2.6,3,0.9,12.8,3.9,14.6
			c-10.5,7.8-22.3,15-35.6,16.2c8.4,8.2,24.3,22.6,21.8,35.9c-3.4,18.2-25.3,5.4-34.2-0.1c-14.2-8.9-28.8-18.3-39.2-31.6
			c-6.6-8.5-8.9-17.5-13.8-26.6c-2.7-5-1.1-5.9-7.1-6.2c-6.8-0.4-18.5,6.1-24.8,8.6c-9.8,4-19.3,8.5-28.4,13.7
			c-16.9,9.5-32.8,21.1-46.6,34.7c-28.7,28.2-48.2,65.2-50.7,105.7c20.4-2.4,40.3-11.2,57.5-22.2c12.2-7.8,24.7-17,26.9,5
			c0.8,8.6-1.6,28.6-6.7,35.2c-4.8,6.2-6.9,1.2-11.9,4.9c-5.8,4.3-2.7,10.5-2.7,16.5c-2.8-2.3-5.6-4.7-8.3-7c-5,6.6,0.7,3.1,2.6,7
			c1.1,2.3-6.5,9-8,10.2c-3.1,2.4-4.9,0.4-8.4,3.9c-2.3,2.3-4.8,7.3-7.3,10.2c-12.9,14.6,4.2,37.5,10.9,53
			c5,11.5,10.5,22.7,15.7,34.1c3.8,8.3,5.9,18.2,10.9,25.9c10,15.2,33.1,6.9,48.1,5c20.4-2.5,40.4-5.1,60.8-7
			c12-1.1,25.5-8.1,10.1-17.1c-15.2-8.9-67.9-10.6-68.2-33.6c-0.4-24.4,33.6-28.5,50.6-26.4c24.9,3.1,41,9.4,58,28.1
			c-3.8-35.8-29.3-65.5-34.9-101.4c-1.5-9.8-6.3-69.9,17.2-43.9c12.6,13.9,22.5,35,31.8,51.1c14.1,24.4,26.3,49.7,39.2,74.7
			c12.3,23.8,30.4,46.8,39,72.1c4.9,14.3,11.6,44.3,27,51.5c9.9,4.7,26.5-1.4,36.7-2.9c6.3-0.9,12.4-1.8,17.9-5.5
			c2.8-1.9,5.6-6.8,9.1-7.3c10.2-1.6,12.8,14,12.1,21.1c-1.1,11-6.1,13.9-16.4,15.2c17.4,8.5-9.4,35.1-14.1,45.7
			c-0.2-0.5-3.3-8-5.6-8c-4.5,0,13.8,36,15.2,38.5c9.6,17.4,21.6,33,33.3,49c6.7,9.2,16.3,31,29.9,28.9c7.5-1.1,23.2-16.7,29.1-6
			c5.3,9.6-11.2,19.9-13.7,27.5c-4.2,12.8,11.5,26.3,20.8,33c24.5,17.8,56.3,22,85.3,27.4c-5.5-7.5-17.6-11.5-17.8-22.2
			c-0.2-7.3,5-11.2,1.5-19.1c-2.9-6.5-10-10.3-12.2-17.3c-2.4-7.7,1.4-16.4,5.6-22.8c17.9-27,58-15.7,81.5-3.5
			c-1.7,0.8-3.2,1.9-4.3,3.3l-0.3,0.4l0.1,0c3-1.8,16.1,3.9,17.7,5.1c5.1,3.7,12.1,12.4,15.7,17.7c11.4,17.2,13.1,38.3,7.1,57.8
			c71.7,0,139.2-19.1,203.3-49.5c14.6-6.9,29-11.4,42.9-20.1c14.3-9,27.8-18.9,41.8-28.3c13.2-8.8,12-14.1,3.2-26.5
			c-10.7-15.2-20.2-31.4-32.1-45.7c-1.8,4-2.5,11.9-6.5,14.4c-4.3,2.7-8.3-2.7-11.2-0.6c0.3-0.2-8.9,14.1-10.4,10.5
			c3.8,9.2-11.5,3.3-14.2,1.6c0.6,8.6-6.5,16.1-10.6,4.5c-10.9,10-36.9,0.8-22.9-14.6c6.9-7.6,14.4-11.7,18.8-21.6
			c4.9-11.1,6.6-23.7,7.2-35.8c1.4-28.4-13.9-41.6-33.2-60c-10.8-10.3-22-20-33-30c-9.7-8.7-18.1-19.5-28.3-27.6
			c-7.3-5.8-13.2-7.5-20.3-2.4c-2.9,2.1-3.9,4.7-7.6,6.7c-4.8,2.6-12,4.2-17.4,4.8c-27.1,3.4-58.4-5.9-83.2-15.9
			c-6.8-2.7-10-7.2-15.9-10.6c-3.7-2.1-6.9-0.8-10.8-3.4c-10.3-6.7-9.8-17.4-2.3-25.8c17.6-19.6,42.8-2,60.7-17.8
			c22.4-19.7-14.9-46.9-30-59c-12.1-9.6-22.4-11.7-37.1-14.3c-3.1-0.5-23.5-6.4-16.4,2.1c-15.9-0.4-23.7-0.3-36.5,9.6
			c-3.4,2.6-7.8,5.1-8.7,9.5c-0.5,2.3,4.3,2.8,4.3,2.8c-0.7,1.6-5.5,4.4-6.2,4.9c8.2,1,6.1,17,3.9,17.1l-0.1,0l0.2,0.2
			c3.6,3.4-4.5,8.6-7.2,9.5c-7.8,2.5-15.1-2.9-20.3-8.3c-11.6-12.1-20.1-32.6-19.3-49.4c1-23.5,16.5-37.1,29.2-54.7
			c9.5-13.2-4.6-20.2-14.5-28.4c-12.1-10.1-28.5-22.5-32.4-38.6c-3.6-14.7,6.4-19.7,19.2-15.3c17.3,6,31.4,21.3,46.7,30.9
			c13.6,8.5,30.9,25.9,47.5,26.9c-3.1-10.9-18.2-9.7-24.1-17.8c-7.7-10.7,4.3-15.4,13.4-14.2c7.1,0.9,27.2,15.9,26.7-1.3
			c-0.3-9.2-15.7-12.3-22.4-15c-34.1-13.6-69-22.8-105.1-29.1c-11.7-2-14.7-0.6-20.4,10c-1.9,3.6-8.8,20.1-12.6,9.2
			c-4.9,9-6.4,18.5-17.2,22.1c-13.7,4.6-31.3-2.2-43.9-7.5c-10.8-4.5-21.1-10.9-28.1-20.5c-3.5-4.8-6-10.1-7.6-15.8
			c-1.4-4.8-0.7-12.7-3.2-17.1c-4.2-7.3-14.2-5.7-21.9-6.5c-17.2-1.6-34.2-3.1-51.5-3.3C1500.5,562.6,1486.8,561.7,1472.9,565.2z
			 M1846.9,1209.2c-5.5,2,4.3,8.6,7.5,7.8C1853,1214.9,1850.9,1207.8,1846.9,1209.2z M1851.8,1137.3l-0.1,0.1
			c-0.2,0.2-0.3,0.4-0.4,0.7c0.1-0.2,0.3-0.4,0.4-0.6L1851.8,1137.3z M1961.9,964.4c5,4.2,3,13.9,6.4,19.8
			c9.1,15.9,25.6,31.6,41.1,41.3c16.7,10.4,24.6,23.8,28.7,42.6c0.8,3.9,3.4,9.3,2.2,13.3c-1.2,3.8-5.4,5-6.7,8.3
			c-0.6,1.5,1.9,13.4,1.6,13.4c-1.4,0.2-5.6-5.8-5.6-5.7c-1.7,4.1-1.1,8.8-5.6,11l-0.5,0.2l0.1,0.1c1.1,0.9,6.2,5.1,5,6
			c-1.7,1.3-5.8,0.4-8,1.2c-3.3,1.2-5.8,4.2-9,5.6c-8.6,3.7-18.6,2.6-27.7,1.3c-19.2-2.8-40.7-9.6-54.6-23.8
			c-16.8-17.2-12.8-35-14.3-54.3c-1.7-21.6,13.9-54.4,26.5-71.2C1945.6,967.6,1954.2,958,1961.9,964.4z M582.7,796
			c-1.1,2.6,0,6.6-0.6,9.4c-1.3,5.7-4.6,10.7-7.8,15.5c-6,8.9-11.9,17.1-16,27.2c-10,24.8-19.2,51.5-24,77.8
			c-10.2,56.4,24,102.9,25.8,157.9c15.7-16.5,39.6-17.3,60.9-17.4c28.3-0.1,56.4,1.1,84.6,3.6c54,4.7,109.2,6.7,160.4,26.4
			c5.6,2.2,9.9,3.1,15.5,4.3c6.2,1.3,2.9-1.6,7.5,2.1c1.2,1,1.7,4.6,3,5.8c6.6,6.5,10.6,2.1,16.2-4.9c15.4-19.1,30.8-36.4,50.6-51.3
			c42.2-31.6,89.5-46.2,141.6-50.9c29.8-2.7,59-4.2,88.9-4c28.6,0.3,58.8,0.8,85.9,11c-6.7-19.3-18.3-36.6-27.5-54.6
			c-4.5-8.8-8.7-18-14.4-26.1c-5-7.1-12.6-12.9-16.1-21c-0.6,1.6-1.2,3.3-1.9,4.9c-55-15.8-111.8-24.2-168.2-33.3
			c-56.7-9.1-112.7-21.6-169.2-31.2c-28.4-4.8-56.9-7.8-85.5-11c-27.5-3.1-54.1-9.2-81.2-14.4c-27.5-5.3-54.3-11.6-81.3-18.9
			c-11.3-3-22.1-7.2-33.1-10.9C587.9,789.2,585.9,788.5,582.7,796z M1799.7,896.1c1.6,6.7-3.6,15.4-5.3,21.8
			c-1.9,7.3-6.1,10.2-8.2,16.8c-1.9,5.7,1.5,36.2-13.2,27.1c0.5,2.2,2.9,5.2,3.1,7.1c0.3,2.4-2,6.1-1.4,8.2
			c0.6,1.9,7.1,7.4,8.6,10.5c6.2,12.3,10.5,26.6,13.6,40c3.2,14,7,33.4-4.6,43.1c-2.8,2.3-5.2,2.9-8.1,5.7c-0.3,2.6-1.5,4.7-3.5,6.4
			c-1.1,0.3-2,0-2.7-0.8c-3.5,1.9-2.4-6.1-6.5,1.7c-1,1.9,0.8,8.4-0.1,7.7c-1.6-1.2-6.6-6.3-8.2-6.4c-3.6,4.9-3.5-0.1-7.3,0.6
			c-0.1,2-1.2,3.1-3.3,3.3c-1.6-0.4-3.2-0.7-4.8-1.1c-9.6,0.1-23.8-4-33-6.5c-17.6-4.9-30.2-17-34-35.3c-8-38.2,24.2-86,47.2-113.8
			C1736,922.8,1791.2,861.1,1799.7,896.1z M1953.3,1019.2c-0.2,3.2,0.7,8-2.9,8.4C1950.6,1023.9,1949.1,1019.3,1953.3,1019.2z
			 M1702.7,1013.8c1.6,9.3,2,4-1.7,10.3C1699.8,1020.3,1700.3,1016.9,1702.7,1013.8z M1969.4,1001.8c1.4,1.8,6.9,6.6,2.2,7.8
			C1967.4,1010.7,1969.2,1004,1969.4,1001.8z M1771,937.7c-1.9,10,3.8,7.6,11.5,5.8C1778.7,941.5,1774.8,939.6,1771,937.7z
			 M330.2,535.9c-37.2,31.9-38.4,87.8-37.2,132.7c1.6,61.1,5.3,122.3,11.2,183.1c2.7,27.5,10.5,41.5,37.6,50.7
			c29.4,10,61.1,8,91.5,6.3c-5.8-45.3-17.2-104.9,28.2-135.1c4.2-2.8,8-4.8,13-5.1c3.3-0.2,8.1,2.9,11.3,1.3
			c6.4-3.1,2.7-12,0.6-17.1c-6.4-15.3-18.6-27.5-28.5-40.5c-12.4-16.3-23.1-15.8-41.7-13.8c-7.4,0.8-36.5,4.1-30.8-11.7
			c4.2-11.5,27-8.6,36.3-11.3c7-2,8.5-2.9,8.2-10.1c-0.5-11.2-6.9-14.3-16.9-14c-12.8,0.4-35.1,7.2-45.8-2.9
			c-15.3-14.4,7.4-24.5,18.9-26.5c12-2,28.1-0.2,30.9-15c2.6-14.2-4.8-31.3-10.7-43.8c-5.7-12.1-13.4-27.5-25.2-34.7
			C364.6,518.4,344.1,524,330.2,535.9z M474.7,802.7c-15.1,3.4-23.8,23.1-25.6,36.8c-1.7,13.3-0.5,32.3,9.2,42.5
			c12.8,13.4,35.2,12.5,49,25.1c6.1-30.3,17.4-59.5,32.3-86.6c-11.7-3.2-23.1-7.4-34.7-11.1C496.4,806.8,483.8,800.7,474.7,802.7z
			 M1445.5,868.1c3.4,2.9,4.5,3.8,5.3,8.3C1442.8,876.9,1445.3,874.3,1445.5,868.1z M1525.4,652.4c12.6,0.3,18.5,4.4,28.6,10.4
			c7.2,4.3,15.9-0.3,15.9,10.6c20.5-16.1,58.9,25.5,73.3,36.4c15.2,11.5,30.2,25.1,31.8,45.6c0.5,6.1-0.8,12.3,0.2,18.4
			c0.7,4.6,3.6,9.1,3.1,13.9c-0.6,5.5-5.2,8.7-6.3,13.9c-0.4,2,1,6.1,0.1,7.8c-9.2,16.9-21,30.7-41.2,32.4
			c-17.6,1.5-37-4.8-49.9-17.1c-11.4-10.9-18.2-27.2-21.1-42.5c-0.5-2.6,0.5-8.7-0.4-10.9c-1.3-3.3-3.2-3.3-4.7-5.9
			c-4.2-7-10.1-20.1-4.7-27.8c-13.3,3-23.4-25.5-28.4-33.8c-3.7-6.2-12.7-11.1-15.2-17.1c-3.4-8.3,8.9-11.9,4.6-17.6
			c-2.3-3.1-14.5-1-13.3-8.7C1498.8,653,1520.6,652.3,1525.4,652.4z M1783.2,796.6c0.1,0.2,0.2,0.2,0.4,0.3l0,0l0,0L1783.2,796.6z
			 M1748,734.5c1.2-1,7.3-7.2,8.1-2.6C1756.7,735.8,1749.9,734.5,1748,734.5z M1171.1,247.2c-13.4,0.8-25.4,15.3-35.4,22.9
			c-14.9,11.3-32.6,19.7-50.1,26c-20.5,7.3-41.5,13.8-62.5,19.4c-21.3,5.6-43.5,6.8-64.8,12.7c10.5,19.2,21,38.5,31.6,57.7
			c4.6-6.3,3-13.5,10.6-18.1c5.3-3.2,12.9-3.6,18.8-4.8c16.6-3.3,34.8-6.1,51.6-2.8c10.9,2.2,22.9,10.5,12.7,22.2
			c-6.5,7.4-20.5,5.5-21.6,17.2c-1.1,11.2,10.4,20.8,7.7,32.6c-3.7,16.6-20.3,11.6-27.6,0.9c-6.6-9.5-4.1-26.5-14.2-33.4
			c-6-4.1-22.2-5.6-28.7-2.1c12,22.1,35.2,49.3,21.6,75.7c-4.2,8.1-13.3,11.2-7.2,19.2c7.1,9.2,27.5,16.8,38.4,13.9
			c10.2-2.6,21.8-14.1,33.3-8.4c10.8,5.4,3.2,14.4,4.1,22.9c2.9,25.3,54.9,10.9,69,7.5c14.2-3.4,28.9-11.5,43.5-11.9
			c13.8-0.3,26.6,6.3,37.5,14.1c8.2,5.8,21.8,22.9,32.2,23.4c10.4,0.6,25.2-14.8,34.4-19.5c16.5-8.4,34.5-10.8,52-16.4
			c2.8-0.9,14.9-3.4,15.1-7.4c0.2-3.9-14.1-12.4-16.5-14.2c-22.2-17-38.5-40.3-61.6-56.2c-10.3-7.1-21.4-12.1-33.5-15.3
			c-6.7-1.8-24.9-4.2-25.4-13.7c32.1-5.4,32.9-45.4,19.3-68c-8.6-14.4-21.9-21.3-38.8-18.2c-24.4,4.5-28.9,22.4-34.5,43.6
			c-20-10.9-41.7-37.4-42.9-60.8C1137.7,281.8,1165.6,270.6,1171.1,247.2z M1766.8,422.2c33.6,6.2,66.6,14.6,99,25.6
			c20,6.8,49,12.7,66.2,25.4c5,3.7,11.4,11.9,6.8,18.5c-4,5.7-13.7,4.1-19.4,3.2c-26-4-51.6-14.9-77.3-20.8
			c-68.5-15.6-138.8-22.9-208.7-27.9c-19.3-1.4-38.6-2.6-57.9-3.9c-16.1-1.1-33.7-0.6-49.5-4.3c-12.4-2.9-15.5-12-6.2-22.2
			c9.1-10,24.3-8.4,36.4-10.3C1626.8,400.9,1697.4,409.3,1766.8,422.2z M1649.8,340.5c22.9,7.9-3.9,11.6-13.9,10.8
			c-3.4-0.3-48.2-4.7-48.2-3.3c-8.9,0-32.6,6.8-39-2.2c-6.9-9.7,22.6-13.1,28.6-13.5C1600.2,330.6,1627.7,332.9,1649.8,340.5z"/>
	</g>
</g>
</svg>
