<svg xmlns="http://www.w3.org/2000/svg" width="818" height="1181" viewBox="0 0 818 1181"><g transform="translate(330 815)"><path d="M119,.876C104.976-1.49,90.4,2.006,76.88,5.731,55.4-8.374,27.56,5.864,12.174,23.486c-5.266,4.337-16.324,10.1-10.5,18.371-2.208,5.849-2.8,8.6,1.772,1.763,25.869,2.978,53.623-2.648,79.224-7.954,8.717,2.931,16.415,9.785,26,7.437,9.06,1.926,18.869,3.725,27.048-2.087,6.228-.253,20.084,10.931,19.861-2.075C153.652,26.475,128.934,5.731,119,.876Z" transform="translate(126.363 31.947)" fill="#fff"/><path d="M3.505,59.439h0c-2.244,0-3.422-1.057-3.5-3.141a13.938,13.938,0,0,1,1.22-5.3,52.691,52.691,0,0,1,3.531-7.016,143.849,143.849,0,0,1,11.35-16.217A156.689,156.689,0,0,1,28.762,13.553c4.111-4,7.108-6.177,8.669-6.294A52.583,52.583,0,0,1,50.1,1.674,43.7,43.7,0,0,1,62.192,0a58.429,58.429,0,0,1,13.97,1.846A134.093,134.093,0,0,1,90.788,6.5a13.3,13.3,0,0,0,1.61.1c3.427,0,6.967-1.246,10.389-2.451a43.49,43.49,0,0,1,7.806-2.223,46.87,46.87,0,0,1,6.546-.467,45.761,45.761,0,0,1,19.6,4.473,62.074,62.074,0,0,1,16.488,11.641,94.623,94.623,0,0,1,13.212,16.142,125.17,125.17,0,0,1,9.77,17.977,3.788,3.788,0,0,1-.153,3.729,3.569,3.569,0,0,1-5.6.709,21.417,21.417,0,0,0-7.29-3.441,31.392,31.392,0,0,0-8.043-.927,108.208,108.208,0,0,0-12.989,1.105l-.827.1a124.737,124.737,0,0,1-15.458,1.208A58,58,0,0,1,110.6,52.264a56.15,56.15,0,0,1-16.431-7.49A21.973,21.973,0,0,1,87,48.576a47.318,47.318,0,0,1-9.257,1.957c-6.748.827-14.474.833-22.653.84a232.789,232.789,0,0,0-26.046.992C19.4,53.474,11.774,55.7,5.726,59.174A10.856,10.856,0,0,1,3.505,59.439ZM66.361,7.086A48.618,48.618,0,0,0,35.525,17.709,69.782,69.782,0,0,0,23.167,30.46,114.948,114.948,0,0,0,12.5,47.7c15.195-4.773,31.5-4.877,47.264-4.978,3.263-.021,6.636-.042,9.933-.106.276-.006.573-.009.906-.009.693,0,1.433.013,2.216.027h.005l.116,0c.9.016,1.719.028,2.566.028,5.568,0,11.567-.59,13.84-4.967a3.27,3.27,0,0,1,2.99-1.884,3.774,3.774,0,0,1,.414.023,3.353,3.353,0,0,1,1.523-.371,3.823,3.823,0,0,1,2.19.743,55.164,55.164,0,0,0,16.567,7.741A66.739,66.739,0,0,0,131.08,46.34a80.393,80.393,0,0,0,8.8-.495c1.355-.15,2.757-.324,4.113-.493a104.839,104.839,0,0,1,12.764-1.063,34.986,34.986,0,0,1,8.151.86A89,89,0,0,0,156.5,31.2,74.516,74.516,0,0,0,145.322,19a52.735,52.735,0,0,0-13.53-8.646,39.034,39.034,0,0,0-15.477-3.284,38.5,38.5,0,0,0-9.346,1.172c-.483.04-2.626.752-5.109,1.577-3.875,1.287-8.7,2.889-10.019,2.889-.2,0-.316-.038-.342-.112-.038-.109.111-.3.442-.566A90.352,90.352,0,0,0,78.576,8.3,65.064,65.064,0,0,0,66.361,7.086Z" transform="translate(116 27)"/></g><g transform="translate(0 448)"><path d="M502.638,155.145c-24.762-23.021-16.812-45.226-25.088-73.277-16-34.707-49.006-68.889-87.225-76.293C371.241-5.6,346.3.734,333.257,18.259,321.01,21.5,320.6,38.438,316.511,48.456a450.567,450.567,0,0,0-18.1,60.164C151,139.31,37.93,239.682,14.357,391.917c-4.03,22.123-7.328,44.394-10.426,66.665-1.815,19.186-11.425,49.632,8.33,62.047.565,13.763,2.217,27.662,7.457,40.618,2.012,12.91,3.638,25.905,7.89,38.35,9.374,21.548,10.819,45.185,21.346,66.665,7.356,15.846,18.155,28.567,31.51,39.648,5.642,4.944,13.391,10.308,14.576,18.044-.354,11.66,8.493,28.513,22.466,23.037,9.917,3.729,20.567,4.7,31.072,4.623,178.021-7.7,356.415-8.347,534.442.258,6.243.291,12.171-5.7,11.911-11.913A1675.491,1675.491,0,0,0,674.058,537.7c-24.6-138.583-50.888-293.59-171.42-382.551Z" transform="translate(74 -61)" fill="#fff"/><path d="M129.279,684.007a7.516,7.516,0,0,1-5.589-2.2,5.716,5.716,0,0,1-1.4-4.5l.192-2.1c.82-8.852,1.948-19.079,4.959-28.42-.453.013-.853.019-1.223.019a18.71,18.71,0,0,1-5.968-.809,38.761,38.761,0,0,1-9.25-4.929,65.336,65.336,0,0,1-8.776-7.11,73.864,73.864,0,0,1-7.493-8.46,108.3,108.3,0,0,1-11.518-19.207,187.738,187.738,0,0,1-8.293-20.842c-4.754-14.116-9.33-28.962-13.989-45.387L56.29,523.578c-6.018-21.39-11.709-42.362-15.2-63.768a4.036,4.036,0,0,1-1.589,1.239,24.018,24.018,0,0,1-9.826,2.193,22.507,22.507,0,0,1-10.1-2.435,29.457,29.457,0,0,1-8.422-6.429,38.313,38.313,0,0,1-6.222-9.108A39.78,39.78,0,0,1,1.435,434.8c-1.67-9.162-1.5-18.642-1.333-27.81v-.045c.02-1.093.04-2.223.057-3.332L.175,402.5c.027-1.989.051-4.061.073-5.89.117-9.847.238-20.029.749-30.04.5-9.838,1.456-19.857,2.852-29.779,1.362-9.676,3.176-19.53,5.394-29.289C11.4,298,14,288.315,16.977,278.727c2.892-9.326,6.215-18.827,9.878-28.238,7.534-19.338,15.018-36.441,22.881-52.285,4.373-8.812,8.912-17.307,13.492-25.25C68.1,164.5,73.18,156.4,78.326,148.86a228.934,228.934,0,0,1,16.432-21.467,152.04,152.04,0,0,1,19.387-18.8c13.529-10.818,29.534-20.042,48.931-28.2,18.166-7.642,37.088-13.663,54.83-19.03A539.826,539.826,0,0,1,280,46.139a4.785,4.785,0,0,1,.829-.074,3.428,3.428,0,0,1,3.051,1.655c.669,1.113,1.336,2.311,2.1,3.77a23.257,23.257,0,0,1,7.08-2.364c1.116-.247,2.168-.479,3.071-.756,2.6-.805,5.809-1.519,9.206-2.275,8.474-1.885,18.074-4.021,23.153-8.545a44.256,44.256,0,0,0,9.536-12.419,111.887,111.887,0,0,0,6.158-14.466l.666-1.835c2.207-6.1,4.549-8.83,5.891-8.83a.936.936,0,0,1,.752.382c.773.962.754,3.615-.053,7.278l-.36,1.627c-.989,4.433-2.117,9.182-3.668,13.87a59.553,59.553,0,0,1-5.911,13c-7.5,12-25.523,17.523-40.007,21.962-2.376.728-4.62,1.416-6.743,2.107a4.014,4.014,0,0,1,.009,1.031,58.269,58.269,0,0,1,13.886,4.11,90.819,90.819,0,0,1,22.812,14.287,51.239,51.239,0,0,1,8.312,9.173l23.481-10.2c1.335-.579,2.7-1.188,4.015-1.777l.031-.014c6.379-2.853,12.975-5.8,19.933-6.919a27.327,27.327,0,0,1,4.3-.327,33.033,33.033,0,0,1,11.2,1.975,23.457,23.457,0,0,1,9.342,5.957A14.924,14.924,0,0,1,416,89.35a5.212,5.212,0,0,1-3.01,4.26c.865-.072,1.727-.108,2.562-.108.34,0,.682.006,1.017.018a19.67,19.67,0,0,1,8.066,2.212A15.944,15.944,0,0,1,431,101.243a9.321,9.321,0,0,1,1.432,4.134,9.435,9.435,0,0,1-.86,4.713,1.823,1.823,0,0,1-1.694,1.206,2.882,2.882,0,0,1-2.667-2.385c-.791-6.624-4.692-9.844-11.927-9.844-4.177,0-8.882,1.072-12.662,1.934a228.439,228.439,0,0,0-25.21,7.229A119.924,119.924,0,0,0,352.2,120.389c-8.194,5.308-15.708,11.665-15.209,22.14a.192.192,0,0,1-.052.149.269.269,0,0,1-.193.083.2.2,0,0,1-.186-.113,12.051,12.051,0,0,1-1.044-6.722,17.6,17.6,0,0,1,2.286-6.459,37.69,37.69,0,0,1,9.359-10.339c8.478-6.579,19.01-12.136,32.2-16.99a169.766,169.766,0,0,1,17.906-5.328l1.395-.342c.708-.171,1.436-.352,2.14-.526l.006,0c2.865-.709,5.824-1.442,8.783-1.922a4.268,4.268,0,0,1-3.092-3.121l-.068-.249a13.567,13.567,0,0,0-4.987-8.057,13.754,13.754,0,0,0-8.156-2.284c-3.859,0-8.473,1.016-14.1,3.106-4.814,1.787-9.576,4.072-13.4,5.909l-.013.006c-1.87.9-3.484,1.672-4.888,2.291-2.442,1.075-4.936,2.156-7.347,3.2l-.09.039c-5.747,2.49-11.689,5.065-17.443,7.78l-1.056.5a76.084,76.084,0,0,0-9.409,5.189,31.16,31.16,0,0,0-7.846,7.207,24.72,24.72,0,0,0-4.27,9.245,33.315,33.315,0,0,0-.655,10.012c.488,6.833,2.527,13.816,4.5,20.57,1.05,3.6,2.041,6.991,2.766,10.243a69.246,69.246,0,0,1,2,13.74,33.846,33.846,0,0,1-1.573,9.155l0,.009c-.15.558-.3,1.135-.452,1.705l-.542,2.121a.916.916,0,0,1,.692.384.709.709,0,0,1,.117.636,129.718,129.718,0,0,1-7.495,18.581c-2.851,5.876-5.937,11.511-9.386,17.741-7.952,14.371-14.271,25.162-20.489,34.988-12.679,20.034-26.541,39.922-41.2,59.109-14.425,18.879-29.945,37.5-46.129,55.351-6.741,7.436-13.836,14.771-20.7,21.865-8.879,9.181-18.061,18.675-26.573,28.483a176.942,176.942,0,0,0-19.07,25.811,124.931,124.931,0,0,0-7.86,15.54l-.442,1.063c-1.815,4.335-3.6,8.213-7.058,11.767a3.411,3.411,0,0,1-5.64-1.49c-1.08-5.06-.266-10.717,2.488-17.3a110.785,110.785,0,0,1,8.8-15.862l.1-.156.469-.745a226.278,226.278,0,0,1,22.239-29.191c2.171-2.465,4.454-4.981,6.98-7.691a165.475,165.475,0,0,1-21.092,3.857l-.011,0c-3.731.516-7.589,1.05-11.337,1.713a252.2,252.2,0,0,0-32.649,7.61,143.192,143.192,0,0,0-28.08,12.25,109.358,109.358,0,0,0-12.389,8.15c-.29.219-.577.452-.855.679l-.064.052-.173.141c5.484,13.779,9.947,28.207,14.262,42.161l0,.009c.718,2.322,1.461,4.723,2.2,7.08,3.757,12.069,7.339,23.9,10.347,33.888L77.1,554.27c1.023,3.4,2.034,6.922,3.012,10.33l.009.03C84.5,579.9,89.033,595.68,96.956,609.27a69.527,69.527,0,0,0,16.379,18.93,60.394,60.394,0,0,0,10.139,6.34,43.661,43.661,0,0,1,4.6,2.937l.006,0c.552.386,1.122.785,1.691,1.167a6.37,6.37,0,0,1,4.842-2.213,7.31,7.31,0,0,1,1.153.094l.285.051a24.539,24.539,0,0,0,4.712.447,33.736,33.736,0,0,0,9.682-1.555,59.878,59.878,0,0,0,9.116-3.682c8.95-4.415,15.686-8.685,21.2-13.439,12.1-10.442,22.2-23.419,31.974-35.968l.757-.972a793.89,793.89,0,0,0,91.029-148.96c12.058-25.608,23.982-53.019,35.44-81.472,6.083-15.087,11.411-28.589,16.29-41.278l.7-1.847c.869-2.316,1.731-4.7,2.565-7.01,3.81-10.547,7.75-21.454,14-30.594a.725.725,0,0,1,.23-.239,1.931,1.931,0,0,1,.281-.881c1.895-3.029,5.213-4.363,8.422-5.652l.006,0c.8-.321,1.625-.653,2.412-1.005,4.4-1.978,8.867-3.978,13.187-5.912l.082-.037c.87-.39,1.832-.762,2.849-1.155,2.993-1.156,6.384-2.466,8.341-4.685,2.182-2.455,3.309-6.377,4.3-9.838.364-1.265.707-2.459,1.086-3.544,3.225-9.209,6.774-18.468,10.2-27.422l0-.01.111-.288c.726-1.9,1.44-3.851,2.13-5.742,2.294-6.287,4.666-12.788,8-18.567a28.09,28.09,0,0,1,6.669-7.787,70.1,70.1,0,0,1,8.484-5.741l1.332-.8c2.519-1.535,5.292-3.42,6.314-6.359a7.871,7.871,0,0,0-.883-6.753,14.478,14.478,0,0,0-5.067-4.877,14.686,14.686,0,0,0-7.47-1.953,26.091,26.091,0,0,0-10.11,2.381,82.047,82.047,0,0,0-9.2,4.8c-2.325,1.356-4.667,2.816-6.932,4.227a120.7,120.7,0,0,1-16.449,9.1.161.161,0,0,1-.058.011.179.179,0,0,1-.159-.124.186.186,0,0,1,.037-.207c5.877-5.384,12.924-9.928,19.739-14.323l.02-.013c.818-.527,1.663-1.072,2.487-1.607l1.884-1.228c4.514-2.953,10.5-6.462,16.82-7.39a1.035,1.035,0,0,1-.771-1.1,1.238,1.238,0,0,1,1.1-1.1,130.613,130.613,0,0,1,14.953-.665c6.874-.041,13.982-.084,20.868-1.706a50.288,50.288,0,0,0,14.728-6.124A60.11,60.11,0,0,0,505.865,125.8a102.63,102.63,0,0,0,9.464-11.815c2.52-3.622,5.02-7.571,8.106-12.8,1.189-2.018,2.384-4.072,3.539-6.058,1.748-3,3.555-6.11,5.371-9.144.415-.7.86-1.518,1.362-2.5a27.081,27.081,0,0,1-7.935-3.493,55.125,55.125,0,0,1-6.636-4.9,42.09,42.09,0,0,1-7.43-8.358,56.863,56.863,0,0,1-5.329-9.842,65.676,65.676,0,0,1-5.044-25.212,79.977,79.977,0,0,1,.953-12.908,87.654,87.654,0,0,1,2.921-12.581,1.086,1.086,0,0,1,1.063-.769,1.019,1.019,0,0,1,1.017.769c1.49,5.349,2.48,10.964,3.437,16.395,1.555,8.824,3.163,17.947,6.962,26.225A47.469,47.469,0,0,0,527.8,63.09a31.684,31.684,0,0,0,6.92,5.25,28.921,28.921,0,0,0,2.808,1.3,13.542,13.542,0,0,1,5.232,3.219,4.8,4.8,0,0,1,.36.43,6.877,6.877,0,0,1,.915-.064,4.485,4.485,0,0,1,2.416.637l.189.127.04-.059c-4.075-2.78-8.088-5.475-12.37-7.871a.951.951,0,0,1-.511-1.105,1.172,1.172,0,0,1,1.34-.865l2.822.5c9.693,1.727,19.1,3.622,27.648,7.781a203.388,203.388,0,0,1,27.37,16.13,251.835,251.835,0,0,1,46.391,41.96,255.432,255.432,0,0,1,32.308,47.721,298,298,0,0,1,21.681,53.429c3.1,10.354,5.842,21.04,8.394,32.667,2.271,10.35,4.333,21.207,6.3,33.19,3.66,22.248,6.423,44.992,9.095,66.987l.089.732c.331,2.721.672,5.534,1.01,8.292,2.752,22.551,5.269,45.553,7.483,68.367l.6,6.224c.635,6.728,1.312,13.56,1.966,20.168l.011.107c.458,4.619.976,9.855,1.463,14.9a11.4,11.4,0,0,1,.96,10.111c.964,10.522,1.707,19.85,2.271,28.519,1.58,24.575,2.6,49.442,3.04,73.91.3,17.116-.037,34.5-.364,51.318v.034c-.15,7.736-.306,15.736-.4,23.608a7.671,7.671,0,0,1-2.559,5.908,8.412,8.412,0,0,1-5.535,1.967,8.543,8.543,0,0,1-5.574-1.971,7.761,7.761,0,0,1-2.642-5.9c-.449-19.4-1.577-39.115-2.669-58.184-.462-8.075-.94-16.425-1.361-24.665-.282-5.5-.559-11-.867-17.1-1.053-20.876-2.141-42.462-3.442-63.691-.154-2.445-.3-4.961-.451-7.691a33.192,33.192,0,0,1-5.817,1.4c-.639.114-1.242.222-1.831.339l-.6.123a127.477,127.477,0,0,1-14.827,2.252l-1.616.137c-1.829.126-6.233.262-11.579.262-7.16,0-20.562-.254-29.879-1.951,1.048,16.924,2.172,34.945,3.4,52.82.826,12.016,1.258,24.239,1.675,36.059.28,7.929.57,16.128.976,24.2.457,9.027,1.058,19.534,2.4,29.991.566,4.4,1.178,9.071,1.895,13.619l.366,2.261q.089.539.18,1.064v.006c.593,3.473,1.105,6.472-.391,9.62a8.122,8.122,0,0,1-.943,7.17,6,6,0,0,1-5.1,2.465c-.214,0-.435-.009-.657-.025-35.3-2.642-72.478-4.016-113.651-4.2C530.635,677,527.011,677,523.4,677c-47.536,0-95.843,1.462-142.559,2.876l-.12,0c-14.055.425-28.589.865-42.884,1.258l-17.686.479-2.23.061c-26.587.728-54.08,1.481-81.128,1.481-38.8,0-70.748-1.542-100.55-4.854a5.23,5.23,0,0,1-2.211,4.27A8.073,8.073,0,0,1,129.279,684.007ZM37.246,451.536a4.059,4.059,0,0,1,2.779,1.164c-.188-1.335-.368-2.719-.55-4.23l-.074.07c-1.22,1.113-2.482,2.263-3.775,3.339A4.167,4.167,0,0,1,37.246,451.536Zm594.025-84.87a.182.182,0,0,1,.185.174l.04.27c2.935.605,5.839,1.1,8.63,1.48a117.7,117.7,0,0,0,15.485,1.015c.354,0,.712,0,1.064,0,1.367-.012,2.75-.088,4.087-.161h.011c1.448-.079,2.944-.16,4.41-.16.6,0,1.16.013,1.7.041-13.617-12.272-28.373-25.426-45.11-40.21-30.275-26.76-60.549-53.132-86.17-75.4-5.169-4.494-10.446-9.039-15.549-13.434-7.531-6.486-15.319-13.194-22.913-19.868l-12.267-10.834c-10.995-9.723-21.639-19.356-31-30.283l-1.077-1.27a49.709,49.709,0,0,0-5.61,3.839c-5.4,4.469-7.711,11.305-9.943,17.917l0,.006c-.353,1.046-.718,2.128-1.086,3.166l-.167.472c-3.1,8.631-6.422,17.812-9.881,26.83-.733,1.914-1.419,3.879-2.146,5.959-.324.929-.658,1.885-.994,2.831,12.014,11.546,27.94,26.562,44.591,40.3a493.653,493.653,0,0,0,91.709,60A393.593,393.593,0,0,0,611.3,361.53,177.275,177.275,0,0,0,630.986,367l.011-.1A.283.283,0,0,1,631.271,366.666ZM291.31,73.132h0A13.456,13.456,0,0,0,285.1,74.5a12.051,12.051,0,0,0-4.9,4.844,39.57,39.57,0,0,0-4.572,12l-.1.554-.025.149c-.207,1.229-.42,2.5.445,3.43,1,1.089,3.584,1.774,5.664,2.324.833.22,1.55.41,2.065.6l11.444,4.155,5.715,2.084c.366.134.737.264,1.129.4,2.39.839,5.1,1.79,6.751,3.588a44.18,44.18,0,0,1,12.486-10.778,126.388,126.388,0,0,1,15.014-7.471c-2.824-1.314-5.668-2.705-8.418-4.051l-.013-.007c-6.094-2.981-12.4-6.064-18.877-8.5l-3.464-1.31c-4.682-1.748-9.636-3.365-14.14-3.366ZM347.329,265.01H347.3a24.83,24.83,0,0,1-12.486-3.863,38.269,38.269,0,0,1-9.845-8.806,1.1,1.1,0,0,1-.179-1.2,1.067,1.067,0,0,1,.95-.618,1.159,1.159,0,0,1,.75.3c5.752,4.869,12.186,7.28,19,9.832.707.265,1.508.565,2.282.859a1.948,1.948,0,0,1,1.21,2.177A1.573,1.573,0,0,1,347.329,265.01Zm21.381-108.464a.409.409,0,0,1-.335-.162.308.308,0,0,1-.03-.3,41.509,41.509,0,0,1,7.642-12.894,61.216,61.216,0,0,1,11.355-10.1c8.759-6.145,19.107-10.688,27.143-13.96l.638-.256A39.008,39.008,0,0,1,429,115.928c5.868,0,10.551,1.972,13.916,5.862a19.034,19.034,0,0,1,4.242,13.719,12.139,12.139,0,0,1-4.491,8.681,2.937,2.937,0,0,1-3.9-.5,1.888,1.888,0,0,1-.1-1.832,25.577,25.577,0,0,0,1.858-7.23,13.052,13.052,0,0,0-1.007-6.869,9.983,9.983,0,0,0-6.541-5.22,16.551,16.551,0,0,0-4.735-.658,29.688,29.688,0,0,0-9.436,1.8c-3.125,1.056-6.23,2.452-8.97,3.683-.544.245-1.056.475-1.574.7l-2.091.922c-14.093,6.256-28.346,13.9-37.134,27.389A.385.385,0,0,1,368.711,156.546Z" transform="translate(42 14.629)"/></g><g transform="translate(207)"><path d="M333.415,93.222c-3.861-23.359,8.811-28.206,0-50.411C313.833,1.667,260.468,3.44,221.308.277,177.63-1.4,133.422,4.369,93.156,21.875A206.38,206.38,0,0,0,65.419,36.56C57.751,41.391,58.8,50.577,63.64,55.588,28.775,104.96,48.716,171.232,20.9,223.2c-5.139,9.29-11.936,17.62-16.4,27.286-6.79,14.693-7.225,35.746,8.173,45.5,21.687,11.64,33.789-11.407,44.445,22C110.33,434.483,217.329,441.044,318.9,380.31c8.788-4.888,17.757-10.413,24.393-18.093,15.063-16.951,13.289-40.789,13.622-61.958q.279-18.608.1-37.22C356.542,212.781,339.885,143.065,333.415,93.222Z" transform="translate(52 80)" fill="#fff"/><path d="M213.5,501.49a63.664,63.664,0,0,1-17.335-2.192c-6.537-1.829-12.249-4.954-16.082-8.8a19.513,19.513,0,0,1-4.725-7.3,17.479,17.479,0,0,1-.574-9.23,4.344,4.344,0,0,1,1.759-2.785,5.29,5.29,0,0,1,3.038-.911,5.512,5.512,0,0,1,4.713,2.457l.508.813c2.374,3.767,5.311,7.974,10.133,10.236a33.106,33.106,0,0,0,8.577,2.587,57.572,57.572,0,0,0,8.952.734c.369,0,.741.006,1.106.006,16.041,0,32.663-3.965,48.314-8.026a276.5,276.5,0,0,0,44.1-15.351,195.281,195.281,0,0,0,40.089-23.819A69.1,69.1,0,0,0,359.6,426.193a50.238,50.238,0,0,0,4.841-8.2,45.524,45.524,0,0,0,3.143-9.2c2.949-13.064,1.28-27.06-.334-40.6-.352-2.949-.715-6-1.016-8.944-2.936-28.85-6.523-59.481-11.63-99.319l-.85-6.611q-.438-3.395-.879-6.79l-.006-.045c-3.235-24.948-6.581-50.746-8.215-76.255a7.821,7.821,0,0,1-1.44-3.42l-.279-1.81a15.037,15.037,0,0,1-.111-4.28c.01-5.17.154-10.087.439-15.031.05-.9.09-1.807.121-2.689-4.873,1.074-10.028,2.012-15.76,2.87a504.4,504.4,0,0,1-74.865,5.6c-12.419,0-24.993-.466-37.375-1.386-17.274-1.287-35.484-3.5-55.67-6.771-9.676-1.564-19.134-3.273-28.11-5.08-5.5-1.1-10.992-2.541-16.306-3.935l-.052-.014c-1.194-.313-2.428-.637-3.643-.951a56.872,56.872,0,0,0-7.754,16.365,52.828,52.828,0,0,0-2.076,17.925c.338,5.736,2.157,11.335,3.916,16.749a97.26,97.26,0,0,1,3.24,11.57,32.09,32.09,0,0,1,.244,11.95,20.649,20.649,0,0,1-9.133,13.951c-4.622,3.148-10.51,5.022-15.665,6.531l-4.73,1.367a13.665,13.665,0,0,0-4.588,1.989,6.517,6.517,0,0,0-2.353,4.472c-.8,5.286-.342,11.044.1,16.612.189,2.4.367,4.66.453,6.9.108,2.743.226,5.511.341,8.188.262,6.094.532,12.4.679,18.6.029,1.231.064,2.484.1,3.7v.026c.092,3.332.188,6.776.182,10.158a13.924,13.924,0,0,1-1.77,7.639A28.637,28.637,0,0,1,75.427,312a.449.449,0,0,1-.008.454A.507.507,0,0,1,75,312.7a.424.424,0,0,1-.307-.136,26.169,26.169,0,0,0-3.151-2.791,25.933,25.933,0,0,1-1.971,2.141l-.059-.08a6.343,6.343,0,0,1-4.5,1.876,7.079,7.079,0,0,1-4.616-1.8l-.774-.671c-2.029-1.778-3.629-3.392-4.244-6.6v-.007c-.03-.158-.06-.317-.079-.473-.34-.012-.694-.018-1.053-.018a31,31,0,0,0-14.958,3.857,37.011,37.011,0,0,0-16.6,18.121,20.976,20.976,0,0,0,4.588,4.019.228.228,0,0,1,.1.264.242.242,0,0,1-.226.174.259.259,0,0,1-.112-.027,21.963,21.963,0,0,1-4.88-3.13,44.185,44.185,0,0,0-2.49,9.63,42.66,42.66,0,0,0,1.39,18.747,30.47,30.47,0,0,0,4.117,8.41,23.932,23.932,0,0,0,6.753,6.453,29.573,29.573,0,0,0,15.67,4.6h.079a30.777,30.777,0,0,0,7.632-1.1c.417-.1.841-.218,1.251-.329l.011,0a16.04,16.04,0,0,1,4.178-.748,8.711,8.711,0,0,1,4.451,1.2l-.38.033a2.164,2.164,0,0,0-.58.084,5.731,5.731,0,0,0,1.12.041,5.216,5.216,0,0,1,4.4,2.6,5.345,5.345,0,0,1,.051,5.167l-.241.545-.063.136-.064.138-.145.936-.017.1,0,.023c-.008.049-.016.1-.025.149l-.056.19a.9.9,0,0,1-.034.091l6,9.148c7.074,10.763,14.711,22.143,23.431,32.562a268.2,268.2,0,0,0,19.08,20.71c3.92,3.8,8.252,6.264,12.838,8.876,2.4,1.366,4.88,2.779,7.281,4.395a7.594,7.594,0,0,1,3.364,5.5,6.531,6.531,0,0,1-1.963,5.344,14.811,14.811,0,0,1-10.742,4.522,23.8,23.8,0,0,1-11.228-3.233,43.659,43.659,0,0,1-9.55-7.16c-6.686-6.589-13.137-14.891-19.72-25.38A181.729,181.729,0,0,1,74.8,415.06a137.226,137.226,0,0,1-4.859-13.04,119.357,119.357,0,0,1-3.41-13.543,14.724,14.724,0,0,1-5.17,2.811,40.866,40.866,0,0,1-11.84,1.98c-.455.015-.918.023-1.376.023A48.386,48.386,0,0,1,27.5,388.418a40.771,40.771,0,0,1-15.064-12.308,48.085,48.085,0,0,1-8.188-17.34A58.628,58.628,0,0,1,3.4,334.405a53.91,53.91,0,0,1,9.218-22.317,132.842,132.842,0,0,1-4.009-15.624c-.326-1.528-.634-2.968-.952-4.376l-.633-2.748c-2.043-8.925-3.506-16.317-4.6-23.263a188.3,188.3,0,0,1-2.345-23.51c-.555-17.373,1.952-32.521,7.662-46.31a88.888,88.888,0,0,1,5.53-11.281c.555-.944,1.226-1.89,1.937-2.892,1.463-2.061,2.975-4.191,3.522-6.428,1.208-4.879-3.438-9.969-7.538-14.459a38.791,38.791,0,0,1-5.012-6.221,21.567,21.567,0,0,1-2.955-10.693A16.186,16.186,0,0,1,9.177,131.9a28.516,28.516,0,0,1-3.61-14.515,25.378,25.378,0,0,1,4.94-14.425,28.389,28.389,0,0,1,17.86-11.09,29.484,29.484,0,0,1,5-.408A34.993,34.993,0,0,1,42.7,92.738,343.283,343.283,0,0,1,84.508,59.549a322.178,322.178,0,0,1,46.559-26.042A372.659,372.659,0,0,1,208.087,8.39a391.952,391.952,0,0,1,120.77-6.332,378.721,378.721,0,0,1,96.618,22.612l2.718,1.05,1.351.518c7.324,2.8,14.9,5.7,20.373,11.35a23.369,23.369,0,0,1,4.136,5.811,22.554,22.554,0,0,1,2.134,6.634,21.017,21.017,0,0,1-2.439,13.675,28.489,28.489,0,0,1-7.571,8.573,37.306,37.306,0,0,1-10.159,5.477,60.3,60.3,0,0,1,7.21,6.99,11.578,11.578,0,0,1,2.966,7.427,10.179,10.179,0,0,1-.7,3.873,10.72,10.72,0,0,1-2.266,3.509,61.572,61.572,0,0,1-13.418,10.561,62.193,62.193,0,0,1-15.772,6.519,30.756,30.756,0,0,1-2.09,18.59,26.209,26.209,0,0,1-6.735,9.146,32.116,32.116,0,0,1-9.5,5.62c-6.13,2.4-13.759,3.611-22.675,3.611-2.167,0-4.445-.072-6.77-.215l-.5-.031-.92,10.53a12.68,12.68,0,0,1-2.821,7.191,10.772,10.772,0,0,1-6.729,3.629c-.2.03-.4.05-.6.069,9.113,32.955,14.63,67.314,19.5,99.681,2.3,15.271,4.53,31.445,7.233,52.445l.747,5.835c.545,4.289,1.132,8.664,1.7,12.894l0,.013c1.935,14.428,3.935,29.347,4.738,44.033a94.548,94.548,0,0,1-.142,12.764,75.145,75.145,0,0,1-2.017,12.305,64.147,64.147,0,0,1-4.185,11.681,61.179,61.179,0,0,1-6.645,10.89c-8.7,11.377-20.99,21.056-36.54,28.77a383.268,383.268,0,0,1-48.664,20.246c-8.414,2.811-16.917,5.281-25.273,7.34-8.616,2.124-17.331,3.875-25.9,5.2l-2.332.359A156.011,156.011,0,0,1,213.5,501.49ZM74.4,353.773a6.4,6.4,0,0,1-3.9-1.335c-1.718-1.286-3.277-2.625-4.784-3.92-3.712-3.189-7.218-6.2-12.436-7.89a54.222,54.222,0,0,0-16.1-2.738,32.252,32.252,0,0,0-5.581.459.856.856,0,0,1-.144.012,1,1,0,0,1-.909-.625.7.7,0,0,1,.223-.8,36.136,36.136,0,0,1,9.929-6.413,28.833,28.833,0,0,1,11.393-2.271c.931,0,1.889.042,2.849.123a47.508,47.508,0,0,1,14.807,3.716,33.212,33.212,0,0,1,6.663,3.879,23.462,23.462,0,0,1,5.189,5.365,7.111,7.111,0,0,1,.2,7.535A8.838,8.838,0,0,1,74.4,353.773Z" transform="translate(38 0)"/></g><g transform="translate(330 153)"><path d="M117.753,209.486a41.448,41.448,0,0,1-15.746-3.15,44.459,44.459,0,0,1-10.277-5.916,43.821,43.821,0,0,1-8.367-8.456,8.673,8.673,0,0,1-1.744-6.7,9.669,9.669,0,0,1,3.755-6.058,9.239,9.239,0,0,1,5.505-1.92,7.974,7.974,0,0,1,1.229.095,8.5,8.5,0,0,1,5.692,3.771l.336.465a29.393,29.393,0,0,0,10.764,9.05,24.4,24.4,0,0,0,10.675,2.5,23.607,23.607,0,0,0,2.645-.149,27.767,27.767,0,0,0,11.753-4.141,55.059,55.059,0,0,0,9.955-8.327c.713-.729,1.468-1.52,2.447-2.564a3.874,3.874,0,0,1,2.031-1.567,4.153,4.153,0,0,1,1.321-.211,4.493,4.493,0,0,1,3.683,1.926,4.121,4.121,0,0,1,.7,2.708,24.9,24.9,0,0,1-2.943,9.631,32.141,32.141,0,0,1-6.292,8.1,40.453,40.453,0,0,1-9.53,6.657,39.632,39.632,0,0,1-10.577,3.634A38.882,38.882,0,0,1,117.753,209.486ZM128.835,146.6h0a37.985,37.985,0,0,1-13.568-2.74,68.491,68.491,0,0,1-15.956-9.072,6.145,6.145,0,0,1-2.227-3.548,7.365,7.365,0,0,1,.316-3.984,9.064,9.064,0,0,1,2.686-3.891,6.533,6.533,0,0,1,4.187-1.637,5.932,5.932,0,0,1,3.238,1q.516.4,1.079.834l.012.009a86.384,86.384,0,0,0,9.989,6.96c4.513,2.575,8.429,3.826,11.972,3.826a12.906,12.906,0,0,0,5.059-1,14.137,14.137,0,0,0,4.711-3.345,14.5,14.5,0,0,0,2.741-11.654,22.025,22.025,0,0,0-5.831-10.337,42.531,42.531,0,0,0-8.827-7.139,2.746,2.746,0,0,1-.741-3.153,4.115,4.115,0,0,1,1.361-1.962,4.17,4.17,0,0,1,2.606-.862,5.541,5.541,0,0,1,.936.083,29.562,29.562,0,0,1,10.409,3.768,23.63,23.63,0,0,1,7,6.468,25.733,25.733,0,0,1,4.47,17.167,28.329,28.329,0,0,1-2.289,9.01,26.291,26.291,0,0,1-5.16,7.742A24.636,24.636,0,0,1,128.835,146.6ZM40.548,85.186a8.888,8.888,0,0,1-5.776-2.267,9.018,9.018,0,0,1-3.028-5.828A65.764,65.764,0,0,1,32.092,60c.206-1.661.418-3.378.567-5.23a10.236,10.236,0,0,1,3.87-7.313,11.908,11.908,0,0,1,7.333-2.583,9.026,9.026,0,0,1,5.545,1.748,8.242,8.242,0,0,1,3.063,5.462c1.471,9.631-.092,18.876-4.778,28.262a9.061,9.061,0,0,1-3.191,3.7A7.352,7.352,0,0,1,40.548,85.186Zm129.6-3.877a7.776,7.776,0,0,1-6.1-2.62,23.9,23.9,0,0,1-3.726-6.334,27.639,27.639,0,0,1-1.9-7.631c-.562-5.823,1-10.755,4.4-13.886a9.161,9.161,0,0,1,.705-1.077c1.537-2.018,4.117-4.423,7.673-4.423a8.3,8.3,0,0,1,2.33.344,11.228,11.228,0,0,1,7.5,6.555c1.415,3.28,1.736,7.663.927,12.677a42.493,42.493,0,0,1-3.836,11.959,7.754,7.754,0,0,1-3.316,3.282A10.031,10.031,0,0,1,170.144,81.309ZM1.434,40.584a1.412,1.412,0,0,1-1.179-.725A1.585,1.585,0,0,1,.16,38.306,53.857,53.857,0,0,1,12.216,23.017,74.527,74.527,0,0,1,28.351,11.973a69.29,69.29,0,0,1,19.159-6.7l2.046-.359a49.759,49.759,0,0,1,8.361-.907c4.665,0,8.041,1.261,10.319,3.855a8.794,8.794,0,0,1,2.073,6.24,5.72,5.72,0,0,1-2.073,4.079c-3.279,2.658-6.727,3.2-10.9,3.2-.858,0-1.746-.022-2.605-.043H54.7c-.826-.021-1.761-.044-2.69-.044-.856,0-1.618.02-2.332.061a73.536,73.536,0,0,0-16.217,2.769c-11.534,3.3-20.989,9.3-31.277,16.211A1.342,1.342,0,0,1,1.434,40.584Zm197.321-8.271h0c-.293-.07-.584-.142-.863-.216a48.751,48.751,0,0,1-9.46-3.7l-3.072-1.517A85.244,85.244,0,0,0,174.386,22.2a129.262,129.262,0,0,0-24.994-5.531,10.2,10.2,0,0,1-5.014-1.907,7.53,7.53,0,0,1-2.8-4.28,7.671,7.671,0,0,1,.864-6.416A8.161,8.161,0,0,1,146.4.646,8.885,8.885,0,0,1,149.77,0a9.918,9.918,0,0,1,1.947.2l1.566.321C164.16,2.8,172.99,5.669,180.277,9.3a54.573,54.573,0,0,1,11.873,7.822,34.715,34.715,0,0,1,8.393,10.868c.294,2.27.021,2.832-.283,3.213l-.087.11c-.026.033-.051.068-.077.1a2.171,2.171,0,0,1-1.341.893Z" transform="translate(57.767 56.792)"/></g><g transform="translate(252.755 222)"><path d="M185.291,117.736h0a62.787,62.787,0,0,1-33.431-9.855,44.262,44.262,0,0,1-13.846-14.2A40.886,40.886,0,0,1,132.5,77.148a53.863,53.863,0,0,1,1.812-20.121,18.238,18.238,0,0,1-5.325.7,25.991,25.991,0,0,1-7.763-1.173,11.129,11.129,0,0,1-5.6-3.464c-13.081-1.117-23.486-2.851-33.549-4.528-13.24-2.206-25.744-4.29-41.631-4.29-3.983,0-8.139.132-12.35.394a12.72,12.72,0,0,1-1.495.146c-.2,0-.308-.024-.317-.071A7.725,7.725,0,0,1,28.61,43.7l.042-.016a7.781,7.781,0,0,0,2.32-1.025c-.008-.044-.1-.066-.293-.066a12.33,12.33,0,0,0-1.492.151c-4.3-.392-5.32-1.352-5.422-2.088-.071-.51.292-1.09,1.049-1.678a13.326,13.326,0,0,1,3.279-1.706C29.737,36.1,33.11,35.5,38.116,35.5c7.74,0,19.607,1.457,34.318,4.213,13.283,2.489,28.384,5.924,43.672,9.933,2.324-1.524,5.414-2.265,9.446-2.265a68.733,68.733,0,0,1,8.943.784c.959.128,1.862.248,2.712.345a59.976,59.976,0,0,1,7.533-13.175,73.946,73.946,0,0,1,11.554-12.3,59.26,59.26,0,0,1,14.373-9.094,39.974,39.974,0,0,1,15.991-3.55,33.33,33.33,0,0,1,5.371.434,74.054,74.054,0,0,1,15.556,2.461,48.644,48.644,0,0,1,13.56,6.018,41.305,41.305,0,0,1,10.872,10.383A52.158,52.158,0,0,1,239.51,45.24,38.416,38.416,0,0,1,252.3,37.775a45.343,45.343,0,0,1,15.127-2.655,33.415,33.415,0,0,1,17.087,4.288,64,64,0,0,1,14.883-21.1A59.234,59.234,0,0,1,321.737,5.29,27.057,27.057,0,0,1,337.589,0a29.338,29.338,0,0,1,12.33,2.852,41.818,41.818,0,0,1,11.028,7.586,53.455,53.455,0,0,1,8.83,10.866A52.659,52.659,0,0,1,375.513,34a14.237,14.237,0,0,1,7.326-2.649,8.07,8.07,0,0,0-2.422-.888l6.006.67a29.769,29.769,0,0,0-3.584.218,8.37,8.37,0,0,1,3.067,2.933,4.348,4.348,0,0,1,.7,3.181c-.295,1.133-1.342,1.757-2.948,1.757-1.82,0-4.268-.758-7.276-2.255,6.177,25.833-1.13,42.16-8.347,51.307a48.516,48.516,0,0,1-8.741,8.562,52.453,52.453,0,0,1-10.386,6.124,57.643,57.643,0,0,1-23.276,4.908h-.008a55.567,55.567,0,0,1-10.85-1.058,50.162,50.162,0,0,1-10.216-3.181,44.009,44.009,0,0,1-9.089-5.308A39.661,39.661,0,0,1,288,90.876,41.027,41.027,0,0,1,280.1,71.709c-1.179-7.943-.461-16.813,2.134-26.363a79.973,79.973,0,0,0-18.6-2.358,51.779,51.779,0,0,0-23.275,5.125,52.217,52.217,0,0,1,.911,25,53.48,53.48,0,0,1-3.792,11.469,55.777,55.777,0,0,1-6.2,10.314,57.674,57.674,0,0,1-46,22.836Zm6.416-99.672h0a72.156,72.156,0,0,0-25.2,5.03c-17.5,11.759-28.729,33.77-26.71,52.336,1.067,9.809,6.291,23.059,25.122,30.475a52.356,52.356,0,0,0,19.788,3.826c15.941,0,30.83-7.126,39.83-19.063,11.076-14.513,13.165-34.132,5.323-49.982-7.113-14.377-21.018-22.622-38.149-22.622ZM335.01,7.038a.558.558,0,0,0-.248.047,48.772,48.772,0,0,0-9.51,2.457c-1.681.557-3.269,1.083-4.691,1.438-19.454,8.828-34.446,32.069-34.131,52.911.228,15.082,8.51,26.8,23.319,32.984a44.748,44.748,0,0,0,17.061,3.336c12.175,0,23.657-4.648,31.5-12.754,12.019-11.778,15.907-34.353,9.243-53.68C362.2,18.247,351.18,8.451,337.32,6.9a2.387,2.387,0,0,1-1.107.262,4.263,4.263,0,0,1-.674-.064l-.075-.012A3.06,3.06,0,0,0,335.01,7.038ZM136.485,50.319c-.17.077-.342.153-.513.229l-.133.059c.019.009.038.016.056.022a.6.6,0,0,1,.058.023,1.28,1.28,0,0,1,.22.143c.032.024.065.049.1.072.038-.1.079-.206.119-.306C136.422,50.48,136.454,50.4,136.485,50.319Z" transform="translate(-23.756 0)"/></g></svg>