<svg xmlns="http://www.w3.org/2000/svg" xmlns:xlink="http://www.w3.org/1999/xlink" id="Layer_1" x="0px" y="0px" viewBox="0 0 22.1 93.3" style="enable-background:new 0 0 22.1 93.3;" xml:space="preserve">
<title>1</title>
<g id="f1d121dd-2fd6-488e-ab66-46a3ffdb65e0">
	<g id="a8bf0207-953c-4a3d-9d70-d9875ea768f4">
		<path d="M0.3,83c-0.4-0.4-0.4-1.1,0-1.6c0.4-0.4,1.1-0.4,1.6,0l8,8V53.4c0-0.6,0.5-1.1,1.1-1.1c0,0,0,0,0,0c0.6,0,1.1,0.5,1.1,1.1    v36.1l8-8c0.4-0.4,1.1-0.4,1.6,0c0.4,0.4,0.4,1.1,0,1.6c0,0,0,0,0,0l-10,10c-0.4,0.4-1.1,0.4-1.6,0L0.3,83z"></path>
	</g>
</g>
<g>
	<path d="M16.7,50l-2.3-1.1c0.8-1.1,1.4-2.8,1.4-4.4c0-1.8-0.6-2.6-1.4-2.6c-2.5,0-0.8,7.8-5.8,7.8c-2.3,0-4.2-1.8-4.2-5.7   c0-1.7,0.4-3.4,1.2-4.7l2.4,1c-0.7,1.2-1.1,2.5-1.1,3.7c0,1.8,0.7,2.5,1.5,2.5c2.5,0,0.8-7.8,5.7-7.8c2.2,0,4.2,1.9,4.2,5.7   C18.3,46.6,17.7,48.8,16.7,50z"></path>
	<path d="M12.9,38.4c-3.1,0-5.3-2.4-5.3-5.7c0-2.2,0.9-3.9,2.6-4.6l1.2,2.3c-1,0.6-1.4,1.4-1.4,2.3c0,1.5,1.1,2.7,2.9,2.7   s2.9-1.2,2.9-2.7c0-0.9-0.4-1.8-1.4-2.3l1.3-2.3c1.6,0.7,2.6,2.5,2.6,4.6C18.2,36,16,38.4,12.9,38.4z"></path>
	<path d="M7.6,20.7h2.8c0,0.2,0,0.4,0,0.7c0,1.6,0.9,2.7,2.9,2.7h4.9v3H7.8v-2.9h1.4C8.1,23.5,7.6,22.3,7.6,20.7z"></path>
	<path d="M12.9,20.5c-3.1,0-5.3-2.4-5.3-5.7s2.2-5.7,5.3-5.7s5.3,2.4,5.3,5.7S16,20.5,12.9,20.5z M12.9,12.2c-1.8,0-2.9,1.1-2.9,2.6   s1.1,2.6,2.9,2.6c1.8,0,2.9-1.1,2.9-2.6S14.7,12.2,12.9,12.2z"></path>
	<path d="M3.9,8V5h14.2v3H3.9z"></path>
	<path d="M3.9,3V0l14.2,0v3H3.9z"></path>
</g>
</svg>