<svg xmlns="http://www.w3.org/2000/svg" xmlns:xlink="http://www.w3.org/1999/xlink" viewBox="0 0 485.3 133.71"><defs><style>.a{fill:url(#a);}.b{fill:url(#b);}.c{fill:url(#c);}.d{fill:url(#d);}.e{fill:url(#e);}</style><linearGradient id="a" x1="22.92" y1="-47.84" x2="73.76" y2="378.43" gradientTransform="matrix(1, 0, 0, -1, 0, 105.2)" gradientUnits="userSpaceOnUse"><stop offset="0" stop-color="#0a125d"/><stop offset="1" stop-color="#1d4dcb"/></linearGradient><linearGradient id="b" x1="94.57" y1="-56.38" x2="145.41" y2="369.89" xlink:href="#a"/><linearGradient id="c" x1="163.32" y1="-63.61" x2="214.12" y2="362.33" xlink:href="#a"/><linearGradient id="d" x1="290.05" y1="-79.88" x2="340.88" y2="346.38" xlink:href="#a"/><linearGradient id="e" x1="422.41" y1="-95.67" x2="473.25" y2="330.6" xlink:href="#a"/></defs><title>Asset 4</title><path class="a" d="M5.1,2.3,0,33.3H18.9L3.3,131.7H38L53.6,33.3H73.3l4.8-31Z"/><path class="b" d="M142.9,33.3l4.7-31H84.4L64.1,131.7h63.1l4.8-31H102.7l3-19.2h26.4l4.7-31H110.6l2.8-17.2Z"/><path class="c" d="M204.3,104.9c-1,0-20.1,1.8-28-7.8-4.1-5-5.5-12.2-5.5-20.6a53.46,53.46,0,0,1,.6-8.4c1.7-11.3,5.7-20.3,11.8-27.1a35.47,35.47,0,0,1,4-3.8c.1-.1.2-.2.3-.2a15.72,15.72,0,0,1,2.6-1.9c.2-.1.3-.2.5-.3a35.82,35.82,0,0,1,19.2-5.2,24.37,24.37,0,0,1,4.8.5l1.2.3,4.3-28.1C218,1.4,208.3,0,205.3,0c-19,0-34.4,6.7-46.2,19.9C148.5,31.7,141.6,47.4,138.6,67a93.3,93.3,0,0,0-1.1,14.6c0,14.6,3.3,26.5,9.5,35.8,15.1,22.4,47.1,15.9,53.1,13.8Z"/><path class="d" d="M387.2,12.4c-7.7-6.8-19.3-10.1-34.7-10.1H321.8L306.4,63.8l15.9.5-20.2,67.4h31.4l6.6-42h3.3c13.8,0,24.9-2.8,33.4-8.4C383.4,77,388.4,70.9,392,63a71.43,71.43,0,0,0,4.8-17,62.19,62.19,0,0,0,.8-8.7C397.7,26.9,394.2,18.6,387.2,12.4ZM362.7,45a15.06,15.06,0,0,1-4.5,10.8,13.91,13.91,0,0,1-10.4,4.6h-3l4.8-29.8H353a8.36,8.36,0,0,1,7.5,4.5A16.13,16.13,0,0,1,362.7,45ZM321,2.3H277.3l-7.2,46.6H253.3l7.3-46.6H226.3L206.2,131.7h34.2l8.2-52.3h16.6L257,131.7h20.3l16.4-42H275.9Z"/><path class="e" d="M474.9,12.4c-7.7-6.8-19.3-10.1-34.7-10.1h-33L387,131.7h34.2l6.6-42h3.3c13.8,0,24.9-2.8,33.4-8.4A42.45,42.45,0,0,0,479.7,63a71.43,71.43,0,0,0,4.8-17,62.19,62.19,0,0,0,.8-8.7C485.4,26.9,481.9,18.6,474.9,12.4ZM450.4,45a15.06,15.06,0,0,1-4.5,10.8,13.91,13.91,0,0,1-10.4,4.6h-3l4.7-29.9h3.4a8.36,8.36,0,0,1,7.5,4.5A16,16,0,0,1,450.4,45Z"/></svg>